SplineFontDB: 3.0
FontName: DistinguishMono-Medium
FullName: Distinguish Mono Medium
FamilyName: Distinguish Mono
Weight: Medium
Copyright: Copyright 2015 Google Inc. All Rights Reserved.
Version: 2.000;GOOG;noto-source:20170915:90ef993387c0; ttfautohint (v1.7)
ItalicAngle: 0
UnderlinePosition: -125
UnderlineWidth: 50
Ascent: 800
Descent: 200
InvalidEm: 0
sfntRevision: 0x00020000
LayerCount: 2
Layer: 0 1 "Back" 1
Layer: 1 1 "Fore" 0
XUID: [1021 269 1684064080 13969092]
StyleMap: 0x0000
FSType: 0
OS2Version: 4
OS2_WeightWidthSlopeOnly: 1
OS2_UseTypoMetrics: 0
CreationTime: 1435678095
ModificationTime: 1515872410
PfmFamily: 17
TTFWeight: 500
TTFWidth: 5
LineGap: 0
VLineGap: 0
Panose: 2 11 6 9 4 5 4 2 2 4
OS2TypoAscent: 1069
OS2TypoAOffset: 0
OS2TypoDescent: -293
OS2TypoDOffset: 0
OS2TypoLinegap: 0
OS2WinAscent: 1069
OS2WinAOffset: 0
OS2WinDescent: 293
OS2WinDOffset: 0
HheadAscent: 1069
HheadAOffset: 0
HheadDescent: -293
HheadDOffset: 0
OS2SubXSize: 650
OS2SubYSize: 600
OS2SubXOff: 0
OS2SubYOff: 75
OS2SupXSize: 650
OS2SupYSize: 600
OS2SupXOff: 0
OS2SupYOff: 350
OS2StrikeYSize: 50
OS2StrikeYPos: 322
OS2CapHeight: 714
OS2XHeight: 536
OS2Vendor: 'GOOG'
OS2CodePages: 00000000.00000000
OS2UnicodeRanges: e00002ff.400038df.08000029.00100000
Lookup: 1 0 0 "'aalt' Access All Alternates lookup 0" { "'aalt' Access All Alternates lookup 0 subtable"  } ['aalt' ('DFLT' <'dflt' > 'cyrl' <'SRB ' 'dflt' > 'grek' <'dflt' > 'latn' <'CAT ' 'MAH ' 'MOL ' 'NAV ' 'ROM ' 'dflt' > ) ]
Lookup: 3 0 0 "'aalt' Access All Alternates lookup 1" { "'aalt' Access All Alternates lookup 1 subtable"  } ['aalt' ('DFLT' <'dflt' > 'cyrl' <'SRB ' 'dflt' > 'grek' <'dflt' > 'latn' <'CAT ' 'MAH ' 'MOL ' 'NAV ' 'ROM ' 'dflt' > ) ]
Lookup: 4 0 0 "'ccmp' Glyph Composition/Decomposition lookup 2" { "'ccmp' Glyph Composition/Decomposition lookup 2 subtable"  } ['ccmp' ('DFLT' <'dflt' > 'cyrl' <'SRB ' 'dflt' > 'grek' <'dflt' > 'latn' <'CAT ' 'MAH ' 'MOL ' 'NAV ' 'ROM ' 'dflt' > ) ]

StartChar: .notdef
Encoding: 65536 -1 0
Width: 600
Flags: W
LayerCount: 2
Fore
SplineSet
94 0 m 1,0,-1
 94 714 l 1,1,-1
 505 714 l 1,2,-1
 505 0 l 1,3,-1
 94 0 l 1,0,-1
145 51 m 1,4,-1
 454 51 l 1,5,-1
 454 663 l 1,6,-1
 145 663 l 1,7,-1
 145 51 l 1,4,-1
EndSplineSet
EndChar

StartChar: exclam
Encoding: 33 33 4
Width: 600
Flags: W
LayerCount: 2
Fore
SplineSet
255 212 m 1,0,-1
 237 714 l 1,1,-1
 364 714 l 1,2,-1
 346 212 l 1,3,-1
 255 212 l 1,0,-1
300 -10 m 0,4,5
 268 -10 268 -10 248.5 8 c 128,-1,6
 229 26 229 26 229 64 c 0,7,8
 229 103 229 103 248.5 120.5 c 128,-1,9
 268 138 268 138 300 138 c 0,10,11
 331 138 331 138 350.5 120.5 c 128,-1,12
 370 103 370 103 370 64 c 0,13,14
 370 26 370 26 350 8 c 128,-1,15
 330 -10 330 -10 300 -10 c 0,4,5
EndSplineSet
Substitution2: "'smcp' Lowercase to Small Capitals lookup 33 subtable" exclam.sc
Substitution2: "'c2sc' Capitals to Small Capitals lookup 32 subtable" exclam.sc
Substitution2: "'aalt' Access All Alternates lookup 0 subtable" exclam.sc
EndChar

StartChar: quotedbl
Encoding: 34 34 5
Width: 600
Flags: W
LayerCount: 2
Fore
SplineSet
361 456 m 1,0,-1
 341 714 l 1,1,-1
 449 714 l 1,2,-1
 429 456 l 1,3,-1
 361 456 l 1,0,-1
171 456 m 1,4,-1
 151 714 l 1,5,-1
 259 714 l 1,6,-1
 239 456 l 1,7,-1
 171 456 l 1,4,-1
EndSplineSet
EndChar

StartChar: numbersign
Encoding: 35 35 6
Width: 600
Flags: W
LayerCount: 2
Fore
SplineSet
100 0 m 1,0,-1
 136 206 l 1,1,-1
 19 206 l 1,2,-1
 19 282 l 1,3,-1
 150 282 l 1,4,-1
 179 431 l 1,5,-1
 53 431 l 1,6,-1
 53 506 l 1,7,-1
 192 506 l 1,8,-1
 230 714 l 1,9,-1
 310 714 l 1,10,-1
 272 506 l 1,11,-1
 385 506 l 1,12,-1
 423 714 l 1,13,-1
 501 714 l 1,14,-1
 463 506 l 1,15,-1
 581 506 l 1,16,-1
 581 431 l 1,17,-1
 449 431 l 1,18,-1
 422 282 l 1,19,-1
 549 282 l 1,20,-1
 549 206 l 1,21,-1
 408 206 l 1,22,-1
 369 0 l 1,23,-1
 289 0 l 1,24,-1
 328 206 l 1,25,-1
 216 206 l 1,26,-1
 179 0 l 1,27,-1
 100 0 l 1,0,-1
230 282 m 1,28,-1
 342 282 l 1,29,-1
 370 431 l 1,30,-1
 258 431 l 1,31,-1
 230 282 l 1,28,-1
EndSplineSet
EndChar

StartChar: dollar
Encoding: 36 36 7
Width: 600
Flags: W
LayerCount: 2
Fore
SplineSet
265 -58 m 1,0,-1
 265 34 l 1,1,2
 213 36 213 36 167.5 44.5 c 128,-1,3
 122 53 122 53 87 69 c 1,4,-1
 87 166 l 1,5,6
 122 149 122 149 170 135.5 c 128,-1,7
 218 122 218 122 265 120 c 1,8,-1
 265 324 l 1,9,10
 171 356 171 356 125.5 397.5 c 128,-1,11
 80 439 80 439 80 513 c 0,12,13
 80 590 80 590 130.5 635 c 128,-1,14
 181 680 181 680 265 687 c 1,15,-1
 265 759 l 1,16,-1
 329 759 l 1,17,-1
 329 688 l 1,18,19
 378 686 378 686 420 676 c 128,-1,20
 462 666 462 666 499 649 c 1,21,-1
 468 566 l 1,22,23
 436 580 436 580 400.5 589 c 128,-1,24
 365 598 365 598 329 601 c 1,25,-1
 329 401 l 1,26,27
 390 382 390 382 432.5 359.5 c 128,-1,28
 475 337 475 337 497.5 303.5 c 128,-1,29
 520 270 520 270 520 216 c 0,30,31
 520 145 520 145 470.5 97 c 128,-1,32
 421 49 421 49 329 38 c 1,33,-1
 329 -58 l 1,34,-1
 265 -58 l 1,0,-1
265 425 m 1,35,-1
 265 600 l 1,36,37
 221 596 221 596 199.5 573 c 128,-1,38
 178 550 178 550 178 514 c 0,39,40
 178 480 178 480 197.5 459.5 c 128,-1,41
 217 439 217 439 265 425 c 1,35,-1
329 125 m 1,42,43
 377 132 377 132 399.5 155 c 128,-1,44
 422 178 422 178 422 215 c 0,45,46
 422 249 422 249 402 267 c 128,-1,47
 382 285 382 285 329 301 c 1,48,-1
 329 125 l 1,42,43
EndSplineSet
EndChar

StartChar: percent
Encoding: 37 37 8
Width: 600
Flags: W
LayerCount: 2
Fore
SplineSet
142 383 m 0,0,1
 80 383 80 383 40 427.5 c 128,-1,2
 0 472 0 472 0 552 c 0,3,4
 0 634 0 634 38.5 678 c 128,-1,5
 77 722 77 722 143 722 c 0,6,7
 207 722 207 722 246.5 678 c 128,-1,8
 286 634 286 634 286 552 c 0,9,10
 286 472 286 472 247.5 427.5 c 128,-1,11
 209 383 209 383 142 383 c 0,0,1
76 0 m 1,12,-1
 435 714 l 1,13,-1
 520 714 l 1,14,-1
 162 0 l 1,15,-1
 76 0 l 1,12,-1
143 449 m 0,16,17
 204 449 204 449 204 552 c 0,18,19
 204 607 204 607 188.5 631 c 128,-1,20
 173 655 173 655 143 655 c 0,21,22
 112 655 112 655 96.5 631 c 128,-1,23
 81 607 81 607 81 552 c 0,24,25
 81 449 81 449 143 449 c 0,16,17
456 -9 m 0,26,27
 394 -9 394 -9 354 35.5 c 128,-1,28
 314 80 314 80 314 160 c 0,29,30
 314 242 314 242 352.5 286 c 128,-1,31
 391 330 391 330 457 330 c 0,32,33
 521 330 521 330 560.5 286 c 128,-1,34
 600 242 600 242 600 160 c 0,35,36
 600 80 600 80 561.5 35.5 c 128,-1,37
 523 -9 523 -9 456 -9 c 0,26,27
457 57 m 0,38,39
 518 57 518 57 518 160 c 0,40,41
 518 215 518 215 502.5 239 c 128,-1,42
 487 263 487 263 457 263 c 0,43,44
 426 263 426 263 410.5 239 c 128,-1,45
 395 215 395 215 395 160 c 0,46,47
 395 57 395 57 457 57 c 0,38,39
EndSplineSet
EndChar

StartChar: ampersand
Encoding: 38 38 9
Width: 600
Flags: W
LayerCount: 2
Fore
SplineSet
222 -10 m 0,0,1
 130 -10 130 -10 83 43.5 c 128,-1,2
 36 97 36 97 36 177 c 0,3,4
 36 248 36 248 71.5 298.5 c 128,-1,5
 107 349 107 349 163 393 c 1,6,7
 137 429 137 429 116 474 c 128,-1,8
 95 519 95 519 95 571 c 0,9,10
 95 641 95 641 136.5 682.5 c 128,-1,11
 178 724 178 724 249 724 c 0,12,13
 322 724 322 724 363 683 c 128,-1,14
 404 642 404 642 404 575 c 0,15,16
 404 514 404 514 368.5 466.5 c 128,-1,17
 333 419 333 419 284 378 c 1,18,-1
 409 220 l 1,19,20
 426 254 426 254 437.5 289.5 c 128,-1,21
 449 325 449 325 454 357 c 1,22,-1
 550 357 l 1,23,24
 541 299 541 299 521 243.5 c 128,-1,25
 501 188 501 188 471 141 c 1,26,-1
 582 0 l 1,27,-1
 460 0 l 1,28,-1
 410 67 l 1,29,30
 372 31 372 31 325 10.5 c 128,-1,31
 278 -10 278 -10 222 -10 c 0,0,1
189 572 m 0,32,33
 189 537 189 537 202.5 504.5 c 128,-1,34
 216 472 216 472 233 445 c 1,35,36
 262 469 262 469 287 501.5 c 128,-1,37
 312 534 312 534 312 576 c 0,38,39
 312 610 312 610 295.5 628.5 c 128,-1,40
 279 647 279 647 251 647 c 0,41,42
 222 647 222 647 205.5 627.5 c 128,-1,43
 189 608 189 608 189 572 c 0,32,33
135 183 m 0,44,45
 135 140 135 140 161 109.5 c 128,-1,46
 187 79 187 79 234 79 c 0,47,48
 269 79 269 79 299 95.5 c 128,-1,49
 329 112 329 112 354 139 c 1,50,-1
 216 322 l 1,51,52
 182 293 182 293 158.5 260.5 c 128,-1,53
 135 228 135 228 135 183 c 0,44,45
EndSplineSet
Substitution2: "'smcp' Lowercase to Small Capitals lookup 33 subtable" ampersand.sc
Substitution2: "'c2sc' Capitals to Small Capitals lookup 32 subtable" ampersand.sc
Substitution2: "'aalt' Access All Alternates lookup 0 subtable" ampersand.sc
EndChar

StartChar: quotesingle
Encoding: 39 39 10
Width: 600
Flags: W
LayerCount: 2
Fore
SplineSet
265 456 m 1,0,-1
 246 714 l 1,1,-1
 353 714 l 1,2,-1
 334 456 l 1,3,-1
 265 456 l 1,0,-1
EndSplineSet
EndChar

StartChar: parenleft
Encoding: 40 40 11
Width: 600
Flags: W
LayerCount: 2
Fore
SplineSet
342 -160 m 1,0,1
 268 -72 268 -72 232.5 39 c 128,-1,2
 197 150 197 150 197 273 c 0,3,4
 197 398 197 398 232.5 511 c 128,-1,5
 268 624 268 624 342 714 c 1,6,-1
 436 714 l 1,7,8
 367 620 367 620 332 507 c 128,-1,9
 297 394 297 394 297 274 c 0,10,11
 297 157 297 157 332.5 45.5 c 128,-1,12
 368 -66 368 -66 435 -160 c 1,13,-1
 342 -160 l 1,0,1
EndSplineSet
Substitution2: "'smcp' Lowercase to Small Capitals lookup 33 subtable" parenleft.sc
Substitution2: "'c2sc' Capitals to Small Capitals lookup 32 subtable" parenleft.sc
Substitution2: "'sups' Superscript lookup 21 subtable" uni207D
Substitution2: "'subs' Subscript lookup 20 subtable" uni208D
AlternateSubs2: "'aalt' Access All Alternates lookup 1 subtable" uni208D uni207D parenleft.sc
EndChar

StartChar: asterisk
Encoding: 42 42 13
Width: 600
Flags: W
LayerCount: 2
Fore
SplineSet
380 330 m 1,0,-1
 300 482 l 1,1,-1
 221 331 l 1,2,-1
 141 381 l 1,3,-1
 244 513 l 1,4,-1
 86 534 l 1,5,-1
 103 618 l 1,6,-1
 268 575 l 1,7,-1
 255 749 l 1,8,-1
 345 749 l 1,9,-1
 332 575 l 1,10,-1
 499 621 l 1,11,-1
 517 531 l 1,12,-1
 358 512 l 1,13,-1
 462 381 l 1,14,-1
 380 330 l 1,0,-1
EndSplineSet
EndChar

StartChar: plus
Encoding: 43 43 14
Width: 600
Flags: W
LayerCount: 2
Fore
SplineSet
260 120 m 1,0,-1
 260 312 l 1,1,-1
 77 312 l 1,2,-1
 77 393 l 1,3,-1
 260 393 l 1,4,-1
 260 587 l 1,5,-1
 342 587 l 1,6,-1
 342 393 l 1,7,-1
 523 393 l 1,8,-1
 523 312 l 1,9,-1
 342 312 l 1,10,-1
 342 120 l 1,11,-1
 260 120 l 1,0,-1
EndSplineSet
Substitution2: "'sups' Superscript lookup 21 subtable" uni207A
Substitution2: "'subs' Subscript lookup 20 subtable" uni208A
AlternateSubs2: "'aalt' Access All Alternates lookup 1 subtable" uni208A uni207A
EndChar

StartChar: comma
Encoding: 44 44 15
Width: 600
Flags: W
LayerCount: 2
Fore
SplineSet
206 -145 m 1,0,1
 216 -102 216 -102 226.5 -52 c 128,-1,2
 237 -2 237 -2 245.5 45.5 c 128,-1,3
 254 93 254 93 260 131 c 1,4,-1
 376 131 l 1,5,-1
 384 119 l 1,6,7
 374 82 374 82 359 36.5 c 128,-1,8
 344 -9 344 -9 326 -56.5 c 128,-1,9
 308 -104 308 -104 290 -145 c 1,10,-1
 206 -145 l 1,0,1
EndSplineSet
EndChar

StartChar: hyphen
Encoding: 45 45 16
Width: 600
Flags: W
LayerCount: 2
Fore
SplineSet
150 223 m 1,0,-1
 150 316 l 1,1,-1
 450 316 l 1,2,-1
 450 223 l 1,3,-1
 150 223 l 1,0,-1
EndSplineSet
EndChar

StartChar: period
Encoding: 46 46 17
Width: 600
Flags: W
LayerCount: 2
Fore
SplineSet
300 -10 m 0,0,1
 268 -10 268 -10 248.5 8 c 128,-1,2
 229 26 229 26 229 64 c 0,3,4
 229 103 229 103 248.5 120.5 c 128,-1,5
 268 138 268 138 300 138 c 0,6,7
 331 138 331 138 350.5 120.5 c 128,-1,8
 370 103 370 103 370 64 c 0,9,10
 370 26 370 26 350 8 c 128,-1,11
 330 -10 330 -10 300 -10 c 0,0,1
EndSplineSet
EndChar

StartChar: slash
Encoding: 47 47 18
Width: 600
Flags: W
LayerCount: 2
Fore
SplineSet
114 -1 m 1,0,-1
 388 715 l 1,1,-1
 486 715 l 1,2,-1
 212 -1 l 1,3,-1
 114 -1 l 1,0,-1
EndSplineSet
Substitution2: "'frac' Diagonal Fractions lookup 24 subtable" fraction
Substitution2: "'aalt' Access All Alternates lookup 0 subtable" fraction
EndChar

StartChar: zero
Encoding: 48 48 19
Width: 600
Flags: W
LayerCount: 2
Fore
SplineSet
300 -10 m 0,0,1
 173 -10 173 -10 115 87 c 128,-1,2
 57 184 57 184 57 359 c 256,3,4
 57 534 57 534 113.5 629 c 128,-1,5
 170 724 170 724 298 724 c 256,6,7
 426 724 426 724 484.5 628 c 128,-1,8
 543 532 543 532 543 356 c 0,9,10
 543 244 543 244 519 161.5 c 128,-1,11
 495 79 495 79 441.5 34.5 c 128,-1,12
 388 -10 388 -10 300 -10 c 0,0,1
158 356 m 0,13,14
 158 280 158 280 167 227 c 1,15,-1
 387 597 l 1,16,17
 353 633 353 633 299 633 c 0,18,19
 224 633 224 633 191 564.5 c 128,-1,20
 158 496 158 496 158 356 c 0,13,14
299 80 m 0,21,22
 375 80 375 80 409.5 148 c 128,-1,23
 444 216 444 216 444 356 c 0,24,25
 444 444 444 444 430 503 c 1,26,-1
 204 126 l 1,27,28
 238 80 238 80 299 80 c 0,21,22
EndSplineSet
Substitution2: "'zero' Slashed Zero lookup 36 subtable" zero.slash
Substitution2: "'onum' Oldstyle Figures lookup 31 subtable" zero.osf
Substitution2: "'frac' Diagonal Fractions lookup 25 subtable" zero.numr
Substitution2: "'dnom' Denominators lookup 23 subtable" zero.dnom
Substitution2: "'numr' Numerators lookup 22 subtable" zero.numr
Substitution2: "'sups' Superscript lookup 21 subtable" uni2070
Substitution2: "'subs' Subscript lookup 20 subtable" uni2080
AlternateSubs2: "'aalt' Access All Alternates lookup 1 subtable" uni2070 zero.osf zero.dnom zero.numr uni2080
EndChar

StartChar: one
Encoding: 49 49 20
Width: 600
Flags: W
LayerCount: 2
Fore
SplineSet
127 0 m 1,0,-1
 127 72 l 1,1,-1
 274 84 l 1,2,-1
 274 436 l 2,3,4
 274 477 274 477 275 522.5 c 128,-1,5
 276 568 276 568 278 602 c 1,6,7
 262 593 262 593 248.5 586.5 c 128,-1,8
 235 580 235 580 214 569 c 2,9,-1
 135 527 l 1,10,-1
 88 610 l 1,11,-1
 291 714 l 1,12,-1
 377 714 l 1,13,-1
 377 84 l 1,14,-1
 523 72 l 1,15,-1
 523 0 l 1,16,-1
 127 0 l 1,0,-1
EndSplineSet
Substitution2: "'onum' Oldstyle Figures lookup 31 subtable" one.osf
Substitution2: "'frac' Diagonal Fractions lookup 25 subtable" one.numr
Substitution2: "'dnom' Denominators lookup 23 subtable" one.dnom
Substitution2: "'numr' Numerators lookup 22 subtable" one.numr
Substitution2: "'sups' Superscript lookup 21 subtable" uni00B9
Substitution2: "'subs' Subscript lookup 20 subtable" uni2081
AlternateSubs2: "'aalt' Access All Alternates lookup 1 subtable" uni00B9 one.osf one.dnom one.numr uni2081
EndChar

StartChar: two
Encoding: 50 50 21
Width: 600
Flags: W
LayerCount: 2
Fore
SplineSet
66 0 m 1,0,-1
 66 85 l 1,1,-1
 251 268 l 2,2,3
 322 338 322 338 365 396 c 128,-1,4
 408 454 408 454 408 519 c 0,5,6
 408 577 408 577 375.5 604 c 128,-1,7
 343 631 343 631 293 631 c 0,8,9
 248 631 248 631 208 612.5 c 128,-1,10
 168 594 168 594 130 562 c 1,11,-1
 71 635 l 1,12,13
 117 675 117 675 171 699.5 c 128,-1,14
 225 724 225 724 299 724 c 0,15,16
 399 724 399 724 457.5 671.5 c 128,-1,17
 516 619 516 619 516 527 c 0,18,19
 516 442 516 442 467.5 372 c 128,-1,20
 419 302 419 302 341 228 c 2,21,-1
 206 99 l 1,22,-1
 206 93 l 1,23,-1
 548 93 l 1,24,-1
 548 0 l 1,25,-1
 66 0 l 1,0,-1
EndSplineSet
Substitution2: "'onum' Oldstyle Figures lookup 31 subtable" two.osf
Substitution2: "'frac' Diagonal Fractions lookup 25 subtable" two.numr
Substitution2: "'dnom' Denominators lookup 23 subtable" two.dnom
Substitution2: "'numr' Numerators lookup 22 subtable" two.numr
Substitution2: "'sups' Superscript lookup 21 subtable" uni00B2
Substitution2: "'subs' Subscript lookup 20 subtable" uni2082
AlternateSubs2: "'aalt' Access All Alternates lookup 1 subtable" uni00B2 two.osf two.dnom two.numr uni2082
EndChar

StartChar: three
Encoding: 51 51 22
Width: 600
Flags: W
LayerCount: 2
Fore
SplineSet
265 -10 m 0,0,1
 219 -10 219 -10 168.5 -1.5 c 128,-1,2
 118 7 118 7 73 29 c 1,3,-1
 73 127 l 1,4,5
 116 105 116 105 168 93.5 c 128,-1,6
 220 82 220 82 266 82 c 0,7,8
 346 82 346 82 383 115.5 c 128,-1,9
 420 149 420 149 420 207 c 0,10,11
 420 270 420 270 376 296.5 c 128,-1,12
 332 323 332 323 246 323 c 2,13,-1
 178 323 l 1,14,-1
 178 414 l 1,15,-1
 246 414 l 2,16,17
 323 414 323 414 362 446.5 c 128,-1,18
 401 479 401 479 401 534 c 0,19,20
 401 579 401 579 373.5 605.5 c 128,-1,21
 346 632 346 632 288 632 c 0,22,23
 243 632 243 632 202 616 c 128,-1,24
 161 600 161 600 126 578 c 1,25,-1
 75 652 l 1,26,27
 116 683 116 683 172 703.5 c 128,-1,28
 228 724 228 724 295 724 c 0,29,30
 393 724 393 724 449.5 677 c 128,-1,31
 506 630 506 630 506 549 c 0,32,33
 506 480 506 480 466.5 434.5 c 128,-1,34
 427 389 427 389 360 376 c 1,35,-1
 360 373 l 1,36,37
 528 350 528 350 528 201 c 0,38,39
 528 104 528 104 460.5 47 c 128,-1,40
 393 -10 393 -10 265 -10 c 0,0,1
EndSplineSet
Substitution2: "'onum' Oldstyle Figures lookup 31 subtable" three.osf
Substitution2: "'frac' Diagonal Fractions lookup 25 subtable" three.numr
Substitution2: "'dnom' Denominators lookup 23 subtable" three.dnom
Substitution2: "'numr' Numerators lookup 22 subtable" three.numr
Substitution2: "'sups' Superscript lookup 21 subtable" uni00B3
Substitution2: "'subs' Subscript lookup 20 subtable" uni2083
AlternateSubs2: "'aalt' Access All Alternates lookup 1 subtable" uni00B3 three.osf three.dnom three.numr uni2083
EndChar

StartChar: four
Encoding: 52 52 23
Width: 600
Flags: W
LayerCount: 2
Fore
SplineSet
351 0 m 1,0,-1
 351 156 l 1,1,-1
 47 156 l 1,2,-1
 47 240 l 1,3,-1
 341 717 l 1,4,-1
 452 717 l 1,5,-1
 452 245 l 1,6,-1
 553 245 l 1,7,-1
 553 156 l 1,8,-1
 452 156 l 1,9,-1
 452 0 l 1,10,-1
 351 0 l 1,0,-1
148 245 m 1,11,-1
 351 245 l 1,12,-1
 351 406 l 2,13,14
 351 436 351 436 352 475 c 128,-1,15
 353 514 353 514 354.5 548 c 128,-1,16
 356 582 356 582 357 600 c 1,17,-1
 353 600 l 1,18,19
 346 580 346 580 333 556.5 c 128,-1,20
 320 533 320 533 310 515 c 2,21,-1
 148 245 l 1,11,-1
EndSplineSet
Substitution2: "'onum' Oldstyle Figures lookup 31 subtable" four.osf
Substitution2: "'frac' Diagonal Fractions lookup 25 subtable" four.numr
Substitution2: "'dnom' Denominators lookup 23 subtable" four.dnom
Substitution2: "'numr' Numerators lookup 22 subtable" four.numr
Substitution2: "'sups' Superscript lookup 21 subtable" uni2074
Substitution2: "'subs' Subscript lookup 20 subtable" uni2084
AlternateSubs2: "'aalt' Access All Alternates lookup 1 subtable" uni2074 four.osf four.dnom four.numr uni2084
EndChar

StartChar: five
Encoding: 53 53 24
Width: 600
Flags: W
LayerCount: 2
Fore
SplineSet
256 -10 m 0,0,1
 210 -10 210 -10 162 0 c 128,-1,2
 114 10 114 10 79 29 c 1,3,-1
 79 127 l 1,4,5
 116 105 116 105 160.5 94 c 128,-1,6
 205 83 205 83 251 83 c 0,7,8
 328 83 328 83 369.5 115.5 c 128,-1,9
 411 148 411 148 411 216 c 0,10,11
 411 288 411 288 367.5 322.5 c 128,-1,12
 324 357 324 357 255 357 c 0,13,14
 226 357 226 357 195.5 352.5 c 128,-1,15
 165 348 165 348 142 341 c 1,16,-1
 93 370 l 1,17,-1
 120 714 l 1,18,-1
 480 714 l 1,19,-1
 480 621 l 1,20,-1
 213 621 l 1,21,-1
 196 433 l 1,22,23
 218 438 218 438 245 440.5 c 128,-1,24
 272 443 272 443 293 443 c 0,25,26
 356 443 356 443 408 418.5 c 128,-1,27
 460 394 460 394 490.5 345 c 128,-1,28
 521 296 521 296 521 224 c 0,29,30
 521 114 521 114 449.5 52 c 128,-1,31
 378 -10 378 -10 256 -10 c 0,0,1
EndSplineSet
Substitution2: "'onum' Oldstyle Figures lookup 31 subtable" five.osf
Substitution2: "'frac' Diagonal Fractions lookup 25 subtable" five.numr
Substitution2: "'dnom' Denominators lookup 23 subtable" five.dnom
Substitution2: "'numr' Numerators lookup 22 subtable" five.numr
Substitution2: "'sups' Superscript lookup 21 subtable" uni2075
Substitution2: "'subs' Subscript lookup 20 subtable" uni2085
AlternateSubs2: "'aalt' Access All Alternates lookup 1 subtable" uni2075 five.osf five.dnom five.numr uni2085
EndChar

StartChar: six
Encoding: 54 54 25
Width: 600
Flags: W
LayerCount: 2
Fore
SplineSet
308 -10 m 0,0,1
 194 -10 194 -10 126.5 70.5 c 128,-1,2
 59 151 59 151 59 313 c 0,3,4
 59 396 59 396 75 470 c 128,-1,5
 91 544 91 544 129 601 c 128,-1,6
 167 658 167 658 233 690.5 c 128,-1,7
 299 723 299 723 398 723 c 0,8,9
 418 723 418 723 443 721.5 c 128,-1,10
 468 720 468 720 485 715 c 1,11,-1
 485 624 l 1,12,13
 446 635 446 635 398 635 c 0,14,15
 310 635 310 635 260 600.5 c 128,-1,16
 210 566 210 566 188 506 c 128,-1,17
 166 446 166 446 162 369 c 1,18,-1
 168 369 l 1,19,20
 189 407 189 407 229.5 431.5 c 128,-1,21
 270 456 270 456 331 456 c 0,22,23
 429 456 429 456 485 396.5 c 128,-1,24
 541 337 541 337 541 232 c 0,25,26
 541 120 541 120 478.5 55 c 128,-1,27
 416 -10 416 -10 308 -10 c 0,0,1
307 80 m 0,28,29
 366 80 366 80 402 116 c 128,-1,30
 438 152 438 152 438 232 c 0,31,32
 438 300 438 300 406 336 c 128,-1,33
 374 372 374 372 310 372 c 0,34,35
 268 372 268 372 235.5 353.5 c 128,-1,36
 203 335 203 335 184.5 305.5 c 128,-1,37
 166 276 166 276 166 242 c 0,38,39
 166 202 166 202 182 164.5 c 128,-1,40
 198 127 198 127 229 103.5 c 128,-1,41
 260 80 260 80 307 80 c 0,28,29
EndSplineSet
Substitution2: "'onum' Oldstyle Figures lookup 31 subtable" six.osf
Substitution2: "'frac' Diagonal Fractions lookup 25 subtable" six.numr
Substitution2: "'dnom' Denominators lookup 23 subtable" six.dnom
Substitution2: "'numr' Numerators lookup 22 subtable" six.numr
Substitution2: "'sups' Superscript lookup 21 subtable" uni2076
Substitution2: "'subs' Subscript lookup 20 subtable" uni2086
AlternateSubs2: "'aalt' Access All Alternates lookup 1 subtable" uni2076 six.osf six.dnom six.numr uni2086
EndChar

StartChar: seven
Encoding: 55 55 26
Width: 600
Flags: W
LayerCount: 2
Fore
SplineSet
159 0 m 1,0,-1
 432 621 l 1,1,-1
 57 621 l 1,2,-1
 57 714 l 1,3,-1
 543 714 l 1,4,-1
 543 636 l 1,5,-1
 272 0 l 1,6,-1
 159 0 l 1,0,-1
EndSplineSet
Substitution2: "'onum' Oldstyle Figures lookup 31 subtable" seven.osf
Substitution2: "'frac' Diagonal Fractions lookup 25 subtable" seven.numr
Substitution2: "'dnom' Denominators lookup 23 subtable" seven.dnom
Substitution2: "'numr' Numerators lookup 22 subtable" seven.numr
Substitution2: "'sups' Superscript lookup 21 subtable" uni2077
Substitution2: "'subs' Subscript lookup 20 subtable" uni2087
AlternateSubs2: "'aalt' Access All Alternates lookup 1 subtable" uni2077 seven.osf seven.dnom seven.numr uni2087
EndChar

StartChar: eight
Encoding: 56 56 27
Width: 600
Flags: W
LayerCount: 2
Fore
SplineSet
296 -10 m 0,0,1
 192 -10 192 -10 128.5 39 c 128,-1,2
 65 88 65 88 65 180 c 0,3,4
 65 251 65 251 104.5 297 c 128,-1,5
 144 343 144 343 206 374 c 1,6,7
 155 406 155 406 121.5 449 c 128,-1,8
 88 492 88 492 88 553 c 0,9,10
 88 609 88 609 117.5 647 c 128,-1,11
 147 685 147 685 195.5 704.5 c 128,-1,12
 244 724 244 724 301 724 c 256,13,14
 358 724 358 724 405.5 705 c 128,-1,15
 453 686 453 686 482 648 c 128,-1,16
 511 610 511 610 511 553 c 0,17,18
 511 491 511 491 475.5 448.5 c 128,-1,19
 440 406 440 406 381 378 c 1,20,21
 450 341 450 341 492 295 c 128,-1,22
 534 249 534 249 534 181 c 0,23,24
 534 123 534 123 504 80.5 c 128,-1,25
 474 38 474 38 420.5 14 c 128,-1,26
 367 -10 367 -10 296 -10 c 0,0,1
301 422 m 1,27,28
 349 444 349 444 378.5 472.5 c 128,-1,29
 408 501 408 501 408 546 c 0,30,31
 408 590 408 590 378 613 c 128,-1,32
 348 636 348 636 299 636 c 256,33,34
 250 636 250 636 220.5 613 c 128,-1,35
 191 590 191 590 191 546 c 0,36,37
 191 513 191 513 206.5 490.5 c 128,-1,38
 222 468 222 468 247 452 c 128,-1,39
 272 436 272 436 301 422 c 1,27,28
298 76 m 0,40,41
 363 76 363 76 397 107 c 128,-1,42
 431 138 431 138 431 186 c 0,43,44
 431 233 431 233 396 264.5 c 128,-1,45
 361 296 361 296 289 331 c 1,46,47
 232 306 232 306 200.5 270 c 128,-1,48
 169 234 169 234 169 183 c 0,49,50
 169 136 169 136 200.5 106 c 128,-1,51
 232 76 232 76 298 76 c 0,40,41
EndSplineSet
Substitution2: "'onum' Oldstyle Figures lookup 31 subtable" eight.osf
Substitution2: "'frac' Diagonal Fractions lookup 25 subtable" eight.numr
Substitution2: "'dnom' Denominators lookup 23 subtable" eight.dnom
Substitution2: "'numr' Numerators lookup 22 subtable" eight.numr
Substitution2: "'sups' Superscript lookup 21 subtable" uni2078
Substitution2: "'subs' Subscript lookup 20 subtable" uni2088
AlternateSubs2: "'aalt' Access All Alternates lookup 1 subtable" uni2078 eight.osf eight.dnom eight.numr uni2088
EndChar

StartChar: nine
Encoding: 57 57 28
Width: 600
Flags: W
LayerCount: 2
Fore
SplineSet
208 -10 m 0,0,1
 186 -10 186 -10 162 -8 c 128,-1,2
 138 -6 138 -6 121 -2 c 1,3,-1
 121 90 l 1,4,5
 158 78 158 78 207 78 c 0,6,7
 292 78 292 78 341 113 c 128,-1,8
 390 148 390 148 412 208.5 c 128,-1,9
 434 269 434 269 437 344 c 1,10,-1
 431 344 l 1,11,12
 410 306 410 306 369.5 282 c 128,-1,13
 329 258 329 258 269 258 c 0,14,15
 171 258 171 258 115 317.5 c 128,-1,16
 59 377 59 377 59 484 c 0,17,18
 59 595 59 595 121.5 659.5 c 128,-1,19
 184 724 184 724 293 724 c 0,20,21
 368 724 368 724 423.5 688.5 c 128,-1,22
 479 653 479 653 510 579.5 c 128,-1,23
 541 506 541 506 541 392 c 0,24,25
 541 315 541 315 525 243 c 128,-1,26
 509 171 509 171 472 114 c 128,-1,27
 435 57 435 57 370.5 23.5 c 128,-1,28
 306 -10 306 -10 208 -10 c 0,0,1
288 342 m 0,29,30
 350 342 350 342 392 379.5 c 128,-1,31
 434 417 434 417 434 478 c 0,32,33
 434 512 434 512 419 548.5 c 128,-1,34
 404 585 404 585 372.5 609.5 c 128,-1,35
 341 634 341 634 293 634 c 0,36,37
 232 634 232 634 197 596.5 c 128,-1,38
 162 559 162 559 162 484 c 0,39,40
 162 411 162 411 195 376.5 c 128,-1,41
 228 342 228 342 288 342 c 0,29,30
EndSplineSet
Substitution2: "'onum' Oldstyle Figures lookup 31 subtable" nine.osf
Substitution2: "'frac' Diagonal Fractions lookup 25 subtable" nine.numr
Substitution2: "'dnom' Denominators lookup 23 subtable" nine.dnom
Substitution2: "'numr' Numerators lookup 22 subtable" nine.numr
Substitution2: "'sups' Superscript lookup 21 subtable" uni2079
Substitution2: "'subs' Subscript lookup 20 subtable" uni2089
AlternateSubs2: "'aalt' Access All Alternates lookup 1 subtable" uni2079 nine.osf nine.dnom nine.numr uni2089
EndChar

StartChar: colon
Encoding: 58 58 29
Width: 600
Flags: W
LayerCount: 2
Fore
SplineSet
301 401 m 0,0,1
 270 401 270 401 250 419.5 c 128,-1,2
 230 438 230 438 230 475 c 0,3,4
 230 514 230 514 250 531.5 c 128,-1,5
 270 549 270 549 301 549 c 0,6,7
 331 549 331 549 350.5 531.5 c 128,-1,8
 370 514 370 514 370 475 c 0,9,10
 370 438 370 438 350.5 419.5 c 128,-1,11
 331 401 331 401 301 401 c 0,0,1
300 -10 m 0,12,13
 268 -10 268 -10 248.5 8 c 128,-1,14
 229 26 229 26 229 64 c 0,15,16
 229 103 229 103 248.5 120.5 c 128,-1,17
 268 138 268 138 300 138 c 0,18,19
 331 138 331 138 350.5 120.5 c 128,-1,20
 370 103 370 103 370 64 c 0,21,22
 370 26 370 26 350 8 c 128,-1,23
 330 -10 330 -10 300 -10 c 0,12,13
EndSplineSet
EndChar

StartChar: semicolon
Encoding: 59 59 30
Width: 600
Flags: W
LayerCount: 2
Fore
SplineSet
323 401 m 0,0,1
 292 401 292 401 272 419.5 c 128,-1,2
 252 438 252 438 252 475 c 0,3,4
 252 514 252 514 272 531.5 c 128,-1,5
 292 549 292 549 323 549 c 0,6,7
 353 549 353 549 373 531.5 c 128,-1,8
 393 514 393 514 393 475 c 0,9,10
 393 438 393 438 373 419.5 c 128,-1,11
 353 401 353 401 323 401 c 0,0,1
206 -145 m 1,12,13
 216 -102 216 -102 226.5 -52 c 128,-1,14
 237 -2 237 -2 245.5 45.5 c 128,-1,15
 254 93 254 93 260 131 c 1,16,-1
 376 131 l 1,17,-1
 384 119 l 1,18,19
 374 82 374 82 359 36.5 c 128,-1,20
 344 -9 344 -9 326 -56.5 c 128,-1,21
 308 -104 308 -104 290 -145 c 1,22,-1
 206 -145 l 1,12,13
EndSplineSet
EndChar

StartChar: equal
Encoding: 61 61 32
Width: 600
Flags: W
LayerCount: 2
Fore
SplineSet
70 401 m 1,0,-1
 70 493 l 1,1,-1
 530 493 l 1,2,-1
 530 401 l 1,3,-1
 70 401 l 1,0,-1
70 205 m 1,4,-1
 70 297 l 1,5,-1
 530 297 l 1,6,-1
 530 205 l 1,7,-1
 70 205 l 1,4,-1
EndSplineSet
Substitution2: "'sups' Superscript lookup 21 subtable" uni207C
Substitution2: "'subs' Subscript lookup 20 subtable" uni208C
AlternateSubs2: "'aalt' Access All Alternates lookup 1 subtable" uni208C uni207C
EndChar

StartChar: greater
Encoding: 62 62 33
Width: 600
Flags: W
LayerCount: 2
Fore
SplineSet
89 114 m 1,0,-1
 89 204 l 1,1,-1
 400 352 l 1,2,-1
 89 519 l 1,3,-1
 89 609 l 1,4,-1
 511 378 l 1,5,-1
 511 322 l 1,6,-1
 89 114 l 1,0,-1
EndSplineSet
EndChar

StartChar: question
Encoding: 63 63 34
Width: 600
Flags: W
LayerCount: 2
Fore
SplineSet
223 212 m 1,0,-1
 223 236 l 2,1,2
 223 291 223 291 245 327 c 128,-1,3
 267 363 267 363 322 403 c 0,4,5
 369 436 369 436 390 465 c 128,-1,6
 411 494 411 494 411 543 c 0,7,8
 411 584 411 584 381.5 609 c 128,-1,9
 352 634 352 634 297 634 c 0,10,11
 250 634 250 634 209 621 c 128,-1,12
 168 608 168 608 125 588 c 1,13,-1
 87 673 l 1,14,15
 133 695 133 695 182.5 709.5 c 128,-1,16
 232 724 232 724 297 724 c 0,17,18
 394 724 394 724 453.5 677 c 128,-1,19
 513 630 513 630 513 548 c 0,20,21
 513 502 513 502 501 469.5 c 128,-1,22
 489 437 489 437 464.5 410.5 c 128,-1,23
 440 384 440 384 401 355 c 0,24,25
 366 329 366 329 347.5 310.5 c 128,-1,26
 329 292 329 292 322.5 273 c 128,-1,27
 316 254 316 254 316 227 c 2,28,-1
 316 212 l 1,29,-1
 223 212 l 1,0,-1
273 -10 m 0,30,31
 242 -10 242 -10 222 8 c 128,-1,32
 202 26 202 26 202 64 c 0,33,34
 202 103 202 103 222 120.5 c 128,-1,35
 242 138 242 138 273 138 c 256,36,37
 304 138 304 138 323.5 120.5 c 128,-1,38
 343 103 343 103 343 64 c 0,39,40
 343 26 343 26 323 8 c 128,-1,41
 303 -10 303 -10 273 -10 c 0,30,31
EndSplineSet
Substitution2: "'smcp' Lowercase to Small Capitals lookup 33 subtable" question.sc
Substitution2: "'c2sc' Capitals to Small Capitals lookup 32 subtable" question.sc
Substitution2: "'aalt' Access All Alternates lookup 0 subtable" question.sc
EndChar

StartChar: at
Encoding: 64 64 35
Width: 600
Flags: W
LayerCount: 2
Fore
SplineSet
323 -89 m 0,0,1
 222 -89 222 -89 152.5 -42.5 c 128,-1,2
 83 4 83 4 47 89 c 128,-1,3
 11 174 11 174 11 290 c 0,4,5
 11 412 11 412 47 508 c 128,-1,6
 83 604 83 604 152 659 c 128,-1,7
 221 714 221 714 321 714 c 0,8,9
 402 714 402 714 462 670.5 c 128,-1,10
 522 627 522 627 555.5 547.5 c 128,-1,11
 589 468 589 468 589 359 c 0,12,13
 589 296 589 296 576 238.5 c 128,-1,14
 563 181 563 181 535.5 144.5 c 128,-1,15
 508 108 508 108 463 108 c 0,16,17
 430 108 430 108 410.5 132 c 128,-1,18
 391 156 391 156 385 187 c 1,19,-1
 383 187 l 1,20,21
 369 154 369 154 342.5 131 c 128,-1,22
 316 108 316 108 276 108 c 0,23,24
 216 108 216 108 183 160 c 128,-1,25
 150 212 150 212 150 297 c 0,26,27
 150 362 150 362 170.5 412.5 c 128,-1,28
 191 463 191 463 229.5 491.5 c 128,-1,29
 268 520 268 520 320 520 c 0,30,31
 355 520 355 520 389.5 512 c 128,-1,32
 424 504 424 504 446 496 c 1,33,-1
 435 295 l 2,34,35
 434 287 434 287 434 277 c 128,-1,36
 434 267 434 267 434 259 c 0,37,38
 434 211 434 211 443.5 195 c 128,-1,39
 453 179 453 179 466 179 c 0,40,41
 482 179 482 179 493 203.5 c 128,-1,42
 504 228 504 228 509 269 c 128,-1,43
 514 310 514 310 514 359 c 0,44,45
 514 497 514 497 460 570 c 128,-1,46
 406 643 406 643 320 643 c 0,47,48
 245 643 245 643 193 599 c 128,-1,49
 141 555 141 555 114.5 476.5 c 128,-1,50
 88 398 88 398 88 295 c 0,51,52
 88 149 88 149 148 66 c 128,-1,53
 208 -17 208 -17 323 -17 c 0,54,55
 372 -17 372 -17 416 -6 c 128,-1,56
 460 5 460 5 496 22 c 1,57,-1
 496 -49 l 1,58,59
 460 -67 460 -67 418 -78 c 128,-1,60
 376 -89 376 -89 323 -89 c 0,0,1
289 179 m 0,61,62
 323 179 323 179 337 219.5 c 128,-1,63
 351 260 351 260 354 324 c 2,64,-1
 361 441 l 1,65,66
 353 444 353 444 341.5 446.5 c 128,-1,67
 330 449 330 449 318 449 c 0,68,69
 286 449 286 449 267.5 426.5 c 128,-1,70
 249 404 249 404 241 369 c 128,-1,71
 233 334 233 334 233 295 c 0,72,73
 233 234 233 234 248.5 206.5 c 128,-1,74
 264 179 264 179 289 179 c 0,61,62
EndSplineSet
EndChar

StartChar: A
Encoding: 65 65 36
Width: 600
GlyphClass: 2
Flags: W
AnchorPoint: "Anchor-4" 580 714 basechar 0
AnchorPoint: "Anchor-3" 300 714 basechar 0
AnchorPoint: "Anchor-2" 540 10 basechar 0
AnchorPoint: "Anchor-0" 300 0 basechar 0
LayerCount: 2
Fore
SplineSet
17 0 m 1,0,-1
 239 717 l 1,1,-1
 360 717 l 1,2,-1
 583 0 l 1,3,-1
 475 0 l 1,4,-1
 415 207 l 1,5,-1
 184 207 l 1,6,-1
 123 0 l 1,7,-1
 17 0 l 1,0,-1
270 500 m 2,8,-1
 211 298 l 1,9,-1
 389 298 l 1,10,-1
 330 500 l 2,11,12
 323 522 323 522 314.5 554 c 128,-1,13
 306 586 306 586 299 618 c 1,14,15
 293 586 293 586 284.5 554 c 128,-1,16
 276 522 276 522 270 500 c 2,8,-1
EndSplineSet
Substitution2: "'c2sc' Capitals to Small Capitals lookup 32 subtable" a.sc
Substitution2: "Single Substitution lookup 30 subtable" ordfeminine
AlternateSubs2: "'aalt' Access All Alternates lookup 1 subtable" ordfeminine a.sc
EndChar

StartChar: B
Encoding: 66 66 37
Width: 600
GlyphClass: 2
Flags: W
AnchorPoint: "Anchor-4" 580 714 basechar 0
AnchorPoint: "Anchor-3" 300 714 basechar 0
AnchorPoint: "Anchor-0" 300 0 basechar 0
LayerCount: 2
Fore
SplineSet
91 0 m 1,0,-1
 91 714 l 1,1,-1
 292 714 l 2,2,3
 404 714 404 714 467.5 674 c 128,-1,4
 531 634 531 634 531 539 c 0,5,6
 531 471 531 471 498.5 430 c 128,-1,7
 466 389 466 389 409 379 c 1,8,-1
 409 374 l 1,9,10
 448 366 448 366 480 347.5 c 128,-1,11
 512 329 512 329 530.5 295.5 c 128,-1,12
 549 262 549 262 549 208 c 0,13,14
 549 110 549 110 488 55 c 128,-1,15
 427 0 427 0 320 0 c 2,16,-1
 91 0 l 1,0,-1
190 418 m 1,17,-1
 297 418 l 2,18,19
 365 418 365 418 394 444 c 128,-1,20
 423 470 423 470 423 523 c 0,21,22
 423 577 423 577 392 600.5 c 128,-1,23
 361 624 361 624 285 624 c 2,24,-1
 190 624 l 1,25,-1
 190 418 l 1,17,-1
190 90 m 1,26,-1
 305 90 l 2,27,28
 381 90 381 90 410.5 123 c 128,-1,29
 440 156 440 156 440 210 c 256,30,31
 440 264 440 264 409 295.5 c 128,-1,32
 378 327 378 327 299 327 c 2,33,-1
 190 327 l 1,34,-1
 190 90 l 1,26,-1
EndSplineSet
Substitution2: "'c2sc' Capitals to Small Capitals lookup 32 subtable" b.sc
Substitution2: "'aalt' Access All Alternates lookup 0 subtable" b.sc
EndChar

StartChar: C
Encoding: 67 67 38
Width: 600
GlyphClass: 2
Flags: W
AnchorPoint: "Anchor-4" 580 714 basechar 0
AnchorPoint: "Anchor-3" 358 714 basechar 0
AnchorPoint: "Anchor-0" 347 0 basechar 0
LayerCount: 2
Fore
SplineSet
361 -10 m 0,0,1
 256 -10 256 -10 190 36 c 128,-1,2
 124 82 124 82 92.5 163.5 c 128,-1,3
 61 245 61 245 61 353 c 0,4,5
 61 468 61 468 97.5 551 c 128,-1,6
 134 634 134 634 204 679 c 128,-1,7
 274 724 274 724 375 724 c 0,8,9
 427 724 427 724 470.5 713 c 128,-1,10
 514 702 514 702 553 682 c 1,11,-1
 515 596 l 1,12,13
 482 613 482 613 445 621.5 c 128,-1,14
 408 630 408 630 373 630 c 0,15,16
 270 630 270 630 220 557.5 c 128,-1,17
 170 485 170 485 170 354 c 0,18,19
 170 226 170 226 216.5 156 c 128,-1,20
 263 86 263 86 369 86 c 0,21,22
 404 86 404 86 442.5 93.5 c 128,-1,23
 481 101 481 101 523 120 c 1,24,-1
 523 21 l 1,25,26
 442 -10 442 -10 361 -10 c 0,0,1
EndSplineSet
Substitution2: "'c2sc' Capitals to Small Capitals lookup 32 subtable" c.sc
Substitution2: "'aalt' Access All Alternates lookup 0 subtable" c.sc
EndChar

StartChar: D
Encoding: 68 68 39
Width: 600
GlyphClass: 2
Flags: W
AnchorPoint: "Anchor-4" 600 714 basechar 0
AnchorPoint: "Anchor-3" 279 714 basechar 0
AnchorPoint: "Anchor-1" 301 357 basechar 0
AnchorPoint: "Anchor-0" 261 0 basechar 0
LayerCount: 2
Fore
SplineSet
63 0 m 1,0,-1
 63 714 l 1,1,-1
 250 714 l 2,2,3
 344 714 344 714 413.5 674.5 c 128,-1,4
 483 635 483 635 521 557 c 128,-1,5
 559 479 559 479 559 364 c 0,6,7
 559 185 559 185 472.5 92.5 c 128,-1,8
 386 0 386 0 232 0 c 2,9,-1
 63 0 l 1,0,-1
168 91 m 1,10,-1
 224 91 l 2,11,12
 340 91 340 91 395.5 159.5 c 128,-1,13
 451 228 451 228 451 361 c 0,14,15
 451 497 451 497 396 560 c 128,-1,16
 341 623 341 623 241 623 c 2,17,-1
 168 623 l 1,18,-1
 168 91 l 1,10,-1
EndSplineSet
Substitution2: "'c2sc' Capitals to Small Capitals lookup 32 subtable" d.sc
Substitution2: "'aalt' Access All Alternates lookup 0 subtable" d.sc
EndChar

StartChar: E
Encoding: 69 69 40
Width: 600
GlyphClass: 2
Flags: W
AnchorPoint: "Anchor-4" 580 714 basechar 0
AnchorPoint: "Anchor-3" 306 714 basechar 0
AnchorPoint: "Anchor-2" 458 10 basechar 0
AnchorPoint: "Anchor-0" 304 0 basechar 0
LayerCount: 2
Fore
SplineSet
91 0 m 1,0,-1
 91 714 l 1,1,-1
 519 714 l 1,2,-1
 519 621 l 1,3,-1
 195 621 l 1,4,-1
 195 419 l 1,5,-1
 502 419 l 1,6,-1
 502 326 l 1,7,-1
 195 326 l 1,8,-1
 195 93 l 1,9,-1
 519 93 l 1,10,-1
 519 0 l 1,11,-1
 91 0 l 1,0,-1
EndSplineSet
Substitution2: "'c2sc' Capitals to Small Capitals lookup 32 subtable" e.sc
Substitution2: "'aalt' Access All Alternates lookup 0 subtable" e.sc
EndChar

StartChar: F
Encoding: 70 70 41
Width: 600
GlyphClass: 2
Flags: W
AnchorPoint: "Anchor-4" 580 714 basechar 0
AnchorPoint: "Anchor-3" 315 714 basechar 0
AnchorPoint: "Anchor-0" 315 0 basechar 0
LayerCount: 2
Fore
SplineSet
91 0 m 1,0,-1
 91 714 l 1,1,-1
 519 714 l 1,2,-1
 519 621 l 1,3,-1
 195 621 l 1,4,-1
 195 388 l 1,5,-1
 502 388 l 1,6,-1
 502 295 l 1,7,-1
 195 295 l 1,8,-1
 195 0 l 1,9,-1
 91 0 l 1,0,-1
EndSplineSet
Substitution2: "'c2sc' Capitals to Small Capitals lookup 32 subtable" f.sc
Substitution2: "'aalt' Access All Alternates lookup 0 subtable" f.sc
EndChar

StartChar: G
Encoding: 71 71 42
Width: 600
GlyphClass: 2
Flags: W
AnchorPoint: "Anchor-4" 580 714 basechar 0
AnchorPoint: "Anchor-3" 323 714 basechar 0
AnchorPoint: "Anchor-0" 336 0 basechar 0
LayerCount: 2
Fore
SplineSet
341 -10 m 0,0,1
 191 -10 191 -10 116 82.5 c 128,-1,2
 41 175 41 175 41 347 c 0,3,4
 41 526 41 526 120.5 625 c 128,-1,5
 200 724 200 724 352 724 c 0,6,7
 404 724 404 724 448 712.5 c 128,-1,8
 492 701 492 701 530 681 c 1,9,-1
 494 594 l 1,10,11
 467 610 467 610 432.5 620 c 128,-1,12
 398 630 398 630 358 630 c 0,13,14
 253 630 253 630 200.5 557 c 128,-1,15
 148 484 148 484 148 351 c 0,16,17
 148 273 148 273 167 212.5 c 128,-1,18
 186 152 186 152 229.5 117.5 c 128,-1,19
 273 83 273 83 345 83 c 0,20,21
 374 83 374 83 396 87.5 c 128,-1,22
 418 92 418 92 437 96 c 1,23,-1
 437 293 l 1,24,-1
 317 293 l 1,25,-1
 317 384 l 1,26,-1
 537 384 l 1,27,-1
 537 28 l 1,28,29
 496 11 496 11 447 0.5 c 128,-1,30
 398 -10 398 -10 341 -10 c 0,0,1
EndSplineSet
Substitution2: "'c2sc' Capitals to Small Capitals lookup 32 subtable" g.sc
Substitution2: "'aalt' Access All Alternates lookup 0 subtable" g.sc
EndChar

StartChar: H
Encoding: 72 72 43
Width: 600
GlyphClass: 2
Flags: W
AnchorPoint: "Anchor-4" 600 714 basechar 0
AnchorPoint: "Anchor-3" 300 714 basechar 0
AnchorPoint: "Anchor-1" 300 375 basechar 0
AnchorPoint: "Anchor-0" 300 0 basechar 0
LayerCount: 2
Fore
SplineSet
63 0 m 1,0,-1
 63 714 l 1,1,-1
 169 714 l 1,2,-1
 169 419 l 1,3,-1
 431 419 l 1,4,-1
 431 714 l 1,5,-1
 537 714 l 1,6,-1
 537 0 l 1,7,-1
 431 0 l 1,8,-1
 431 326 l 1,9,-1
 169 326 l 1,10,-1
 169 0 l 1,11,-1
 63 0 l 1,0,-1
EndSplineSet
Substitution2: "'c2sc' Capitals to Small Capitals lookup 32 subtable" h.sc
Substitution2: "'aalt' Access All Alternates lookup 0 subtable" h.sc
EndChar

StartChar: I
Encoding: 73 73 44
Width: 600
GlyphClass: 2
Flags: W
AnchorPoint: "Anchor-4" 580 714 basechar 0
AnchorPoint: "Anchor-3" 300 714 basechar 0
AnchorPoint: "Anchor-2" 373 10 basechar 0
AnchorPoint: "Anchor-0" 300 0 basechar 0
LayerCount: 2
Fore
SplineSet
104 0 m 1,0,-1
 104 73 l 1,1,-1
 247 87 l 1,2,-1
 247 627 l 1,3,-1
 104 641 l 1,4,-1
 104 714 l 1,5,-1
 496 714 l 1,6,-1
 496 641 l 1,7,-1
 351 627 l 1,8,-1
 351 87 l 1,9,-1
 496 73 l 1,10,-1
 496 0 l 1,11,-1
 104 0 l 1,0,-1
EndSplineSet
Substitution2: "'c2sc' Capitals to Small Capitals lookup 32 subtable" i.sc
Substitution2: "'aalt' Access All Alternates lookup 0 subtable" i.sc
EndChar

StartChar: J
Encoding: 74 74 45
Width: 600
GlyphClass: 2
Flags: W
AnchorPoint: "Anchor-4" 580 714 basechar 0
AnchorPoint: "Anchor-3" 419 714 basechar 0
AnchorPoint: "Anchor-0" 300 0 basechar 0
LayerCount: 2
Fore
SplineSet
247 -10 m 0,0,1
 210 -10 210 -10 168 -3 c 128,-1,2
 126 4 126 4 96 17 c 1,3,-1
 96 113 l 1,4,5
 126 103 126 103 166 94.5 c 128,-1,6
 206 86 206 86 241 86 c 0,7,8
 300 86 300 86 333.5 120 c 128,-1,9
 367 154 367 154 367 234 c 2,10,-1
 367 714 l 1,11,-1
 472 714 l 1,12,-1
 472 226 l 2,13,14
 472 112 472 112 416.5 51 c 128,-1,15
 361 -10 361 -10 247 -10 c 0,0,1
EndSplineSet
Substitution2: "'c2sc' Capitals to Small Capitals lookup 32 subtable" j.sc
Substitution2: "'aalt' Access All Alternates lookup 0 subtable" j.sc
EndChar

StartChar: K
Encoding: 75 75 46
Width: 600
GlyphClass: 2
Flags: W
AnchorPoint: "Anchor-4" 580 714 basechar 0
AnchorPoint: "Anchor-3" 300 714 basechar 0
AnchorPoint: "Anchor-0" 309 0 basechar 0
LayerCount: 2
Fore
SplineSet
63 0 m 1,0,-1
 63 714 l 1,1,-1
 168 714 l 1,2,-1
 168 342 l 1,3,4
 184 370 184 370 201.5 397 c 128,-1,5
 219 424 219 424 239 453 c 2,6,-1
 429 714 l 1,7,-1
 548 714 l 1,8,-1
 314 392 l 1,9,-1
 553 0 l 1,10,-1
 433 0 l 1,11,-1
 243 318 l 1,12,-1
 168 236 l 1,13,-1
 168 0 l 1,14,-1
 63 0 l 1,0,-1
EndSplineSet
Substitution2: "'c2sc' Capitals to Small Capitals lookup 32 subtable" k.sc
Substitution2: "'aalt' Access All Alternates lookup 0 subtable" k.sc
EndChar

StartChar: L
Encoding: 76 76 47
Width: 600
GlyphClass: 2
Flags: W
AnchorPoint: "Anchor-4" 448 714 basechar 0
AnchorPoint: "Anchor-3" 161 714 basechar 0
AnchorPoint: "Anchor-1" 300 357 basechar 0
AnchorPoint: "Anchor-0" 330 0 basechar 0
LayerCount: 2
Fore
SplineSet
108 0 m 1,0,-1
 108 714 l 1,1,-1
 214 714 l 1,2,-1
 214 96 l 1,3,-1
 519 96 l 1,4,-1
 519 0 l 1,5,-1
 108 0 l 1,0,-1
EndSplineSet
Substitution2: "'c2sc' Capitals to Small Capitals lookup 32 subtable" l.sc
Substitution2: "'aalt' Access All Alternates lookup 0 subtable" l.sc
EndChar

StartChar: M
Encoding: 77 77 48
Width: 600
GlyphClass: 2
Flags: W
AnchorPoint: "Anchor-4" 600 714 basechar 0
AnchorPoint: "Anchor-3" 304 714 basechar 0
AnchorPoint: "Anchor-0" 300 0 basechar 0
LayerCount: 2
Fore
SplineSet
47 0 m 1,0,-1
 47 714 l 1,1,-1
 196 714 l 1,2,-1
 298 299 l 1,3,-1
 301 299 l 1,4,-1
 406 714 l 1,5,-1
 553 714 l 1,6,-1
 553 0 l 1,7,-1
 454 0 l 1,8,-1
 454 321 l 2,9,10
 454 368 454 368 456.5 423.5 c 128,-1,11
 459 479 459 479 462.5 529.5 c 128,-1,12
 466 580 466 580 469 612 c 1,13,-1
 464 612 l 1,14,-1
 350 175 l 1,15,-1
 250 175 l 1,16,-1
 133 613 l 1,17,-1
 128 613 l 1,18,19
 131 592 131 592 134 557 c 128,-1,20
 137 522 137 522 139.5 480 c 128,-1,21
 142 438 142 438 143.5 396 c 128,-1,22
 145 354 145 354 145 319 c 2,23,-1
 145 0 l 1,24,-1
 47 0 l 1,0,-1
EndSplineSet
Substitution2: "'c2sc' Capitals to Small Capitals lookup 32 subtable" m.sc
Substitution2: "'aalt' Access All Alternates lookup 0 subtable" m.sc
EndChar

StartChar: N
Encoding: 78 78 49
Width: 600
GlyphClass: 2
Flags: W
AnchorPoint: "Anchor-4" 600 714 basechar 0
AnchorPoint: "Anchor-3" 305 714 basechar 0
AnchorPoint: "Anchor-0" 300 0 basechar 0
LayerCount: 2
Fore
SplineSet
63 0 m 1,0,-1
 63 714 l 1,1,-1
 205 714 l 1,2,-1
 443 125 l 1,3,-1
 446 125 l 1,4,5
 442 186 442 186 440 238 c 128,-1,6
 438 290 438 290 438 342 c 2,7,-1
 438 714 l 1,8,-1
 537 714 l 1,9,-1
 537 0 l 1,10,-1
 402 0 l 1,11,-1
 154 610 l 1,12,-1
 150 610 l 1,13,14
 154 549 154 549 158 491.5 c 128,-1,15
 162 434 162 434 162 386 c 2,16,-1
 162 0 l 1,17,-1
 63 0 l 1,0,-1
EndSplineSet
Substitution2: "'c2sc' Capitals to Small Capitals lookup 32 subtable" n.sc
Substitution2: "'aalt' Access All Alternates lookup 0 subtable" n.sc
EndChar

StartChar: O
Encoding: 79 79 50
Width: 600
GlyphClass: 2
Flags: W
AnchorPoint: "Anchor-4" 600 714 basechar 0
AnchorPoint: "Anchor-3" 300 714 basechar 0
AnchorPoint: "Anchor-2" 298 10 basechar 0
AnchorPoint: "Anchor-1" 300 357 basechar 0
AnchorPoint: "Anchor-0" 300 0 basechar 0
LayerCount: 2
Fore
SplineSet
299 -10 m 0,0,1
 209 -10 209 -10 152 35.5 c 128,-1,2
 95 81 95 81 68 163.5 c 128,-1,3
 41 246 41 246 41 357 c 256,4,5
 41 468 41 468 68.5 551 c 128,-1,6
 96 634 96 634 153 680 c 128,-1,7
 210 726 210 726 300 726 c 256,8,9
 390 726 390 726 447.5 680.5 c 128,-1,10
 505 635 505 635 532 552.5 c 128,-1,11
 559 470 559 470 559 359 c 0,12,13
 559 246 559 246 531.5 163.5 c 128,-1,14
 504 81 504 81 447 35.5 c 128,-1,15
 390 -10 390 -10 299 -10 c 0,0,1
301 83 m 256,16,17
 384 83 384 83 417.5 155.5 c 128,-1,18
 451 228 451 228 451 358 c 0,19,20
 451 489 451 489 417.5 561 c 128,-1,21
 384 633 384 633 301 633 c 256,22,23
 218 633 218 633 183.5 560.5 c 128,-1,24
 149 488 149 488 149 358 c 256,25,26
 149 228 149 228 183.5 155.5 c 128,-1,27
 218 83 218 83 301 83 c 256,16,17
EndSplineSet
Substitution2: "'c2sc' Capitals to Small Capitals lookup 32 subtable" o.sc
Substitution2: "Single Substitution lookup 30 subtable" ordmasculine
AlternateSubs2: "'aalt' Access All Alternates lookup 1 subtable" ordmasculine o.sc
EndChar

StartChar: P
Encoding: 80 80 51
Width: 600
GlyphClass: 2
Flags: W
AnchorPoint: "Anchor-4" 600 714 basechar 0
AnchorPoint: "Anchor-3" 300 714 basechar 0
AnchorPoint: "Anchor-0" 300 0 basechar 0
LayerCount: 2
Fore
SplineSet
91 0 m 1,0,-1
 91 714 l 1,1,-1
 304 714 l 2,2,3
 431 714 431 714 490 658.5 c 128,-1,4
 549 603 549 603 549 501 c 0,5,6
 549 438 549 438 524.5 385 c 128,-1,7
 500 332 500 332 443.5 300.5 c 128,-1,8
 387 269 387 269 292 269 c 2,9,-1
 195 269 l 1,10,-1
 195 0 l 1,11,-1
 91 0 l 1,0,-1
195 360 m 1,12,-1
 281 360 l 2,13,14
 362 360 362 360 402 392.5 c 128,-1,15
 442 425 442 425 442 496 c 0,16,17
 442 564 442 564 406.5 593.5 c 128,-1,18
 371 623 371 623 297 623 c 2,19,-1
 195 623 l 1,20,-1
 195 360 l 1,12,-1
EndSplineSet
Substitution2: "'c2sc' Capitals to Small Capitals lookup 32 subtable" p.sc
Substitution2: "'aalt' Access All Alternates lookup 0 subtable" p.sc
EndChar

StartChar: Q
Encoding: 81 81 52
Width: 600
GlyphClass: 2
Flags: W
AnchorPoint: "Anchor-4" 600 714 basechar 0
AnchorPoint: "Anchor-3" 300 714 basechar 0
AnchorPoint: "Anchor-2" 298 10 basechar 0
AnchorPoint: "Anchor-1" 300 357 basechar 0
AnchorPoint: "Anchor-0" 300 -220 basechar 0
LayerCount: 2
Fore
SplineSet
299 -10 m 0,0,1
 209 -10 209 -10 152 35.5 c 128,-1,2
 95 81 95 81 68 163.5 c 128,-1,3
 41 246 41 246 41 357 c 256,4,5
 41 468 41 468 68.5 551 c 128,-1,6
 96 634 96 634 153 680 c 128,-1,7
 210 726 210 726 300 726 c 256,8,9
 390 726 390 726 447.5 680.5 c 128,-1,10
 505 635 505 635 532 552.5 c 128,-1,11
 559 470 559 470 559 359 c 0,12,13
 559 241 559 241 529 155 c 128,-1,14
 499 69 499 69 434 27 c 1,15,-1
 544 -180 l 1,16,-1
 428 -180 l 1,17,-1
 341 -7 l 1,18,19
 321 -10 321 -10 299 -10 c 0,0,1
301 83 m 256,20,21
 384 83 384 83 417.5 155.5 c 128,-1,22
 451 228 451 228 451 358 c 0,23,24
 451 489 451 489 417.5 561 c 128,-1,25
 384 633 384 633 301 633 c 256,26,27
 218 633 218 633 183.5 560.5 c 128,-1,28
 149 488 149 488 149 358 c 256,29,30
 149 228 149 228 183.5 155.5 c 128,-1,31
 218 83 218 83 301 83 c 256,20,21
EndSplineSet
Substitution2: "'c2sc' Capitals to Small Capitals lookup 32 subtable" q.sc
Substitution2: "'aalt' Access All Alternates lookup 0 subtable" q.sc
EndChar

StartChar: R
Encoding: 82 82 53
Width: 600
GlyphClass: 2
Flags: W
AnchorPoint: "Anchor-4" 580 714 basechar 0
AnchorPoint: "Anchor-3" 300 714 basechar 0
AnchorPoint: "Anchor-0" 329 0 basechar 0
LayerCount: 2
Fore
SplineSet
91 0 m 1,0,-1
 91 714 l 1,1,-1
 265 714 l 2,2,3
 391 714 391 714 454.5 662 c 128,-1,4
 518 610 518 610 518 510 c 0,5,6
 518 428 518 428 480.5 382 c 128,-1,7
 443 336 443 336 387 313 c 1,8,-1
 574 0 l 1,9,-1
 458 0 l 1,10,-1
 293 285 l 1,11,-1
 197 285 l 1,12,-1
 197 0 l 1,13,-1
 91 0 l 1,0,-1
197 376 m 1,14,-1
 262 376 l 2,15,16
 341 376 341 376 375.5 408.5 c 128,-1,17
 410 441 410 441 410 503 c 0,18,19
 410 568 410 568 373.5 595.5 c 128,-1,20
 337 623 337 623 259 623 c 2,21,-1
 197 623 l 1,22,-1
 197 376 l 1,14,-1
EndSplineSet
Substitution2: "'c2sc' Capitals to Small Capitals lookup 32 subtable" r.sc
Substitution2: "'aalt' Access All Alternates lookup 0 subtable" r.sc
EndChar

StartChar: S
Encoding: 83 83 54
Width: 600
GlyphClass: 2
Flags: W
AnchorPoint: "Anchor-4" 580 714 basechar 0
AnchorPoint: "Anchor-3" 318 714 basechar 0
AnchorPoint: "Anchor-0" 300 0 basechar 0
LayerCount: 2
Fore
SplineSet
279 -10 m 0,0,1
 223 -10 223 -10 169.5 0.5 c 128,-1,2
 116 11 116 11 81 29 c 1,3,-1
 81 126 l 1,4,5
 123 106 123 106 176 93 c 128,-1,6
 229 80 229 80 282 80 c 0,7,8
 351 80 351 80 388 107.5 c 128,-1,9
 425 135 425 135 425 192 c 0,10,11
 425 225 425 225 410 244.5 c 128,-1,12
 395 264 395 264 360.5 282 c 128,-1,13
 326 300 326 300 267 327 c 0,14,15
 224 347 224 347 184.5 372 c 128,-1,16
 145 397 145 397 120.5 435.5 c 128,-1,17
 96 474 96 474 96 534 c 0,18,19
 96 627 96 627 158 675.5 c 128,-1,20
 220 724 220 724 326 724 c 0,21,22
 376 724 376 724 427 713 c 128,-1,23
 478 702 478 702 520 682 c 1,24,-1
 486 596 l 1,25,26
 406 632 406 632 327 632 c 0,27,28
 272 632 272 632 238.5 608.5 c 128,-1,29
 205 585 205 585 205 531 c 0,30,31
 205 497 205 497 219.5 476.5 c 128,-1,32
 234 456 234 456 264 440 c 128,-1,33
 294 424 294 424 343 402 c 0,34,35
 400 376 400 376 443 351 c 128,-1,36
 486 326 486 326 510 289.5 c 128,-1,37
 534 253 534 253 534 193 c 0,38,39
 534 96 534 96 468 43 c 128,-1,40
 402 -10 402 -10 279 -10 c 0,0,1
EndSplineSet
Substitution2: "'c2sc' Capitals to Small Capitals lookup 32 subtable" s.sc
Substitution2: "'aalt' Access All Alternates lookup 0 subtable" s.sc
EndChar

StartChar: T
Encoding: 84 84 55
Width: 600
GlyphClass: 2
Flags: W
AnchorPoint: "Anchor-4" 580 714 basechar 0
AnchorPoint: "Anchor-3" 300 714 basechar 0
AnchorPoint: "Anchor-1" 300 357 basechar 0
AnchorPoint: "Anchor-0" 300 0 basechar 0
LayerCount: 2
Fore
SplineSet
247 0 m 1,0,-1
 247 621 l 1,1,-1
 41 621 l 1,2,-1
 41 714 l 1,3,-1
 559 714 l 1,4,-1
 559 621 l 1,5,-1
 353 621 l 1,6,-1
 353 0 l 1,7,-1
 247 0 l 1,0,-1
EndSplineSet
Substitution2: "'c2sc' Capitals to Small Capitals lookup 32 subtable" t.sc
Substitution2: "'aalt' Access All Alternates lookup 0 subtable" t.sc
EndChar

StartChar: U
Encoding: 85 85 56
Width: 600
GlyphClass: 2
Flags: W
AnchorPoint: "Anchor-4" 580 714 basechar 0
AnchorPoint: "Anchor-3" 300 714 basechar 0
AnchorPoint: "Anchor-2" 540 10 basechar 0
AnchorPoint: "Anchor-0" 300 0 basechar 0
LayerCount: 2
Fore
SplineSet
298 -10 m 0,0,1
 174 -10 174 -10 118.5 60 c 128,-1,2
 63 130 63 130 63 251 c 2,3,-1
 63 714 l 1,4,-1
 169 714 l 1,5,-1
 169 262 l 2,6,7
 169 177 169 177 197.5 130 c 128,-1,8
 226 83 226 83 300 83 c 0,9,10
 352 83 352 83 380 105.5 c 128,-1,11
 408 128 408 128 419.5 168.5 c 128,-1,12
 431 209 431 209 431 263 c 2,13,-1
 431 714 l 1,14,-1
 537 714 l 1,15,-1
 537 250 l 2,16,17
 537 174 537 174 513 115.5 c 128,-1,18
 489 57 489 57 436.5 23.5 c 128,-1,19
 384 -10 384 -10 298 -10 c 0,0,1
EndSplineSet
Substitution2: "'c2sc' Capitals to Small Capitals lookup 32 subtable" u.sc
Substitution2: "'aalt' Access All Alternates lookup 0 subtable" u.sc
EndChar

StartChar: V
Encoding: 86 86 57
Width: 600
GlyphClass: 2
Flags: W
AnchorPoint: "Anchor-4" 580 714 basechar 0
AnchorPoint: "Anchor-3" 300 714 basechar 0
AnchorPoint: "Anchor-0" 300 0 basechar 0
LayerCount: 2
Fore
SplineSet
244 0 m 1,0,-1
 21 714 l 1,1,-1
 130 714 l 1,2,-1
 260 262 l 2,3,4
 271 223 271 223 282 178.5 c 128,-1,5
 293 134 293 134 300 100 c 1,6,-1
 305 100 l 1,7,8
 312 134 312 134 322 179 c 128,-1,9
 332 224 332 224 343 264 c 2,10,-1
 469 714 l 1,11,-1
 579 714 l 1,12,-1
 358 0 l 1,13,-1
 244 0 l 1,0,-1
EndSplineSet
Substitution2: "'c2sc' Capitals to Small Capitals lookup 32 subtable" v.sc
Substitution2: "'aalt' Access All Alternates lookup 0 subtable" v.sc
EndChar

StartChar: W
Encoding: 87 87 58
Width: 600
GlyphClass: 2
Flags: W
AnchorPoint: "Anchor-4" 580 714 basechar 0
AnchorPoint: "Anchor-3" 300 714 basechar 0
AnchorPoint: "Anchor-0" 300 0 basechar 0
LayerCount: 2
Fore
SplineSet
93 0 m 1,0,-1
 21 714 l 1,1,-1
 116 714 l 1,2,3
 124 634 124 634 129.5 573 c 128,-1,4
 135 512 135 512 138.5 460.5 c 128,-1,5
 142 409 142 409 146 360 c 0,6,7
 150 317 150 317 153 266.5 c 128,-1,8
 156 216 156 216 158 172 c 128,-1,9
 160 128 160 128 160 105 c 1,10,-1
 164 105 l 1,11,12
 168 132 168 132 175 169.5 c 128,-1,13
 182 207 182 207 189 244.5 c 128,-1,14
 196 282 196 282 202 309 c 2,15,-1
 250 539 l 1,16,-1
 352 539 l 1,17,-1
 401 307 l 2,18,19
 412 258 412 258 424 200.5 c 128,-1,20
 436 143 436 143 442 104 c 1,21,-1
 445 104 l 1,22,23
 446 130 446 130 447 174 c 128,-1,24
 448 218 448 218 450.5 269.5 c 128,-1,25
 453 321 453 321 457 372 c 0,26,27
 460 417 460 417 464 466 c 128,-1,28
 468 515 468 515 473 575 c 128,-1,29
 478 635 478 635 484 714 c 1,30,-1
 579 714 l 1,31,-1
 514 0 l 1,32,-1
 392 0 l 1,33,-1
 326 303 l 2,34,35
 317 344 317 344 311 379 c 128,-1,36
 305 414 305 414 303 434 c 1,37,-1
 299 434 l 1,38,39
 297 414 297 414 291.5 379 c 128,-1,40
 286 344 286 344 277 303 c 2,41,-1
 213 0 l 1,42,-1
 93 0 l 1,0,-1
EndSplineSet
Substitution2: "'c2sc' Capitals to Small Capitals lookup 32 subtable" w.sc
Substitution2: "'aalt' Access All Alternates lookup 0 subtable" w.sc
EndChar

StartChar: X
Encoding: 88 88 59
Width: 600
GlyphClass: 2
Flags: W
AnchorPoint: "Anchor-4" 580 714 basechar 0
AnchorPoint: "Anchor-3" 300 714 basechar 0
AnchorPoint: "Anchor-0" 300 0 basechar 0
LayerCount: 2
Fore
SplineSet
31 0 m 1,0,-1
 251 369 l 1,1,-1
 45 714 l 1,2,-1
 157 714 l 1,3,-1
 300 455 l 1,4,-1
 443 714 l 1,5,-1
 555 714 l 1,6,-1
 350 368 l 1,7,-1
 569 0 l 1,8,-1
 459 0 l 1,9,-1
 300 282 l 1,10,-1
 142 0 l 1,11,-1
 31 0 l 1,0,-1
EndSplineSet
Substitution2: "'c2sc' Capitals to Small Capitals lookup 32 subtable" x.sc
Substitution2: "'aalt' Access All Alternates lookup 0 subtable" x.sc
EndChar

StartChar: Y
Encoding: 89 89 60
Width: 600
GlyphClass: 2
Flags: W
AnchorPoint: "Anchor-4" 580 714 basechar 0
AnchorPoint: "Anchor-3" 300 714 basechar 0
AnchorPoint: "Anchor-0" 300 0 basechar 0
LayerCount: 2
Fore
SplineSet
248 0 m 1,0,-1
 248 278 l 1,1,-1
 31 714 l 1,2,-1
 146 714 l 1,3,-1
 301 370 l 1,4,-1
 457 714 l 1,5,-1
 569 714 l 1,6,-1
 352 278 l 1,7,-1
 352 0 l 1,8,-1
 248 0 l 1,0,-1
EndSplineSet
Substitution2: "'c2sc' Capitals to Small Capitals lookup 32 subtable" y.sc
Substitution2: "'aalt' Access All Alternates lookup 0 subtable" y.sc
EndChar

StartChar: Z
Encoding: 90 90 61
Width: 600
GlyphClass: 2
Flags: W
AnchorPoint: "Anchor-4" 580 714 basechar 0
AnchorPoint: "Anchor-3" 312 714 basechar 0
AnchorPoint: "Anchor-0" 312 0 basechar 0
LayerCount: 2
Fore
SplineSet
91 0 m 1,0,-1
 91 79 l 1,1,-1
 398 623 l 1,2,-1
 112 623 l 1,3,-1
 112 714 l 1,4,-1
 512 714 l 1,5,-1
 512 635 l 1,6,-1
 206 93 l 1,7,-1
 512 93 l 1,8,-1
 512 0 l 1,9,-1
 91 0 l 1,0,-1
EndSplineSet
Substitution2: "'c2sc' Capitals to Small Capitals lookup 32 subtable" z.sc
Substitution2: "'aalt' Access All Alternates lookup 0 subtable" z.sc
EndChar

StartChar: bracketleft
Encoding: 91 91 62
Width: 600
Flags: W
LayerCount: 2
Fore
SplineSet
237 -156 m 1,0,-1
 237 718 l 1,1,-1
 466 718 l 1,2,-1
 466 638 l 1,3,-1
 334 638 l 1,4,-1
 334 -75 l 1,5,-1
 466 -75 l 1,6,-1
 466 -156 l 1,7,-1
 237 -156 l 1,0,-1
EndSplineSet
Substitution2: "'smcp' Lowercase to Small Capitals lookup 33 subtable" bracketleft.sc
Substitution2: "'c2sc' Capitals to Small Capitals lookup 32 subtable" bracketleft.sc
Substitution2: "'aalt' Access All Alternates lookup 0 subtable" bracketleft.sc
EndChar

StartChar: asciicircum
Encoding: 94 94 65
Width: 600
Flags: W
LayerCount: 2
Fore
SplineSet
47 267 m 1,0,-1
 262 718 l 1,1,-1
 318 718 l 1,2,-1
 553 267 l 1,3,-1
 463 267 l 1,4,-1
 291 605 l 1,5,-1
 137 267 l 1,6,-1
 47 267 l 1,0,-1
EndSplineSet
EndChar

StartChar: underscore
Encoding: 95 95 66
Width: 600
Flags: W
LayerCount: 2
Fore
SplineSet
0 -164 m 1,0,-1
 0 -72 l 1,1,-1
 600 -72 l 1,2,-1
 600 -164 l 1,3,-1
 0 -164 l 1,0,-1
EndSplineSet
EndChar

StartChar: grave
Encoding: 96 96 67
Width: 600
Flags: W
LayerCount: 2
Fore
SplineSet
321 606 m 1,0,1
 298 624 298 624 268.5 652 c 128,-1,2
 239 680 239 680 212.5 709 c 128,-1,3
 186 738 186 738 173 756 c 1,4,-1
 173 766 l 1,5,-1
 294 766 l 1,6,7
 306 744 306 744 323 716.5 c 128,-1,8
 340 689 340 689 358 662.5 c 128,-1,9
 376 636 376 636 391 618 c 1,10,-1
 391 606 l 1,11,-1
 321 606 l 1,0,1
EndSplineSet
EndChar

StartChar: a
Encoding: 97 97 68
Width: 600
GlyphClass: 2
Flags: W
AnchorPoint: "Anchor-4" 580 539 basechar 0
AnchorPoint: "Anchor-3" 306 539 basechar 0
AnchorPoint: "Anchor-2" 540 10 basechar 0
AnchorPoint: "Anchor-0" 302 0 basechar 0
LayerCount: 2
Fore
SplineSet
239 -10 m 0,0,1
 158 -10 158 -10 111 31 c 128,-1,2
 64 72 64 72 64 150 c 0,3,4
 64 238 64 238 125 281 c 128,-1,5
 186 324 186 324 302 327 c 2,6,-1
 419 330 l 1,7,-1
 419 353 l 2,8,9
 419 414 419 414 385.5 438.5 c 128,-1,10
 352 463 352 463 293 463 c 0,11,12
 252 463 252 463 213 453 c 128,-1,13
 174 443 174 443 136 424 c 1,14,-1
 101 502 l 1,15,16
 141 522 141 522 189.5 535.5 c 128,-1,17
 238 549 238 549 298 549 c 0,18,19
 403 549 403 549 460 503 c 128,-1,20
 517 457 517 457 517 360 c 2,21,-1
 517 0 l 1,22,-1
 434 0 l 1,23,-1
 420 73 l 1,24,-1
 416 73 l 1,25,26
 350 -10 350 -10 239 -10 c 0,0,1
265 75 m 0,27,28
 306 75 306 75 341.5 90.5 c 128,-1,29
 377 106 377 106 398 136 c 128,-1,30
 419 166 419 166 419 212 c 2,31,-1
 419 259 l 1,32,-1
 327 257 l 2,33,34
 242 254 242 254 204 228 c 128,-1,35
 166 202 166 202 166 156 c 0,36,37
 166 112 166 112 193.5 93.5 c 128,-1,38
 221 75 221 75 265 75 c 0,27,28
EndSplineSet
Substitution2: "'smcp' Lowercase to Small Capitals lookup 33 subtable" a.sc
Substitution2: "Single Substitution lookup 30 subtable" ordfeminine
AlternateSubs2: "'aalt' Access All Alternates lookup 1 subtable" ordfeminine a.sc
EndChar

StartChar: b
Encoding: 98 98 69
Width: 600
GlyphClass: 2
Flags: W
AnchorPoint: "Anchor-4" 580 760 basechar 0
AnchorPoint: "Anchor-3" 300 760 basechar 0
AnchorPoint: "Anchor-0" 300 0 basechar 0
LayerCount: 2
Fore
SplineSet
336 -10 m 0,0,1
 280 -10 280 -10 239.5 11.5 c 128,-1,2
 199 33 199 33 175 66 c 1,3,-1
 168 66 l 1,4,-1
 156 0 l 1,5,-1
 73 0 l 1,6,-1
 73 760 l 1,7,-1
 176 760 l 1,8,-1
 176 578 l 2,9,10
 176 553 176 553 175 526 c 128,-1,11
 174 499 174 499 171 469 c 1,12,-1
 176 469 l 1,13,14
 198 503 198 503 238.5 526 c 128,-1,15
 279 549 279 549 337 549 c 0,16,17
 437 549 437 549 493 475.5 c 128,-1,18
 549 402 549 402 549 271 c 0,19,20
 549 138 549 138 492.5 64 c 128,-1,21
 436 -10 436 -10 336 -10 c 0,0,1
310 77 m 0,22,23
 377 77 377 77 409 126.5 c 128,-1,24
 441 176 441 176 441 271 c 0,25,26
 441 365 441 365 408.5 413.5 c 128,-1,27
 376 462 376 462 309 462 c 0,28,29
 246 462 246 462 211 414 c 128,-1,30
 176 366 176 366 176 272 c 0,31,32
 176 77 176 77 310 77 c 0,22,23
EndSplineSet
Substitution2: "'smcp' Lowercase to Small Capitals lookup 33 subtable" b.sc
Substitution2: "'aalt' Access All Alternates lookup 0 subtable" b.sc
EndChar

StartChar: c
Encoding: 99 99 70
Width: 600
GlyphClass: 2
Flags: W
AnchorPoint: "Anchor-4" 580 539 basechar 0
AnchorPoint: "Anchor-3" 327 539 basechar 0
AnchorPoint: "Anchor-0" 331 0 basechar 0
LayerCount: 2
Fore
SplineSet
338 -10 m 0,0,1
 214 -10 214 -10 147.5 56 c 128,-1,2
 81 122 81 122 81 265 c 0,3,4
 81 366 81 366 113.5 428.5 c 128,-1,5
 146 491 146 491 205.5 520 c 128,-1,6
 265 549 265 549 346 549 c 0,7,8
 436 549 436 549 509 513 c 1,9,-1
 478 427 l 1,10,11
 444 444 444 444 413 451 c 128,-1,12
 382 458 382 458 351 458 c 0,13,14
 266 458 266 458 227.5 410 c 128,-1,15
 189 362 189 362 189 267 c 0,16,17
 189 167 189 167 229.5 124 c 128,-1,18
 270 81 270 81 350 81 c 0,19,20
 390 81 390 81 428.5 90.5 c 128,-1,21
 467 100 467 100 500 116 c 1,22,-1
 500 22 l 1,23,24
 466 6 466 6 423.5 -2 c 128,-1,25
 381 -10 381 -10 338 -10 c 0,0,1
EndSplineSet
Substitution2: "'smcp' Lowercase to Small Capitals lookup 33 subtable" c.sc
Substitution2: "'aalt' Access All Alternates lookup 0 subtable" c.sc
EndChar

StartChar: d
Encoding: 100 100 71
Width: 600
GlyphClass: 2
Flags: W
AnchorPoint: "Anchor-4" 580 760 basechar 0
AnchorPoint: "Anchor-3" 300 760 basechar 0
AnchorPoint: "Anchor-1" 300 269 basechar 0
AnchorPoint: "Anchor-0" 300 0 basechar 0
LayerCount: 2
Fore
SplineSet
265 -10 m 0,0,1
 164 -10 164 -10 107.5 63 c 128,-1,2
 51 136 51 136 51 272 c 0,3,4
 51 402 51 402 106 475.5 c 128,-1,5
 161 549 161 549 275 549 c 0,6,7
 330 549 330 549 366.5 527.5 c 128,-1,8
 403 506 403 506 425 470 c 1,9,-1
 430 470 l 1,10,11
 427 490 427 490 425 514 c 128,-1,12
 423 538 423 538 423 561 c 2,13,-1
 423 760 l 1,14,-1
 527 760 l 1,15,-1
 527 0 l 1,16,-1
 443 0 l 1,17,-1
 427 72 l 1,18,-1
 422 72 l 1,19,20
 399 34 399 34 360.5 12 c 128,-1,21
 322 -10 322 -10 265 -10 c 0,0,1
294 77 m 0,22,23
 361 77 361 77 393.5 122.5 c 128,-1,24
 426 168 426 168 426 249 c 2,25,-1
 426 268 l 2,26,27
 426 324 426 324 414 367.5 c 128,-1,28
 402 411 402 411 374 436.5 c 128,-1,29
 346 462 346 462 297 462 c 0,30,31
 159 462 159 462 159 263 c 0,32,33
 159 77 159 77 294 77 c 0,22,23
EndSplineSet
Substitution2: "'smcp' Lowercase to Small Capitals lookup 33 subtable" d.sc
Substitution2: "'aalt' Access All Alternates lookup 0 subtable" d.sc
EndChar

StartChar: e
Encoding: 101 101 72
Width: 600
GlyphClass: 2
Flags: W
AnchorPoint: "Anchor-4" 580 539 basechar 0
AnchorPoint: "Anchor-3" 306 539 basechar 0
AnchorPoint: "Anchor-2" 307 10 basechar 0
AnchorPoint: "Anchor-0" 310 0 basechar 0
LayerCount: 2
Fore
SplineSet
341 -10 m 0,0,1
 208 -10 208 -10 132.5 62 c 128,-1,2
 57 134 57 134 57 269 c 0,3,4
 57 356 57 356 88.5 418.5 c 128,-1,5
 120 481 120 481 177 515 c 128,-1,6
 234 549 234 549 312 549 c 0,7,8
 420 549 420 549 481.5 481.5 c 128,-1,9
 543 414 543 414 543 295 c 2,10,-1
 543 245 l 1,11,-1
 163 245 l 1,12,13
 166 154 166 154 217 115.5 c 128,-1,14
 268 77 268 77 348 77 c 0,15,16
 390 77 390 77 433 88.5 c 128,-1,17
 476 100 476 100 521 119 c 1,18,-1
 521 28 l 1,19,20
 476 8 476 8 430 -1 c 128,-1,21
 384 -10 384 -10 341 -10 c 0,0,1
165 325 m 1,22,-1
 441 325 l 1,23,24
 439 390 439 390 405.5 427.5 c 128,-1,25
 372 465 372 465 313 465 c 0,26,27
 252 465 252 465 213 427.5 c 128,-1,28
 174 390 174 390 165 325 c 1,22,-1
EndSplineSet
Substitution2: "'smcp' Lowercase to Small Capitals lookup 33 subtable" e.sc
Substitution2: "'aalt' Access All Alternates lookup 0 subtable" e.sc
EndChar

StartChar: f
Encoding: 102 102 73
Width: 600
GlyphClass: 2
Flags: W
AnchorPoint: "Anchor-4" 580 765 basechar 0
AnchorPoint: "Anchor-3" 404 764 basechar 0
AnchorPoint: "Anchor-0" 300 0 basechar 0
LayerCount: 2
Fore
SplineSet
233 0 m 1,0,-1
 233 451 l 1,1,-1
 67 451 l 1,2,-1
 67 521 l 1,3,-1
 233 539 l 1,4,-1
 233 592 l 2,5,6
 233 687 233 687 286 726 c 128,-1,7
 339 765 339 765 432 765 c 0,8,9
 474 765 474 765 509.5 759 c 128,-1,10
 545 753 545 753 573 744 c 1,11,-1
 548 662 l 1,12,13
 526 669 526 669 497.5 673 c 128,-1,14
 469 677 469 677 444 677 c 0,15,16
 393 677 393 677 366 655.5 c 128,-1,17
 339 634 339 634 339 579 c 2,18,-1
 339 539 l 1,19,-1
 533 539 l 1,20,-1
 533 451 l 1,21,-1
 339 451 l 1,22,-1
 339 0 l 1,23,-1
 233 0 l 1,0,-1
EndSplineSet
Substitution2: "'smcp' Lowercase to Small Capitals lookup 33 subtable" f.sc
Substitution2: "'aalt' Access All Alternates lookup 0 subtable" f.sc
EndChar

StartChar: g
Encoding: 103 103 74
Width: 600
GlyphClass: 2
Flags: W
AnchorPoint: "Anchor-4" 580 539 basechar 0
AnchorPoint: "Anchor-3" 300 539 basechar 0
AnchorPoint: "Anchor-0" 300 -245 basechar 0
LayerCount: 2
Fore
SplineSet
271 -245 m 0,0,1
 219 -245 219 -245 171.5 -235.5 c 128,-1,2
 124 -226 124 -226 82 -209 c 1,3,-1
 82 -112 l 1,4,5
 125 -134 125 -134 176 -145.5 c 128,-1,6
 227 -157 227 -157 272 -157 c 0,7,8
 356 -157 356 -157 390.5 -119 c 128,-1,9
 425 -81 425 -81 425 -12 c 2,10,-1
 425 5 l 2,11,12
 425 18 425 18 425.5 30.5 c 128,-1,13
 426 43 426 43 428 63 c 1,14,-1
 424 63 l 1,15,16
 396 22 396 22 358.5 6 c 128,-1,17
 321 -10 321 -10 270 -10 c 0,18,19
 166 -10 166 -10 108.5 63 c 128,-1,20
 51 136 51 136 51 267 c 0,21,22
 51 399 51 399 108.5 474 c 128,-1,23
 166 549 166 549 266 549 c 0,24,25
 318 549 318 549 355.5 530.5 c 128,-1,26
 393 512 393 512 422 472 c 1,27,-1
 427 472 l 1,28,-1
 444 539 l 1,29,-1
 527 539 l 1,30,-1
 527 -10 l 2,31,32
 527 -126 527 -126 465 -185.5 c 128,-1,33
 403 -245 403 -245 271 -245 c 0,0,1
297 77 m 0,34,35
 362 77 362 77 396 119 c 128,-1,36
 430 161 430 161 430 248 c 2,37,-1
 430 268 l 2,38,39
 430 372 430 372 394.5 417 c 128,-1,40
 359 462 359 462 294 462 c 0,41,42
 224 462 224 462 191.5 411.5 c 128,-1,43
 159 361 159 361 159 269 c 0,44,45
 159 175 159 175 192.5 126 c 128,-1,46
 226 77 226 77 297 77 c 0,34,35
EndSplineSet
Substitution2: "'smcp' Lowercase to Small Capitals lookup 33 subtable" g.sc
Substitution2: "'aalt' Access All Alternates lookup 0 subtable" g.sc
EndChar

StartChar: h
Encoding: 104 104 75
Width: 600
GlyphClass: 2
Flags: W
AnchorPoint: "Anchor-4" 580 760 basechar 0
AnchorPoint: "Anchor-3" 127 760 basechar 0
AnchorPoint: "Anchor-1" 300 269 basechar 0
AnchorPoint: "Anchor-0" 300 0 basechar 0
LayerCount: 2
Fore
SplineSet
73 0 m 1,0,-1
 73 760 l 1,1,-1
 179 760 l 1,2,-1
 179 562 l 2,3,4
 179 540 179 540 177.5 510 c 128,-1,5
 176 480 176 480 175 458 c 1,6,-1
 181 458 l 1,7,8
 206 504 206 504 248 526.5 c 128,-1,9
 290 549 290 549 345 549 c 0,10,11
 430 549 430 549 481 500.5 c 128,-1,12
 532 452 532 452 532 352 c 2,13,-1
 532 0 l 1,14,-1
 426 0 l 1,15,-1
 426 328 l 2,16,17
 426 399 426 399 397 430.5 c 128,-1,18
 368 462 368 462 315 462 c 0,19,20
 250 462 250 462 214.5 413.5 c 128,-1,21
 179 365 179 365 179 272 c 2,22,-1
 179 0 l 1,23,-1
 73 0 l 1,0,-1
EndSplineSet
Substitution2: "'smcp' Lowercase to Small Capitals lookup 33 subtable" h.sc
Substitution2: "'subs' Subscript lookup 20 subtable" uni2095
AlternateSubs2: "'aalt' Access All Alternates lookup 1 subtable" h.sc uni2095
EndChar

StartChar: i
Encoding: 105 105 76
Width: 600
GlyphClass: 2
Flags: W
AnchorPoint: "Anchor-4" 501 765 basechar 0
AnchorPoint: "Anchor-3" 309 765 basechar 0
AnchorPoint: "Anchor-0" 320 0 basechar 0
LayerCount: 2
Fore
SplineSet
309 626 m 256,0,1
 278 626 278 626 258.5 643 c 128,-1,2
 239 660 239 660 239 695 c 256,3,4
 239 730 239 730 258.5 747.5 c 128,-1,5
 278 765 278 765 310 765 c 0,6,7
 341 765 341 765 360.5 747.5 c 128,-1,8
 380 730 380 730 380 695 c 256,9,10
 380 660 380 660 360 643 c 128,-1,11
 340 626 340 626 309 626 c 256,0,1
74 0 m 1,12,-1
 74 69 l 1,13,-1
 262 88 l 1,14,-1
 262 451 l 1,15,-1
 93 465 l 1,16,-1
 93 539 l 1,17,-1
 369 539 l 1,18,-1
 369 88 l 1,19,-1
 543 69 l 1,20,-1
 543 0 l 1,21,-1
 74 0 l 1,12,-1
EndSplineSet
Substitution2: "'smcp' Lowercase to Small Capitals lookup 33 subtable" i.sc
Substitution2: "Single Substitution lookup 5 subtable" dotlessi
Substitution2: "Single Substitution lookup 4 subtable" dotlessi
AlternateSubs2: "'aalt' Access All Alternates lookup 1 subtable" dotlessi i.sc
EndChar

StartChar: j
Encoding: 106 106 77
Width: 600
GlyphClass: 2
Flags: W
AnchorPoint: "Anchor-4" 580 765 basechar 0
AnchorPoint: "Anchor-3" 340 765 basechar 0
AnchorPoint: "Anchor-0" 222 -245 basechar 0
LayerCount: 2
Fore
SplineSet
343 626 m 256,0,1
 312 626 312 626 293 643.5 c 128,-1,2
 274 661 274 661 274 696 c 0,3,4
 274 730 274 730 292.5 747.5 c 128,-1,5
 311 765 311 765 343 765 c 0,6,7
 374 765 374 765 394 747.5 c 128,-1,8
 414 730 414 730 414 696 c 0,9,10
 414 661 414 661 394 643.5 c 128,-1,11
 374 626 374 626 343 626 c 256,0,1
193 -245 m 0,12,13
 160 -245 160 -245 121.5 -240 c 128,-1,14
 83 -235 83 -235 54 -227 c 1,15,-1
 54 -135 l 1,16,17
 83 -144 83 -144 117.5 -149.5 c 128,-1,18
 152 -155 152 -155 180 -155 c 0,19,20
 244 -155 244 -155 272 -123.5 c 128,-1,21
 300 -92 300 -92 300 -23 c 2,22,-1
 300 451 l 1,23,-1
 131 465 l 1,24,-1
 131 539 l 1,25,-1
 406 539 l 1,26,-1
 406 -42 l 2,27,28
 406 -142 406 -142 351.5 -193.5 c 128,-1,29
 297 -245 297 -245 193 -245 c 0,12,13
EndSplineSet
Substitution2: "'smcp' Lowercase to Small Capitals lookup 33 subtable" j.sc
Substitution2: "Single Substitution lookup 5 subtable" uni0237
Substitution2: "Single Substitution lookup 4 subtable" uni0237
AlternateSubs2: "'aalt' Access All Alternates lookup 1 subtable" uni0237 j.sc
EndChar

StartChar: k
Encoding: 107 107 78
Width: 600
GlyphClass: 2
Flags: W
AnchorPoint: "Anchor-4" 580 760 basechar 0
AnchorPoint: "Anchor-3" 340 760 basechar 0
AnchorPoint: "Anchor-0" 334 0 basechar 0
LayerCount: 2
Fore
SplineSet
92 0 m 1,0,-1
 92 760 l 1,1,-1
 198 760 l 1,2,-1
 198 398 l 2,3,4
 198 367 198 367 195.5 329.5 c 128,-1,5
 193 292 193 292 191 258 c 1,6,-1
 193 258 l 1,7,8
 210 282 210 282 227 303 c 128,-1,9
 244 324 244 324 264 346 c 2,10,-1
 435 539 l 1,11,-1
 561 539 l 1,12,-1
 352 309 l 1,13,-1
 574 0 l 1,14,-1
 455 0 l 1,15,-1
 283 245 l 1,16,-1
 198 167 l 1,17,-1
 198 0 l 1,18,-1
 92 0 l 1,0,-1
EndSplineSet
Substitution2: "'smcp' Lowercase to Small Capitals lookup 33 subtable" k.sc
Substitution2: "'subs' Subscript lookup 20 subtable" uni2096
AlternateSubs2: "'aalt' Access All Alternates lookup 1 subtable" k.sc uni2096
EndChar

StartChar: l
Encoding: 108 108 79
Width: 600
GlyphClass: 2
Flags: W
AnchorPoint: "Anchor-4" 494 760 basechar 0
AnchorPoint: "Anchor-3" 300 760 basechar 0
AnchorPoint: "Anchor-1" 320 384 basechar 0
AnchorPoint: "Anchor-0" 320 0 basechar 0
LayerCount: 2
Fore
SplineSet
74 0 m 1,0,-1
 74 69 l 1,1,-1
 265 88 l 1,2,-1
 265 672 l 1,3,-1
 89 690 l 1,4,-1
 89 760 l 1,5,-1
 372 760 l 1,6,-1
 372 88 l 1,7,-1
 543 69 l 1,8,-1
 543 0 l 1,9,-1
 74 0 l 1,0,-1
EndSplineSet
Substitution2: "'smcp' Lowercase to Small Capitals lookup 33 subtable" l.sc
Substitution2: "'subs' Subscript lookup 20 subtable" uni2097
AlternateSubs2: "'aalt' Access All Alternates lookup 1 subtable" l.sc uni2097
EndChar

StartChar: m
Encoding: 109 109 80
Width: 600
GlyphClass: 2
Flags: W
AnchorPoint: "Anchor-4" 580 539 basechar 0
AnchorPoint: "Anchor-3" 327 539 basechar 0
AnchorPoint: "Anchor-0" 306 0 basechar 0
LayerCount: 2
Fore
SplineSet
44 0 m 1,0,-1
 44 539 l 1,1,-1
 117 539 l 1,2,-1
 131 477 l 1,3,-1
 136 477 l 1,4,5
 155 518 155 518 178.5 533.5 c 128,-1,6
 202 549 202 549 236 549 c 0,7,8
 278 549 278 549 301 528.5 c 128,-1,9
 324 508 324 508 334 468 c 1,10,-1
 338 468 l 1,11,12
 355 507 355 507 380 528 c 128,-1,13
 405 549 405 549 448 549 c 0,14,15
 510 549 510 549 533.5 500.5 c 128,-1,16
 557 452 557 452 557 351 c 2,17,-1
 557 0 l 1,18,-1
 463 0 l 1,19,-1
 463 349 l 2,20,21
 463 401 463 401 455 430 c 128,-1,22
 447 459 447 459 415 459 c 0,23,24
 348 459 348 459 348 293 c 2,25,-1
 348 0 l 1,26,-1
 254 0 l 1,27,-1
 254 349 l 2,28,29
 254 402 254 402 243.5 430.5 c 128,-1,30
 233 459 233 459 201 459 c 0,31,32
 165 459 165 459 151 415.5 c 128,-1,33
 137 372 137 372 137 293 c 2,34,-1
 137 0 l 1,35,-1
 44 0 l 1,0,-1
EndSplineSet
Substitution2: "'smcp' Lowercase to Small Capitals lookup 33 subtable" m.sc
Substitution2: "'subs' Subscript lookup 20 subtable" uni2098
AlternateSubs2: "'aalt' Access All Alternates lookup 1 subtable" m.sc uni2098
EndChar

StartChar: n
Encoding: 110 110 81
Width: 600
GlyphClass: 2
Flags: W
AnchorPoint: "Anchor-4" 580 539 basechar 0
AnchorPoint: "Anchor-3" 310 539 basechar 0
AnchorPoint: "Anchor-0" 305 0 basechar 0
LayerCount: 2
Fore
SplineSet
73 0 m 1,0,-1
 73 539 l 1,1,-1
 156 539 l 1,2,-1
 172 463 l 1,3,-1
 178 463 l 1,4,5
 202 506 202 506 246.5 527.5 c 128,-1,6
 291 549 291 549 350 549 c 0,7,8
 434 549 434 549 483 501.5 c 128,-1,9
 532 454 532 454 532 357 c 2,10,-1
 532 0 l 1,11,-1
 426 0 l 1,12,-1
 426 335 l 2,13,14
 426 400 426 400 399.5 431 c 128,-1,15
 373 462 373 462 317 462 c 0,16,17
 242 462 242 462 210.5 411 c 128,-1,18
 179 360 179 360 179 270 c 2,19,-1
 179 0 l 1,20,-1
 73 0 l 1,0,-1
EndSplineSet
Substitution2: "'smcp' Lowercase to Small Capitals lookup 33 subtable" n.sc
Substitution2: "'sups' Superscript lookup 21 subtable" nsuperior
Substitution2: "'subs' Subscript lookup 20 subtable" uni2099
AlternateSubs2: "'aalt' Access All Alternates lookup 1 subtable" nsuperior n.sc uni2099
EndChar

StartChar: o
Encoding: 111 111 82
Width: 600
GlyphClass: 2
Flags: W
AnchorPoint: "Anchor-4" 580 539 basechar 0
AnchorPoint: "Anchor-3" 300 539 basechar 0
AnchorPoint: "Anchor-2" 302 10 basechar 0
AnchorPoint: "Anchor-1" 300 269 basechar 0
AnchorPoint: "Anchor-0" 300 0 basechar 0
LayerCount: 2
Fore
SplineSet
301 -10 m 0,0,1
 228 -10 228 -10 171.5 22 c 128,-1,2
 115 54 115 54 83 116 c 128,-1,3
 51 178 51 178 51 270 c 0,4,5
 51 361 51 361 82.5 423 c 128,-1,6
 114 485 114 485 170 517 c 128,-1,7
 226 549 226 549 299 549 c 256,8,9
 372 549 372 549 428 517.5 c 128,-1,10
 484 486 484 486 516.5 424 c 128,-1,11
 549 362 549 362 549 269 c 0,12,13
 549 178 549 178 518 116 c 128,-1,14
 487 54 487 54 431 22 c 128,-1,15
 375 -10 375 -10 301 -10 c 0,0,1
301 76 m 0,16,17
 372 76 372 76 407 128 c 128,-1,18
 442 180 442 180 442 270 c 0,19,20
 442 359 442 359 407 411 c 128,-1,21
 372 463 372 463 300 463 c 256,22,23
 228 463 228 463 192.5 411.5 c 128,-1,24
 157 360 157 360 157 270 c 0,25,26
 157 181 157 181 193 128.5 c 128,-1,27
 229 76 229 76 301 76 c 0,16,17
EndSplineSet
Substitution2: "'smcp' Lowercase to Small Capitals lookup 33 subtable" o.sc
Substitution2: "Single Substitution lookup 30 subtable" ordmasculine
AlternateSubs2: "'aalt' Access All Alternates lookup 1 subtable" ordmasculine o.sc
EndChar

StartChar: p
Encoding: 112 112 83
Width: 600
GlyphClass: 2
Flags: W
AnchorPoint: "Anchor-4" 580 539 basechar 0
AnchorPoint: "Anchor-3" 319 539 basechar 0
AnchorPoint: "Anchor-0" 319 -240 basechar 0
LayerCount: 2
Fore
SplineSet
73 -240 m 1,0,-1
 73 539 l 1,1,-1
 157 539 l 1,2,-1
 172 467 l 1,3,-1
 177 467 l 1,4,5
 201 506 201 506 241 527.5 c 128,-1,6
 281 549 281 549 338 549 c 0,7,8
 438 549 438 549 493.5 475 c 128,-1,9
 549 401 549 401 549 270 c 0,10,11
 549 134 549 134 491.5 62 c 128,-1,12
 434 -10 434 -10 336 -10 c 0,13,14
 281 -10 281 -10 241.5 12 c 128,-1,15
 202 34 202 34 177 66 c 1,16,-1
 171 66 l 1,17,18
 175 43 175 43 176 22.5 c 128,-1,19
 177 2 177 2 177 -13 c 2,20,-1
 177 -240 l 1,21,-1
 73 -240 l 1,0,-1
309 77 m 0,22,23
 378 77 378 77 409 125 c 128,-1,24
 440 173 440 173 440 272 c 0,25,26
 440 368 440 368 409 415 c 128,-1,27
 378 462 378 462 308 462 c 0,28,29
 241 462 241 462 209 417.5 c 128,-1,30
 177 373 177 373 177 290 c 2,31,-1
 177 271 l 2,32,33
 177 179 177 179 207 128 c 128,-1,34
 237 77 237 77 309 77 c 0,22,23
EndSplineSet
Substitution2: "'smcp' Lowercase to Small Capitals lookup 33 subtable" p.sc
Substitution2: "'subs' Subscript lookup 20 subtable" uni209A
AlternateSubs2: "'aalt' Access All Alternates lookup 1 subtable" p.sc uni209A
EndChar

StartChar: q
Encoding: 113 113 84
Width: 600
GlyphClass: 2
Flags: W
AnchorPoint: "Anchor-4" 580 539 basechar 0
AnchorPoint: "Anchor-3" 280 539 basechar 0
AnchorPoint: "Anchor-0" 280 -240 basechar 0
LayerCount: 2
Fore
SplineSet
423 -240 m 1,0,-1
 423 -11 l 2,1,2
 423 7 423 7 424.5 28.5 c 128,-1,3
 426 50 426 50 427 72 c 1,4,-1
 423 72 l 1,5,6
 400 37 400 37 361.5 13.5 c 128,-1,7
 323 -10 323 -10 265 -10 c 0,8,9
 165 -10 165 -10 108 64 c 128,-1,10
 51 138 51 138 51 268 c 0,11,12
 51 400 51 400 108.5 474.5 c 128,-1,13
 166 549 166 549 267 549 c 0,14,15
 322 549 322 549 361 526 c 128,-1,16
 400 503 400 503 425 468 c 1,17,-1
 429 468 l 1,18,-1
 444 539 l 1,19,-1
 527 539 l 1,20,-1
 527 -240 l 1,21,-1
 423 -240 l 1,0,-1
293 77 m 0,22,23
 360 77 360 77 392.5 121.5 c 128,-1,24
 425 166 425 166 425 249 c 2,25,-1
 425 268 l 2,26,27
 425 362 425 362 393.5 412 c 128,-1,28
 362 462 362 462 291 462 c 0,29,30
 223 462 223 462 191.5 412 c 128,-1,31
 160 362 160 362 160 267 c 0,32,33
 160 178 160 178 191.5 127.5 c 128,-1,34
 223 77 223 77 293 77 c 0,22,23
EndSplineSet
Substitution2: "'smcp' Lowercase to Small Capitals lookup 33 subtable" q.sc
Substitution2: "'aalt' Access All Alternates lookup 0 subtable" q.sc
EndChar

StartChar: r
Encoding: 114 114 85
Width: 600
GlyphClass: 2
Flags: W
AnchorPoint: "Anchor-4" 580 539 basechar 0
AnchorPoint: "Anchor-3" 337 539 basechar 0
AnchorPoint: "Anchor-0" 268 0 basechar 0
LayerCount: 2
Fore
SplineSet
56 0 m 1,0,-1
 56 69 l 1,1,-1
 213 88 l 1,2,-1
 213 451 l 1,3,-1
 75 465 l 1,4,-1
 75 539 l 1,5,-1
 296 539 l 1,6,-1
 310 443 l 1,7,-1
 315 443 l 1,8,9
 343 493 343 493 378 521 c 128,-1,10
 413 549 413 549 470 549 c 0,11,12
 528 549 528 549 575 528 c 1,13,-1
 547 433 l 1,14,15
 531 440 531 440 509.5 446 c 128,-1,16
 488 452 488 452 464 452 c 0,17,18
 420 452 420 452 387.5 427 c 128,-1,19
 355 402 355 402 337.5 360 c 128,-1,20
 320 318 320 318 320 267 c 2,21,-1
 320 88 l 1,22,-1
 472 69 l 1,23,-1
 472 0 l 1,24,-1
 56 0 l 1,0,-1
EndSplineSet
Substitution2: "'smcp' Lowercase to Small Capitals lookup 33 subtable" r.sc
Substitution2: "'aalt' Access All Alternates lookup 0 subtable" r.sc
EndChar

StartChar: s
Encoding: 115 115 86
Width: 600
GlyphClass: 2
Flags: W
AnchorPoint: "Anchor-4" 580 539 basechar 0
AnchorPoint: "Anchor-3" 305 539 basechar 0
AnchorPoint: "Anchor-0" 305 0 basechar 0
LayerCount: 2
Fore
SplineSet
277 -10 m 0,0,1
 227 -10 227 -10 181.5 -2 c 128,-1,2
 136 6 136 6 98 23 c 1,3,-1
 98 122 l 1,4,5
 135 106 135 106 180.5 92 c 128,-1,6
 226 78 226 78 285 78 c 256,7,8
 344 78 344 78 369.5 95 c 128,-1,9
 395 112 395 112 395 146 c 0,10,11
 395 166 395 166 384 179 c 128,-1,12
 373 192 373 192 345.5 205 c 128,-1,13
 318 218 318 218 268 239 c 256,14,15
 218 260 218 260 181.5 280 c 128,-1,16
 145 300 145 300 125 328 c 128,-1,17
 105 356 105 356 105 401 c 0,18,19
 105 476 105 476 162 512.5 c 128,-1,20
 219 549 219 549 316 549 c 0,21,22
 362 549 362 549 406 540.5 c 128,-1,23
 450 532 450 532 496 512 c 1,24,-1
 464 430 l 1,25,26
 422 447 422 447 386.5 454 c 128,-1,27
 351 461 351 461 315 461 c 0,28,29
 261 461 261 461 235.5 447.5 c 128,-1,30
 210 434 210 434 210 404 c 0,31,32
 210 372 210 372 240 355.5 c 128,-1,33
 270 339 270 339 336 311 c 0,34,35
 386 290 386 290 423.5 271 c 128,-1,36
 461 252 461 252 481.5 224 c 128,-1,37
 502 196 502 196 502 147 c 0,38,39
 502 -10 502 -10 277 -10 c 0,0,1
EndSplineSet
Substitution2: "'smcp' Lowercase to Small Capitals lookup 33 subtable" s.sc
Substitution2: "'subs' Subscript lookup 20 subtable" uni209B
AlternateSubs2: "'aalt' Access All Alternates lookup 1 subtable" s.sc uni209B
EndChar

StartChar: t
Encoding: 116 116 87
Width: 600
GlyphClass: 2
Flags: W
AnchorPoint: "Anchor-4" 580 680 basechar 0
AnchorPoint: "Anchor-3" 259 680 basechar 0
AnchorPoint: "Anchor-1" 255 269 basechar 0
AnchorPoint: "Anchor-0" 372 0 basechar 0
LayerCount: 2
Fore
SplineSet
399 -10 m 0,0,1
 338 -10 338 -10 292 6.5 c 128,-1,2
 246 23 246 23 220.5 62.5 c 128,-1,3
 195 102 195 102 195 170 c 2,4,-1
 195 451 l 1,5,-1
 55 451 l 1,6,-1
 55 521 l 1,7,-1
 198 541 l 1,8,-1
 218 680 l 1,9,-1
 301 680 l 1,10,-1
 301 539 l 1,11,-1
 509 539 l 1,12,-1
 509 451 l 1,13,-1
 301 451 l 1,14,-1
 301 187 l 2,15,16
 301 127 301 127 328.5 102 c 128,-1,17
 356 77 356 77 411 77 c 0,18,19
 436 77 436 77 465 81.5 c 128,-1,20
 494 86 494 86 521 92 c 1,21,-1
 521 8 l 1,22,23
 493 0 493 0 462 -5 c 128,-1,24
 431 -10 431 -10 399 -10 c 0,0,1
EndSplineSet
Substitution2: "'smcp' Lowercase to Small Capitals lookup 33 subtable" t.sc
Substitution2: "'subs' Subscript lookup 20 subtable" uni209C
AlternateSubs2: "'aalt' Access All Alternates lookup 1 subtable" t.sc uni209C
EndChar

StartChar: u
Encoding: 117 117 88
Width: 600
GlyphClass: 2
Flags: W
AnchorPoint: "Anchor-4" 580 539 basechar 0
AnchorPoint: "Anchor-3" 300 539 basechar 0
AnchorPoint: "Anchor-2" 540 10 basechar 0
AnchorPoint: "Anchor-0" 300 0 basechar 0
LayerCount: 2
Fore
SplineSet
253 -10 m 0,0,1
 68 -10 68 -10 68 182 c 2,2,-1
 68 539 l 1,3,-1
 174 539 l 1,4,-1
 174 203 l 2,5,6
 174 142 174 142 198 109.5 c 128,-1,7
 222 77 222 77 283 77 c 0,8,9
 362 77 362 77 391.5 128 c 128,-1,10
 421 179 421 179 421 269 c 2,11,-1
 421 539 l 1,12,-1
 527 539 l 1,13,-1
 527 0 l 1,14,-1
 444 0 l 1,15,-1
 428 71 l 1,16,-1
 422 71 l 1,17,18
 395 28 395 28 352 9 c 128,-1,19
 309 -10 309 -10 253 -10 c 0,0,1
EndSplineSet
Substitution2: "'smcp' Lowercase to Small Capitals lookup 33 subtable" u.sc
Substitution2: "'aalt' Access All Alternates lookup 0 subtable" u.sc
EndChar

StartChar: v
Encoding: 118 118 89
Width: 600
GlyphClass: 2
Flags: W
AnchorPoint: "Anchor-4" 580 539 basechar 0
AnchorPoint: "Anchor-3" 300 539 basechar 0
AnchorPoint: "Anchor-0" 300 0 basechar 0
LayerCount: 2
Fore
SplineSet
237 0 m 1,0,-1
 38 539 l 1,1,-1
 149 539 l 1,2,-1
 257 223 l 2,3,4
 268 192 268 192 278.5 159 c 128,-1,5
 289 126 289 126 299 90 c 1,6,-1
 302 90 l 1,7,8
 312 126 312 126 323 158.5 c 128,-1,9
 334 191 334 191 345 223 c 2,10,-1
 450 539 l 1,11,-1
 562 539 l 1,12,-1
 360 0 l 1,13,-1
 237 0 l 1,0,-1
EndSplineSet
Substitution2: "'smcp' Lowercase to Small Capitals lookup 33 subtable" v.sc
Substitution2: "'aalt' Access All Alternates lookup 0 subtable" v.sc
EndChar

StartChar: w
Encoding: 119 119 90
Width: 600
GlyphClass: 2
Flags: W
AnchorPoint: "Anchor-4" 580 539 basechar 0
AnchorPoint: "Anchor-3" 301 539 basechar 0
AnchorPoint: "Anchor-0" 301 0 basechar 0
LayerCount: 2
Fore
SplineSet
96 0 m 1,0,-1
 12 539 l 1,1,-1
 110 539 l 1,2,-1
 145 269 l 2,3,4
 150 236 150 236 152.5 210 c 128,-1,5
 155 184 155 184 157 156 c 128,-1,6
 159 128 159 128 162 89 c 1,7,-1
 165 89 l 1,8,9
 170 120 170 120 178.5 167 c 128,-1,10
 187 214 187 214 198 258 c 2,11,-1
 247 444 l 1,12,-1
 353 444 l 1,13,-1
 400 257 l 2,14,15
 411 216 411 216 420.5 169 c 128,-1,16
 430 122 430 122 435 89 c 1,17,-1
 439 89 l 1,18,19
 442 126 442 126 443.5 154 c 128,-1,20
 445 182 445 182 448 209 c 128,-1,21
 451 236 451 236 456 269 c 2,22,-1
 493 539 l 1,23,-1
 589 539 l 1,24,-1
 504 0 l 1,25,-1
 379 0 l 1,26,-1
 334 195 l 2,27,28
 325 234 325 234 316.5 269 c 128,-1,29
 308 304 308 304 301 340 c 1,30,-1
 298 340 l 1,31,32
 291 303 291 303 282 268.5 c 128,-1,33
 273 234 273 234 264 195 c 2,34,-1
 218 0 l 1,35,-1
 96 0 l 1,0,-1
EndSplineSet
Substitution2: "'smcp' Lowercase to Small Capitals lookup 33 subtable" w.sc
Substitution2: "'aalt' Access All Alternates lookup 0 subtable" w.sc
EndChar

StartChar: x
Encoding: 120 120 91
Width: 600
GlyphClass: 2
Flags: W
AnchorPoint: "Anchor-4" 580 539 basechar 0
AnchorPoint: "Anchor-3" 300 539 basechar 0
AnchorPoint: "Anchor-0" 300 0 basechar 0
LayerCount: 2
Fore
SplineSet
38 0 m 1,0,-1
 238 275 l 1,1,-1
 47 539 l 1,2,-1
 170 539 l 1,3,-1
 301 347 l 1,4,-1
 433 539 l 1,5,-1
 555 539 l 1,6,-1
 363 275 l 1,7,-1
 562 0 l 1,8,-1
 439 0 l 1,9,-1
 301 203 l 1,10,-1
 160 0 l 1,11,-1
 38 0 l 1,0,-1
EndSplineSet
Substitution2: "'smcp' Lowercase to Small Capitals lookup 33 subtable" x.sc
Substitution2: "'aalt' Access All Alternates lookup 0 subtable" x.sc
EndChar

StartChar: y
Encoding: 121 121 92
Width: 600
GlyphClass: 2
Flags: W
AnchorPoint: "Anchor-4" 580 539 basechar 0
AnchorPoint: "Anchor-3" 300 539 basechar 0
AnchorPoint: "Anchor-0" 300 -245 basechar 0
LayerCount: 2
Fore
SplineSet
135 -245 m 0,0,1
 116 -245 116 -245 97 -242.5 c 128,-1,2
 78 -240 78 -240 63 -237 c 1,3,-1
 63 -152 l 1,4,5
 75 -154 75 -154 91 -156 c 128,-1,6
 107 -158 107 -158 121 -158 c 0,7,8
 167 -158 167 -158 192.5 -135 c 128,-1,9
 218 -112 218 -112 237 -62 c 2,10,-1
 260 -2 l 1,11,-1
 38 539 l 1,12,-1
 146 539 l 1,13,-1
 267 224 l 2,14,15
 278 196 278 196 289 162 c 128,-1,16
 300 128 300 128 308 96 c 1,17,-1
 311 96 l 1,18,19
 319 130 319 130 329.5 163 c 128,-1,20
 340 196 340 196 349 225 c 2,21,-1
 451 539 l 1,22,-1
 562 539 l 1,23,-1
 341 -58 l 2,24,25
 320 -116 320 -116 294 -158 c 128,-1,26
 268 -200 268 -200 230 -222.5 c 128,-1,27
 192 -245 192 -245 135 -245 c 0,0,1
EndSplineSet
Substitution2: "'smcp' Lowercase to Small Capitals lookup 33 subtable" y.sc
Substitution2: "'aalt' Access All Alternates lookup 0 subtable" y.sc
EndChar

StartChar: z
Encoding: 122 122 93
Width: 600
GlyphClass: 2
Flags: W
AnchorPoint: "Anchor-4" 580 539 basechar 0
AnchorPoint: "Anchor-3" 309 539 basechar 0
AnchorPoint: "Anchor-0" 309 0 basechar 0
LayerCount: 2
Fore
SplineSet
83 0 m 1,0,-1
 83 69 l 1,1,-1
 387 457 l 1,2,-1
 98 457 l 1,3,-1
 98 539 l 1,4,-1
 509 539 l 1,5,-1
 509 460 l 1,6,-1
 213 87 l 1,7,-1
 517 87 l 1,8,-1
 517 0 l 1,9,-1
 83 0 l 1,0,-1
EndSplineSet
Substitution2: "'smcp' Lowercase to Small Capitals lookup 33 subtable" z.sc
Substitution2: "'aalt' Access All Alternates lookup 0 subtable" z.sc
EndChar

StartChar: braceleft
Encoding: 123 123 94
Width: 600
Flags: W
LayerCount: 2
Fore
SplineSet
461 -159 m 1,0,1
 360 -158 360 -158 309 -121 c 128,-1,2
 258 -84 258 -84 258 -3 c 2,3,-1
 258 144 l 2,4,5
 258 194 258 194 228 215 c 128,-1,6
 198 236 198 236 139 236 c 1,7,-1
 139 320 l 1,8,9
 198 321 198 321 228 341.5 c 128,-1,10
 258 362 258 362 258 412 c 2,11,-1
 258 560 l 2,12,13
 258 640 258 640 310 677.5 c 128,-1,14
 362 715 362 715 461 715 c 1,15,-1
 461 633 l 1,16,17
 412 632 412 632 384.5 612 c 128,-1,18
 357 592 357 592 357 546 c 2,19,-1
 357 402 l 2,20,21
 357 300 357 300 250 282 c 1,22,-1
 250 276 l 1,23,24
 357 257 357 257 357 156 c 2,25,-1
 357 9 l 2,26,27
 357 -37 357 -37 383.5 -56.5 c 128,-1,28
 410 -76 410 -76 461 -77 c 1,29,-1
 461 -159 l 1,0,1
EndSplineSet
Substitution2: "'smcp' Lowercase to Small Capitals lookup 33 subtable" braceleft.sc
Substitution2: "'c2sc' Capitals to Small Capitals lookup 32 subtable" braceleft.sc
Substitution2: "'aalt' Access All Alternates lookup 0 subtable" braceleft.sc
EndChar

StartChar: bar
Encoding: 124 124 95
Width: 600
Flags: W
LayerCount: 2
Fore
SplineSet
258 -240 m 1,0,-1
 258 760 l 1,1,-1
 342 760 l 1,2,-1
 342 -240 l 1,3,-1
 258 -240 l 1,0,-1
EndSplineSet
EndChar

StartChar: asciitilde
Encoding: 126 126 97
Width: 600
Flags: W
LayerCount: 2
Fore
SplineSet
82 282 m 1,0,-1
 82 370 l 1,1,2
 130 423 130 423 201 423 c 0,3,4
 227 423 227 423 252 416 c 128,-1,5
 277 409 277 409 316 391 c 0,6,7
 346 378 346 378 366 371 c 128,-1,8
 386 364 386 364 406 364 c 0,9,10
 434 364 434 364 464 381 c 128,-1,11
 494 398 494 398 518 423 c 1,12,-1
 518 336 l 1,13,14
 494 310 494 310 464.5 296 c 128,-1,15
 435 282 435 282 399 282 c 0,16,17
 373 282 373 282 347.5 289.5 c 128,-1,18
 322 297 322 297 283 314 c 0,19,20
 253 328 253 328 233 334.5 c 128,-1,21
 213 341 213 341 194 341 c 0,22,23
 167 341 167 341 136.5 324.5 c 128,-1,24
 106 308 106 308 82 282 c 1,0,-1
EndSplineSet
EndChar

StartChar: cent
Encoding: 162 162 100
Width: 600
Flags: W
LayerCount: 2
Fore
SplineSet
296 -10 m 1,0,-1
 296 89 l 1,1,2
 198 102 198 102 141.5 166.5 c 128,-1,3
 85 231 85 231 84 362 c 0,4,5
 85 492 85 492 142 560 c 128,-1,6
 199 628 199 628 296 641 c 1,7,-1
 296 724 l 1,8,-1
 368 724 l 1,9,-1
 368 645 l 1,10,11
 410 644 410 644 450.5 635 c 128,-1,12
 491 626 491 626 516 614 c 1,13,-1
 486 530 l 1,14,15
 459 541 459 541 423.5 549 c 128,-1,16
 388 557 388 557 353 557 c 0,17,18
 270 557 270 557 229 509.5 c 128,-1,19
 188 462 188 462 188 363 c 256,20,21
 188 264 188 264 229 219 c 128,-1,22
 270 174 270 174 350 174 c 0,23,24
 396 174 396 174 435 183.5 c 128,-1,25
 474 193 474 193 505 207 c 1,26,-1
 505 118 l 1,27,28
 452 89 452 89 367 86 c 1,29,-1
 367 -10 l 1,30,-1
 296 -10 l 1,0,-1
EndSplineSet
EndChar

StartChar: sterling
Encoding: 163 163 101
Width: 600
Flags: W
LayerCount: 2
Fore
SplineSet
87 0 m 1,0,-1
 87 87 l 1,1,2
 127 100 127 100 151 130.5 c 128,-1,3
 175 161 175 161 175 223 c 2,4,-1
 175 318 l 1,5,-1
 89 318 l 1,6,-1
 89 395 l 1,7,-1
 175 395 l 1,8,-1
 175 530 l 2,9,10
 175 624 175 624 228 673.5 c 128,-1,11
 281 723 281 723 367 723 c 0,12,13
 413 723 413 723 449.5 712.5 c 128,-1,14
 486 702 486 702 521 683 c 1,15,-1
 487 602 l 1,16,17
 431 635 431 635 376 635 c 0,18,19
 330 635 330 635 304.5 609 c 128,-1,20
 279 583 279 583 279 524 c 2,21,-1
 279 395 l 1,22,-1
 452 395 l 1,23,-1
 452 318 l 1,24,-1
 279 318 l 1,25,-1
 279 224 l 2,26,27
 279 182 279 182 259.5 145.5 c 128,-1,28
 240 109 240 109 215 93 c 1,29,-1
 529 93 l 1,30,-1
 529 0 l 1,31,-1
 87 0 l 1,0,-1
EndSplineSet
EndChar

StartChar: currency
Encoding: 164 164 102
Width: 600
Flags: W
LayerCount: 2
Fore
SplineSet
477 132 m 1,0,-1
 410 197 l 1,1,2
 386 182 386 182 358.5 173 c 128,-1,3
 331 164 331 164 300 164 c 0,4,5
 235 164 235 164 189 198 c 1,6,-1
 123 133 l 1,7,-1
 68 187 l 1,8,-1
 134 253 l 1,9,10
 118 277 118 277 109 304.5 c 128,-1,11
 100 332 100 332 100 364 c 0,12,13
 100 393 100 393 109 421.5 c 128,-1,14
 118 450 118 450 134 473 c 1,15,-1
 67 541 l 1,16,-1
 123 595 l 1,17,-1
 189 530 l 1,18,19
 237 564 237 564 300 564 c 0,20,21
 331 564 331 564 358 555 c 128,-1,22
 385 546 385 546 410 530 c 1,23,-1
 477 595 l 1,24,-1
 533 542 l 1,25,-1
 467 474 l 1,26,27
 482 451 482 451 492 422.5 c 128,-1,28
 502 394 502 394 502 363 c 256,29,30
 502 332 502 332 492.5 304 c 128,-1,31
 483 276 483 276 467 252 c 1,32,-1
 531 186 l 1,33,-1
 477 132 l 1,0,-1
300 242 m 0,34,35
 352 242 352 242 388 274 c 128,-1,36
 424 306 424 306 424 364 c 0,37,38
 424 421 424 421 388.5 454.5 c 128,-1,39
 353 488 353 488 300 488 c 0,40,41
 248 488 248 488 213 454 c 128,-1,42
 178 420 178 420 178 364 c 0,43,44
 178 306 178 306 213.5 274 c 128,-1,45
 249 242 249 242 300 242 c 0,34,35
EndSplineSet
EndChar

StartChar: yen
Encoding: 165 165 103
Width: 600
Flags: W
LayerCount: 2
Fore
SplineSet
249 0 m 1,0,-1
 249 124 l 1,1,-1
 105 124 l 1,2,-1
 105 194 l 1,3,-1
 249 194 l 1,4,-1
 249 272 l 1,5,-1
 105 272 l 1,6,-1
 105 343 l 1,7,-1
 221 343 l 1,8,-1
 32 714 l 1,9,-1
 141 714 l 1,10,-1
 299 383 l 1,11,-1
 460 714 l 1,12,-1
 568 714 l 1,13,-1
 375 343 l 1,14,-1
 495 343 l 1,15,-1
 495 272 l 1,16,-1
 350 272 l 1,17,-1
 350 194 l 1,18,-1
 495 194 l 1,19,-1
 495 124 l 1,20,-1
 350 124 l 1,21,-1
 350 0 l 1,22,-1
 249 0 l 1,0,-1
EndSplineSet
EndChar

StartChar: brokenbar
Encoding: 166 166 104
Width: 600
Flags: W
LayerCount: 2
Fore
SplineSet
257 374 m 1,0,-1
 257 759 l 1,1,-1
 342 759 l 1,2,-1
 342 374 l 1,3,-1
 257 374 l 1,0,-1
257 -238 m 1,4,-1
 257 148 l 1,5,-1
 342 148 l 1,6,-1
 342 -238 l 1,7,-1
 257 -238 l 1,4,-1
EndSplineSet
EndChar

StartChar: section
Encoding: 167 167 105
Width: 600
Flags: W
LayerCount: 2
Fore
SplineSet
276 -10 m 0,0,1
 222 -10 222 -10 180 -1 c 128,-1,2
 138 8 138 8 107 25 c 1,3,-1
 107 107 l 1,4,5
 140 90 140 90 187 76 c 128,-1,6
 234 62 234 62 278 62 c 0,7,8
 342 62 342 62 368 82.5 c 128,-1,9
 394 103 394 103 394 131 c 0,10,11
 394 150 394 150 385.5 165 c 128,-1,12
 377 180 377 180 351.5 195 c 128,-1,13
 326 210 326 210 275 231 c 0,14,15
 198 262 198 262 155.5 296 c 128,-1,16
 113 330 113 330 113 392 c 0,17,18
 113 440 113 440 137 470.5 c 128,-1,19
 161 501 161 501 193 517 c 1,20,21
 156 537 156 537 136.5 566 c 128,-1,22
 117 595 117 595 117 634 c 0,23,24
 117 695 117 695 168.5 730 c 128,-1,25
 220 765 220 765 313 765 c 0,26,27
 366 765 366 765 406 755.5 c 128,-1,28
 446 746 446 746 484 730 c 1,29,-1
 453 658 l 1,30,31
 420 674 420 674 387 683 c 128,-1,32
 354 692 354 692 311 692 c 0,33,34
 258 692 258 692 235.5 677 c 128,-1,35
 213 662 213 662 213 636 c 0,36,37
 213 609 213 609 238.5 589 c 128,-1,38
 264 569 264 569 332 543 c 0,39,40
 408 514 408 514 450 478 c 128,-1,41
 492 442 492 442 492 383 c 0,42,43
 492 335 492 335 470.5 303.5 c 128,-1,44
 449 272 449 272 418 254 c 1,45,46
 452 234 452 234 471 205 c 128,-1,47
 490 176 490 176 490 137 c 0,48,49
 490 68 490 68 433 29 c 128,-1,50
 376 -10 376 -10 276 -10 c 0,0,1
349 287 m 1,51,52
 370 300 370 300 387.5 320 c 128,-1,53
 405 340 405 340 405 370 c 0,54,55
 405 394 405 394 393 412.5 c 128,-1,56
 381 431 381 431 350 448 c 128,-1,57
 319 465 319 465 263 484 c 1,58,59
 238 476 238 476 218 455 c 128,-1,60
 198 434 198 434 198 405 c 0,61,62
 198 371 198 371 227 347 c 128,-1,63
 256 323 256 323 327 295 c 2,64,-1
 349 287 l 1,51,52
EndSplineSet
EndChar

StartChar: dieresis
Encoding: 168 168 106
Width: 600
GlyphClass: 2
Flags: W
AnchorPoint: "Anchor-13" 300 649 basemark 0
AnchorPoint: "Anchor-13" 300 539 mark 0
AnchorPoint: "Anchor-8" 300 539 mark 0
AnchorPoint: "Anchor-3" 300 539 mark 0
LayerCount: 2
Fore
SplineSet
416 618 m 256,0,1
 391 618 391 618 374 634 c 128,-1,2
 357 650 357 650 357 682 c 0,3,4
 357 715 357 715 374 729.5 c 128,-1,5
 391 744 391 744 416 744 c 256,6,7
 441 744 441 744 458.5 729 c 128,-1,8
 476 714 476 714 476 682 c 256,9,10
 476 650 476 650 458.5 634 c 128,-1,11
 441 618 441 618 416 618 c 256,0,1
186 618 m 0,12,13
 161 618 161 618 144 634 c 128,-1,14
 127 650 127 650 127 682 c 0,15,16
 127 715 127 715 144 729.5 c 128,-1,17
 161 744 161 744 186 744 c 0,18,19
 210 744 210 744 228 729 c 128,-1,20
 246 714 246 714 246 682 c 256,21,22
 246 650 246 650 228 634 c 128,-1,23
 210 618 210 618 186 618 c 0,12,13
EndSplineSet
EndChar

StartChar: copyright
Encoding: 169 169 107
Width: 600
Flags: W
LayerCount: 2
Fore
SplineSet
299 96 m 0,0,1
 216 96 216 96 158 130 c 128,-1,2
 100 164 100 164 69.5 223 c 128,-1,3
 39 282 39 282 39 356 c 0,4,5
 39 433 39 433 71 492 c 128,-1,6
 103 551 103 551 162 584.5 c 128,-1,7
 221 618 221 618 301 618 c 0,8,9
 382 618 382 618 440 584 c 128,-1,10
 498 550 498 550 529.5 491 c 128,-1,11
 561 432 561 432 561 357 c 0,12,13
 561 279 561 279 528 220.5 c 128,-1,14
 495 162 495 162 436.5 129 c 128,-1,15
 378 96 378 96 299 96 c 0,0,1
299 148 m 0,16,17
 360 148 360 148 406 173.5 c 128,-1,18
 452 199 452 199 477.5 245.5 c 128,-1,19
 503 292 503 292 503 356 c 256,20,21
 503 420 503 420 477.5 466.5 c 128,-1,22
 452 513 452 513 406 538.5 c 128,-1,23
 360 564 360 564 299 564 c 256,24,25
 238 564 238 564 192.5 538 c 128,-1,26
 147 512 147 512 122 465.5 c 128,-1,27
 97 419 97 419 97 357 c 0,28,29
 97 296 97 296 121.5 248.5 c 128,-1,30
 146 201 146 201 191.5 174.5 c 128,-1,31
 237 148 237 148 299 148 c 0,16,17
312 194 m 0,32,33
 238 194 238 194 201.5 238 c 128,-1,34
 165 282 165 282 165 354 c 0,35,36
 165 428 165 428 203 474 c 128,-1,37
 241 520 241 520 311 520 c 0,38,39
 335 520 335 520 357.5 514 c 128,-1,40
 380 508 380 508 401 498 c 1,41,-1
 379 446 l 1,42,43
 362 456 362 456 345.5 460 c 128,-1,44
 329 464 329 464 314 464 c 0,45,46
 274 464 274 464 251.5 436 c 128,-1,47
 229 408 229 408 229 353 c 0,48,49
 229 303 229 303 249 275.5 c 128,-1,50
 269 248 269 248 312 248 c 0,51,52
 349 248 349 248 389 264 c 1,53,-1
 389 210 l 1,54,55
 371 202 371 202 352.5 198 c 128,-1,56
 334 194 334 194 312 194 c 0,32,33
EndSplineSet
EndChar

StartChar: ordfeminine
Encoding: 170 170 108
Width: 600
Flags: W
LayerCount: 2
Fore
SplineSet
256 379 m 0,0,1
 207 379 207 379 178 404 c 128,-1,2
 149 429 149 429 149 478 c 0,3,4
 149 533 149 533 189 558.5 c 128,-1,5
 229 584 229 584 311 587 c 2,6,-1
 365 589 l 1,7,-1
 365 607 l 2,8,9
 365 638 365 638 345.5 651 c 128,-1,10
 326 664 326 664 295 664 c 0,11,12
 271 664 271 664 245.5 656.5 c 128,-1,13
 220 649 220 649 197 638 c 1,14,-1
 172 691 l 1,15,16
 198 704 198 704 232 713 c 128,-1,17
 266 722 266 722 303 722 c 0,18,19
 436 722 436 722 436 604 c 2,20,-1
 436 385 l 1,21,-1
 384 385 l 1,22,-1
 371 430 l 1,23,24
 351 407 351 407 322.5 393 c 128,-1,25
 294 379 294 379 256 379 c 0,0,1
277 436 m 0,26,27
 320 436 320 436 342.5 459 c 128,-1,28
 365 482 365 482 365 519 c 2,29,-1
 365 540 l 1,30,-1
 317 538 l 2,31,32
 261 536 261 536 242 520.5 c 128,-1,33
 223 505 223 505 223 481 c 0,34,35
 223 456 223 456 237.5 446 c 128,-1,36
 252 436 252 436 277 436 c 0,26,27
EndSplineSet
EndChar

StartChar: guillemotleft
Encoding: 171 171 109
Width: 600
Flags: W
LayerCount: 2
Fore
SplineSet
449 51 m 1,0,-1
 280 260 l 1,1,-1
 280 273 l 1,2,-1
 449 483 l 1,3,-1
 520 438 l 1,4,-1
 389 267 l 1,5,-1
 520 96 l 1,6,-1
 449 51 l 1,0,-1
248 52 m 1,7,-1
 80 260 l 1,8,-1
 80 273 l 1,9,-1
 248 483 l 1,10,-1
 319 436 l 1,11,-1
 188 267 l 1,12,-1
 318 96 l 1,13,-1
 248 52 l 1,7,-1
EndSplineSet
EndChar

StartChar: logicalnot
Encoding: 172 172 110
Width: 600
Flags: W
LayerCount: 2
Fore
SplineSet
435 126 m 1,0,-1
 435 312 l 1,1,-1
 74 312 l 1,2,-1
 74 393 l 1,3,-1
 516 393 l 1,4,-1
 516 126 l 1,5,-1
 435 126 l 1,0,-1
EndSplineSet
EndChar

StartChar: registered
Encoding: 174 174 112
Width: 600
Flags: W
LayerCount: 2
Fore
SplineSet
299 96 m 0,0,1
 216 96 216 96 158 130 c 128,-1,2
 100 164 100 164 69.5 223 c 128,-1,3
 39 282 39 282 39 357 c 0,4,5
 39 434 39 434 71.5 492.5 c 128,-1,6
 104 551 104 551 163 584.5 c 128,-1,7
 222 618 222 618 301 618 c 0,8,9
 382 618 382 618 440 584 c 128,-1,10
 498 550 498 550 529.5 491 c 128,-1,11
 561 432 561 432 561 357 c 0,12,13
 561 279 561 279 528 220.5 c 128,-1,14
 495 162 495 162 436.5 129 c 128,-1,15
 378 96 378 96 299 96 c 0,0,1
299 149 m 0,16,17
 390 149 390 149 446.5 205 c 128,-1,18
 503 261 503 261 503 357 c 0,19,20
 503 452 503 452 446.5 508 c 128,-1,21
 390 564 390 564 299 564 c 0,22,23
 238 564 238 564 192.5 538 c 128,-1,24
 147 512 147 512 122 465.5 c 128,-1,25
 97 419 97 419 97 357 c 0,26,27
 97 296 97 296 122 249 c 128,-1,28
 147 202 147 202 192.5 175.5 c 128,-1,29
 238 149 238 149 299 149 c 0,16,17
205 204 m 1,30,-1
 205 515 l 1,31,-1
 295 515 l 2,32,33
 354 515 354 515 382 490.5 c 128,-1,34
 410 466 410 466 410 422 c 0,35,36
 410 386 410 386 393.5 365.5 c 128,-1,37
 377 345 377 345 357 336 c 1,38,-1
 431 204 l 1,39,-1
 365 204 l 1,40,-1
 303 323 l 1,41,-1
 262 323 l 1,42,-1
 262 204 l 1,43,-1
 205 204 l 1,30,-1
262 369 m 1,44,-1
 293 369 l 2,45,46
 319 369 319 369 334.5 381.5 c 128,-1,47
 350 394 350 394 350 419 c 0,48,49
 350 466 350 466 293 466 c 2,50,-1
 262 466 l 1,51,-1
 262 369 l 1,44,-1
EndSplineSet
EndChar

StartChar: overscore
Encoding: 175 175 113
Width: 600
Flags: W
LayerCount: 2
Fore
SplineSet
151 619 m 1,0,-1
 151 698 l 1,1,-1
 450 698 l 1,2,-1
 450 619 l 1,3,-1
 151 619 l 1,0,-1
EndSplineSet
EndChar

StartChar: degree
Encoding: 176 176 114
Width: 600
Flags: W
LayerCount: 2
Fore
SplineSet
301 417 m 0,0,1
 255 417 255 417 220.5 437.5 c 128,-1,2
 186 458 186 458 166.5 493 c 128,-1,3
 147 528 147 528 147 571 c 256,4,5
 147 614 147 614 167 648.5 c 128,-1,6
 187 683 187 683 222 703.5 c 128,-1,7
 257 724 257 724 301 724 c 0,8,9
 343 724 343 724 377.5 703.5 c 128,-1,10
 412 683 412 683 433 648.5 c 128,-1,11
 454 614 454 614 454 571 c 256,12,13
 454 528 454 528 434.5 493 c 128,-1,14
 415 458 415 458 380.5 437.5 c 128,-1,15
 346 417 346 417 301 417 c 0,0,1
301 484 m 0,16,17
 338 484 338 484 361.5 508 c 128,-1,18
 385 532 385 532 385 571 c 256,19,20
 385 610 385 610 360.5 633.5 c 128,-1,21
 336 657 336 657 301 657 c 0,22,23
 265 657 265 657 240.5 634 c 128,-1,24
 216 611 216 611 216 571 c 0,25,26
 216 532 216 532 240.5 508 c 128,-1,27
 265 484 265 484 301 484 c 0,16,17
EndSplineSet
EndChar

StartChar: plusminus
Encoding: 177 177 115
Width: 600
Flags: W
LayerCount: 2
Fore
SplineSet
258 133 m 1,0,-1
 258 325 l 1,1,-1
 75 325 l 1,2,-1
 75 406 l 1,3,-1
 258 406 l 1,4,-1
 258 600 l 1,5,-1
 340 600 l 1,6,-1
 340 406 l 1,7,-1
 523 406 l 1,8,-1
 523 325 l 1,9,-1
 340 325 l 1,10,-1
 340 133 l 1,11,-1
 258 133 l 1,0,-1
77 0 m 1,12,-1
 77 82 l 1,13,-1
 523 82 l 1,14,-1
 523 0 l 1,15,-1
 77 0 l 1,12,-1
EndSplineSet
EndChar

StartChar: uni00B2
Encoding: 178 178 116
Width: 600
Flags: W
LayerCount: 2
Fore
SplineSet
155 416 m 1,0,-1
 155 479 l 1,1,-1
 262 583 l 2,2,3
 298 618 298 618 320 641.5 c 128,-1,4
 342 665 342 665 352 684.5 c 128,-1,5
 362 704 362 704 362 727 c 0,6,7
 362 758 362 758 343.5 772 c 128,-1,8
 325 786 325 786 296 786 c 0,9,10
 268 786 268 786 244.5 774.5 c 128,-1,11
 221 763 221 763 196 743 c 1,12,-1
 157 796 l 1,13,14
 186 822 186 822 221.5 837.5 c 128,-1,15
 257 853 257 853 302 853 c 0,16,17
 365 853 365 853 402.5 822.5 c 128,-1,18
 440 792 440 792 440 733 c 0,19,20
 440 697 440 697 426 669.5 c 128,-1,21
 412 642 412 642 385 614 c 128,-1,22
 358 586 358 586 319 548 c 2,23,-1
 253 485 l 1,24,-1
 456 485 l 1,25,-1
 456 416 l 1,26,-1
 155 416 l 1,0,-1
EndSplineSet
EndChar

StartChar: uni00B3
Encoding: 179 179 117
Width: 600
Flags: W
LayerCount: 2
Fore
SplineSet
279 408 m 0,0,1
 211 408 211 408 154 437 c 1,2,-1
 154 509 l 1,3,4
 186 492 186 492 218 482.5 c 128,-1,5
 250 473 250 473 282 473 c 0,6,7
 325 473 325 473 345.5 491 c 128,-1,8
 366 509 366 509 366 540 c 0,9,10
 366 606 366 606 270 606 c 2,11,-1
 216 606 l 1,12,-1
 216 667 l 1,13,-1
 268 667 l 2,14,15
 314 667 314 667 334 685.5 c 128,-1,16
 354 704 354 704 354 732 c 256,17,18
 354 760 354 760 337 774 c 128,-1,19
 320 788 320 788 292 788 c 0,20,21
 267 788 267 788 243 778 c 128,-1,22
 219 768 219 768 194 751 c 1,23,-1
 155 803 l 1,24,25
 185 826 185 826 219 839.5 c 128,-1,26
 253 853 253 853 297 853 c 0,27,28
 362 853 362 853 397.5 822.5 c 128,-1,29
 433 792 433 792 433 742 c 0,30,31
 433 704 433 704 414 678 c 128,-1,32
 395 652 395 652 364 641 c 1,33,-1
 364 638 l 1,34,35
 403 630 403 630 424.5 603.5 c 128,-1,36
 446 577 446 577 446 535 c 0,37,38
 446 479 446 479 404.5 443.5 c 128,-1,39
 363 408 363 408 279 408 c 0,0,1
EndSplineSet
EndChar

StartChar: acute
Encoding: 180 180 118
Width: 600
Flags: W
LayerCount: 2
Fore
SplineSet
239 606 m 1,0,-1
 239 618 l 1,1,2
 262 648 262 648 290 690 c 128,-1,3
 318 732 318 732 335 766 c 1,4,-1
 457 766 l 1,5,-1
 457 756 l 1,6,7
 443 738 443 738 417 709.5 c 128,-1,8
 391 681 391 681 361.5 652.5 c 128,-1,9
 332 624 332 624 308 606 c 1,10,-1
 239 606 l 1,0,-1
EndSplineSet
EndChar

StartChar: uni00B5
Encoding: 181 181 119
Width: 600
GlyphClass: 2
Flags: W
AnchorPoint: "Anchor-4" 580 539 basechar 0
AnchorPoint: "Anchor-3" 300 539 basechar 0
AnchorPoint: "Anchor-2" 540 10 basechar 0
AnchorPoint: "Anchor-0" 300 0 basechar 0
LayerCount: 2
Fore
SplineSet
68 -240 m 1,0,-1
 68 539 l 1,1,-1
 174 539 l 1,2,-1
 174 203 l 2,3,4
 174 142 174 142 198 109.5 c 128,-1,5
 222 77 222 77 283 77 c 0,6,7
 362 77 362 77 391.5 128 c 128,-1,8
 421 179 421 179 421 269 c 2,9,-1
 421 539 l 1,10,-1
 527 539 l 1,11,-1
 527 0 l 1,12,-1
 444 0 l 1,13,-1
 428 71 l 1,14,-1
 422 71 l 1,15,16
 395 28 395 28 352 9 c 128,-1,17
 309 -10 309 -10 253 -10 c 0,18,19
 208 -10 208 -10 174 1 c 1,20,-1
 174 -240 l 1,21,-1
 68 -240 l 1,0,-1
EndSplineSet
EndChar

StartChar: paragraph
Encoding: 182 182 120
Width: 600
Flags: W
LayerCount: 2
Fore
SplineSet
322 -127 m 1,0,-1
 322 273 l 1,1,2
 307 268 307 268 286.5 266 c 128,-1,3
 266 264 266 264 246 264 c 0,4,5
 184 264 184 264 139.5 288 c 128,-1,6
 95 312 95 312 71 365.5 c 128,-1,7
 47 419 47 419 47 509 c 0,8,9
 47 602 47 602 73 657 c 128,-1,10
 99 712 99 712 147.5 736 c 128,-1,11
 196 760 196 760 261 760 c 2,12,-1
 542 760 l 1,13,-1
 542 -127 l 1,14,-1
 479 -127 l 1,15,-1
 479 696 l 1,16,-1
 386 696 l 1,17,-1
 386 -127 l 1,18,-1
 322 -127 l 1,0,-1
EndSplineSet
EndChar

StartChar: cedilla
Encoding: 184 184 122
Width: 600
Flags: W
LayerCount: 2
Fore
SplineSet
256 -240 m 0,0,1
 220 -240 220 -240 199 -234 c 1,2,-1
 199 -173 l 1,3,4
 209 -176 209 -176 223.5 -177.5 c 128,-1,5
 238 -179 238 -179 252 -179 c 0,6,7
 283 -179 283 -179 301.5 -170 c 128,-1,8
 320 -161 320 -161 320 -137 c 256,9,10
 320 -113 320 -113 298 -101 c 128,-1,11
 276 -89 276 -89 234 -84 c 1,12,-1
 274 5 l 1,13,-1
 337 5 l 1,14,-1
 315 -48 l 1,15,16
 351 -56 351 -56 376 -77 c 128,-1,17
 401 -98 401 -98 401 -140 c 0,18,19
 401 -186 401 -186 365.5 -213 c 128,-1,20
 330 -240 330 -240 256 -240 c 0,0,1
EndSplineSet
EndChar

StartChar: uni00B9
Encoding: 185 185 123
Width: 600
Flags: W
LayerCount: 2
Fore
SplineSet
177 416 m 1,0,-1
 177 471 l 1,1,-1
 279 479 l 1,2,-1
 279 673 l 2,3,4
 279 724 279 724 282 765 c 1,5,6
 263 748 263 748 241 735 c 2,7,-1
 184 702 l 1,8,-1
 147 762 l 1,9,-1
 284 844 l 1,10,-1
 354 844 l 1,11,-1
 354 478 l 1,12,-1
 458 471 l 1,13,-1
 458 416 l 1,14,-1
 177 416 l 1,0,-1
EndSplineSet
EndChar

StartChar: ordmasculine
Encoding: 186 186 124
Width: 600
Flags: W
LayerCount: 2
Fore
SplineSet
298 379 m 0,0,1
 232 379 232 379 191 423 c 128,-1,2
 150 467 150 467 150 551 c 0,3,4
 150 634 150 634 190.5 678 c 128,-1,5
 231 722 231 722 300 722 c 0,6,7
 366 722 366 722 407.5 678 c 128,-1,8
 449 634 449 634 449 551 c 0,9,10
 449 467 449 467 408 423 c 128,-1,11
 367 379 367 379 298 379 c 0,0,1
299 439 m 0,12,13
 339 439 339 439 357 467 c 128,-1,14
 375 495 375 495 375 551 c 256,15,16
 375 607 375 607 357 634.5 c 128,-1,17
 339 662 339 662 299 662 c 256,18,19
 259 662 259 662 241 633 c 128,-1,20
 223 604 223 604 223 551 c 0,21,22
 223 495 223 495 240.5 467 c 128,-1,23
 258 439 258 439 299 439 c 0,12,13
EndSplineSet
EndChar

StartChar: AE
Encoding: 198 198 136
Width: 600
GlyphClass: 2
Flags: W
AnchorPoint: "Anchor-3" 327 714 basechar 0
AnchorPoint: "Anchor-0" 300 0 basechar 0
LayerCount: 2
Fore
SplineSet
17 0 m 1,0,-1
 180 714 l 1,1,-1
 551 714 l 1,2,-1
 551 621 l 1,3,-1
 383 621 l 1,4,-1
 383 419 l 1,5,-1
 532 419 l 1,6,-1
 532 327 l 1,7,-1
 383 327 l 1,8,-1
 383 93 l 1,9,-1
 551 93 l 1,10,-1
 551 0 l 1,11,-1
 286 0 l 1,12,-1
 286 206 l 1,13,-1
 162 206 l 1,14,-1
 118 0 l 1,15,-1
 17 0 l 1,0,-1
251 621 m 1,16,-1
 182 297 l 1,17,-1
 286 297 l 1,18,-1
 286 621 l 1,19,-1
 251 621 l 1,16,-1
EndSplineSet
Substitution2: "'c2sc' Capitals to Small Capitals lookup 32 subtable" ae.sc
Substitution2: "'aalt' Access All Alternates lookup 0 subtable" ae.sc
EndChar

StartChar: Eth
Encoding: 208 208 146
Width: 600
GlyphClass: 2
Flags: W
AnchorPoint: "Anchor-4" 607 714 basechar 0
AnchorPoint: "Anchor-3" 300 714 basechar 0
AnchorPoint: "Anchor-1" 308 357 basechar 0
AnchorPoint: "Anchor-0" 300 0 basechar 0
LayerCount: 2
Fore
SplineSet
70 0 m 1,0,-1
 70 308 l 1,1,-1
 0 308 l 1,2,-1
 0 398 l 1,3,-1
 70 398 l 1,4,-1
 70 714 l 1,5,-1
 257 714 l 2,6,7
 351 714 351 714 420.5 674.5 c 128,-1,8
 490 635 490 635 528 557 c 128,-1,9
 566 479 566 479 566 364 c 0,10,11
 566 185 566 185 479.5 92.5 c 128,-1,12
 393 0 393 0 239 0 c 2,13,-1
 70 0 l 1,0,-1
175 91 m 1,14,-1
 231 91 l 2,15,16
 347 91 347 91 402.5 159.5 c 128,-1,17
 458 228 458 228 458 361 c 0,18,19
 458 497 458 497 403 560 c 128,-1,20
 348 623 348 623 248 623 c 2,21,-1
 175 623 l 1,22,-1
 175 398 l 1,23,-1
 293 398 l 1,24,-1
 293 308 l 1,25,-1
 175 308 l 1,26,-1
 175 91 l 1,14,-1
EndSplineSet
Substitution2: "'c2sc' Capitals to Small Capitals lookup 32 subtable" eth.sc
Substitution2: "'aalt' Access All Alternates lookup 0 subtable" eth.sc
EndChar

StartChar: multiply
Encoding: 215 215 153
Width: 600
Flags: W
LayerCount: 2
Fore
SplineSet
142 137 m 1,0,-1
 85 194 l 1,1,-1
 242 353 l 1,2,-1
 84 511 l 1,3,-1
 141 569 l 1,4,-1
 300 411 l 1,5,-1
 460 569 l 1,6,-1
 517 513 l 1,7,-1
 358 353 l 1,8,-1
 516 193 l 1,9,-1
 459 137 l 1,10,-1
 299 294 l 1,11,-1
 142 137 l 1,0,-1
EndSplineSet
EndChar

StartChar: Oslash
Encoding: 216 216 154
Width: 600
GlyphClass: 2
Flags: W
AnchorPoint: "Anchor-4" 600 714 basechar 0
AnchorPoint: "Anchor-3" 300 714 basechar 0
AnchorPoint: "Anchor-2" 298 10 basechar 0
AnchorPoint: "Anchor-1" 300 357 basechar 0
AnchorPoint: "Anchor-0" 300 0 basechar 0
LayerCount: 2
Fore
SplineSet
112 -39 m 1,0,-1
 43 1 l 1,1,-1
 100 95 l 1,2,3
 70 143 70 143 55.5 209.5 c 128,-1,4
 41 276 41 276 41 357 c 0,5,6
 41 468 41 468 68.5 551 c 128,-1,7
 96 634 96 634 153 680 c 128,-1,8
 210 726 210 726 300 726 c 0,9,10
 391 726 391 726 451 678 c 1,11,-1
 494 750 l 1,12,-1
 561 710 l 1,13,-1
 504 615 l 1,14,15
 532 568 532 568 545.5 503 c 128,-1,16
 559 438 559 438 559 359 c 0,17,18
 559 246 559 246 531.5 163.5 c 128,-1,19
 504 81 504 81 447 35.5 c 128,-1,20
 390 -10 390 -10 299 -10 c 0,21,22
 213 -10 213 -10 155 33 c 1,23,-1
 112 -39 l 1,0,-1
149 358 m 0,24,25
 149 313 149 313 153 274 c 128,-1,26
 157 235 157 235 165 204 c 1,27,-1
 398 591 l 1,28,29
 363 633 363 633 301 633 c 0,30,31
 218 633 218 633 183.5 560.5 c 128,-1,32
 149 488 149 488 149 358 c 0,24,25
301 83 m 0,33,34
 384 83 384 83 417.5 155 c 128,-1,35
 451 227 451 227 451 358 c 0,36,37
 451 401 451 401 447.5 437.5 c 128,-1,38
 444 474 444 474 437 504 c 1,39,-1
 208 120 l 1,40,41
 243 83 243 83 301 83 c 0,33,34
EndSplineSet
Substitution2: "'c2sc' Capitals to Small Capitals lookup 32 subtable" oslash.sc
Substitution2: "'aalt' Access All Alternates lookup 0 subtable" oslash.sc
EndChar

StartChar: Thorn
Encoding: 222 222 160
Width: 600
GlyphClass: 2
Flags: W
AnchorPoint: "Anchor-3" 300 714 basechar 0
AnchorPoint: "Anchor-0" 300 0 basechar 0
LayerCount: 2
Fore
SplineSet
91 0 m 1,0,-1
 91 714 l 1,1,-1
 195 714 l 1,2,-1
 195 587 l 1,3,-1
 304 587 l 2,4,5
 431 587 431 587 490 531.5 c 128,-1,6
 549 476 549 476 549 374 c 0,7,8
 549 311 549 311 524.5 258.5 c 128,-1,9
 500 206 500 206 443.5 174 c 128,-1,10
 387 142 387 142 292 142 c 2,11,-1
 195 142 l 1,12,-1
 195 0 l 1,13,-1
 91 0 l 1,0,-1
195 233 m 1,14,-1
 281 233 l 2,15,16
 362 233 362 233 402 265.5 c 128,-1,17
 442 298 442 298 442 369 c 0,18,19
 442 433 442 433 406.5 464.5 c 128,-1,20
 371 496 371 496 297 496 c 2,21,-1
 195 496 l 1,22,-1
 195 233 l 1,14,-1
EndSplineSet
Substitution2: "'c2sc' Capitals to Small Capitals lookup 32 subtable" thorn.sc
Substitution2: "'aalt' Access All Alternates lookup 0 subtable" thorn.sc
EndChar

StartChar: germandbls
Encoding: 223 223 161
Width: 600
GlyphClass: 2
Flags: W
AnchorPoint: "Anchor-3" 300 765 basechar 0
AnchorPoint: "Anchor-0" 300 0 basechar 0
LayerCount: 2
Fore
SplineSet
381 -10 m 0,0,1
 340 -10 340 -10 305 -2 c 128,-1,2
 270 6 270 6 244 23 c 1,3,-1
 244 116 l 1,4,5
 269 100 269 100 305.5 87.5 c 128,-1,6
 342 75 342 75 380 75 c 0,7,8
 427 75 427 75 448.5 96 c 128,-1,9
 470 117 470 117 470 155 c 0,10,11
 470 178 470 178 462 192.5 c 128,-1,12
 454 207 454 207 434.5 222.5 c 128,-1,13
 415 238 415 238 380 262 c 0,14,15
 327 299 327 299 302 328 c 128,-1,16
 277 357 277 357 277 398 c 0,17,18
 277 431 277 431 290 453.5 c 128,-1,19
 303 476 303 476 322 493 c 128,-1,20
 341 510 341 510 360.5 525 c 128,-1,21
 380 540 380 540 393 558 c 128,-1,22
 406 576 406 576 406 602 c 0,23,24
 406 640 406 640 375 658.5 c 128,-1,25
 344 677 344 677 294 677 c 0,26,27
 243 677 243 677 208 653 c 128,-1,28
 173 629 173 629 173 570 c 2,29,-1
 173 0 l 1,30,-1
 69 0 l 1,31,-1
 69 575 l 2,32,33
 69 642 69 642 97.5 684 c 128,-1,34
 126 726 126 726 177 745.5 c 128,-1,35
 228 765 228 765 293 765 c 0,36,37
 390 765 390 765 451 726.5 c 128,-1,38
 512 688 512 688 512 614 c 0,39,40
 512 578 512 578 498.5 552 c 128,-1,41
 485 526 485 526 465 507 c 128,-1,42
 445 488 445 488 425 472.5 c 128,-1,43
 405 457 405 457 391.5 441 c 128,-1,44
 378 425 378 425 378 406 c 0,45,46
 378 386 378 386 399 370 c 128,-1,47
 420 354 420 354 464 323 c 0,48,49
 497 300 497 300 521.5 277 c 128,-1,50
 546 254 546 254 560 225 c 128,-1,51
 574 196 574 196 574 153 c 0,52,53
 574 70 574 70 522 30 c 128,-1,54
 470 -10 470 -10 381 -10 c 0,0,1
EndSplineSet
Substitution2: "'smcp' Lowercase to Small Capitals lookup 33 subtable" germandbls.sc
Substitution2: "'aalt' Access All Alternates lookup 0 subtable" germandbls.sc
EndChar

StartChar: ae
Encoding: 230 230 168
Width: 600
GlyphClass: 2
Flags: W
AnchorPoint: "Anchor-3" 300 539 basechar 0
AnchorPoint: "Anchor-0" 300 0 basechar 0
LayerCount: 2
Fore
SplineSet
146 -10 m 0,0,1
 90 -10 90 -10 53.5 30 c 128,-1,2
 17 70 17 70 17 152 c 256,3,4
 17 234 17 234 59.5 277.5 c 128,-1,5
 102 321 102 321 179 324 c 2,6,-1
 253 326 l 1,7,-1
 253 362 l 2,8,9
 253 418 253 418 233.5 440.5 c 128,-1,10
 214 463 214 463 176 463 c 0,11,12
 154 463 154 463 130.5 454 c 128,-1,13
 107 445 107 445 85 430 c 1,14,-1
 50 504 l 1,15,16
 77 524 77 524 114 536.5 c 128,-1,17
 151 549 151 549 184 549 c 0,18,19
 230 549 230 549 261 532.5 c 128,-1,20
 292 516 292 516 311 479 c 1,21,22
 351 549 351 549 432 549 c 0,23,24
 505 549 505 549 544 483.5 c 128,-1,25
 583 418 583 418 583 306 c 2,26,-1
 583 247 l 1,27,-1
 343 247 l 1,28,29
 344 153 344 153 376 113.5 c 128,-1,30
 408 74 408 74 459 74 c 0,31,32
 490 74 490 74 514.5 83.5 c 128,-1,33
 539 93 539 93 567 114 c 1,34,-1
 567 27 l 1,35,36
 540 8 540 8 513 -1 c 128,-1,37
 486 -10 486 -10 450 -10 c 0,38,39
 401 -10 401 -10 359.5 13 c 128,-1,40
 318 36 318 36 295 92 c 1,41,42
 270 39 270 39 234 14.5 c 128,-1,43
 198 -10 198 -10 146 -10 c 0,0,1
345 324 m 1,44,-1
 489 324 l 1,45,46
 489 393 489 393 473.5 428 c 128,-1,47
 458 463 458 463 422 463 c 0,48,49
 389 463 389 463 368 426.5 c 128,-1,50
 347 390 347 390 345 324 c 1,44,-1
167 74 m 0,51,52
 202 74 202 74 226.5 106 c 128,-1,53
 251 138 251 138 251 212 c 2,54,-1
 251 257 l 1,55,-1
 210 255 l 2,56,57
 111 249 111 249 111 154 c 0,58,59
 111 112 111 112 127.5 93 c 128,-1,60
 144 74 144 74 167 74 c 0,51,52
EndSplineSet
Substitution2: "'smcp' Lowercase to Small Capitals lookup 33 subtable" ae.sc
Substitution2: "'aalt' Access All Alternates lookup 0 subtable" ae.sc
EndChar

StartChar: eth
Encoding: 240 240 178
Width: 600
GlyphClass: 2
Flags: W
AnchorPoint: "Anchor-4" 580 760 basechar 0
AnchorPoint: "Anchor-3" 300 765 basechar 0
AnchorPoint: "Anchor-1" 300 269 basechar 0
AnchorPoint: "Anchor-0" 300 0 basechar 0
LayerCount: 2
Fore
SplineSet
299 -10 m 0,0,1
 226 -10 226 -10 170.5 19.5 c 128,-1,2
 115 49 115 49 83 103.5 c 128,-1,3
 51 158 51 158 51 234 c 0,4,5
 51 348 51 348 114.5 412.5 c 128,-1,6
 178 477 178 477 284 477 c 256,7,8
 390 477 390 477 434 421 c 1,9,-1
 438 423 l 1,10,11
 420 474 420 474 389 517.5 c 128,-1,12
 358 561 358 561 318 598 c 1,13,-1
 197 526 l 1,14,-1
 156 587 l 1,15,-1
 258 646 l 1,16,17
 220 674 220 674 175 698 c 1,18,-1
 215 765 l 1,19,20
 281 735 281 735 337 693 c 1,21,-1
 454 761 l 1,22,-1
 495 702 l 1,23,-1
 395 643 l 1,24,25
 469 569 469 569 509 475.5 c 128,-1,26
 549 382 549 382 549 276 c 0,27,28
 549 135 549 135 482 62.5 c 128,-1,29
 415 -10 415 -10 299 -10 c 0,0,1
301 72 m 0,30,31
 375 72 375 72 409.5 118 c 128,-1,32
 444 164 444 164 444 253 c 0,33,34
 444 311 444 311 409 353 c 128,-1,35
 374 395 374 395 301 395 c 0,36,37
 224 395 224 395 190 353.5 c 128,-1,38
 156 312 156 312 156 232 c 0,39,40
 156 162 156 162 190.5 117 c 128,-1,41
 225 72 225 72 301 72 c 0,30,31
EndSplineSet
Substitution2: "'smcp' Lowercase to Small Capitals lookup 33 subtable" eth.sc
Substitution2: "'aalt' Access All Alternates lookup 0 subtable" eth.sc
EndChar

StartChar: divide
Encoding: 247 247 185
Width: 600
Flags: W
LayerCount: 2
Fore
SplineSet
300 461 m 0,0,1
 274 461 274 461 257 476.5 c 128,-1,2
 240 492 240 492 240 526 c 0,3,4
 240 561 240 561 257 575.5 c 128,-1,5
 274 590 274 590 300 590 c 0,6,7
 325 590 325 590 341.5 575.5 c 128,-1,8
 358 561 358 561 358 526 c 0,9,10
 358 492 358 492 341 476.5 c 128,-1,11
 324 461 324 461 300 461 c 0,0,1
77 312 m 1,12,-1
 77 393 l 1,13,-1
 523 393 l 1,14,-1
 523 312 l 1,15,-1
 77 312 l 1,12,-1
300 114 m 0,16,17
 274 114 274 114 257 129.5 c 128,-1,18
 240 145 240 145 240 179 c 0,19,20
 240 214 240 214 257 229 c 128,-1,21
 274 244 274 244 300 244 c 0,22,23
 325 244 325 244 341.5 229 c 128,-1,24
 358 214 358 214 358 179 c 0,25,26
 358 145 358 145 341 129.5 c 128,-1,27
 324 114 324 114 300 114 c 0,16,17
EndSplineSet
EndChar

StartChar: oslash
Encoding: 248 248 186
Width: 600
GlyphClass: 2
Flags: W
AnchorPoint: "Anchor-4" 580 539 basechar 0
AnchorPoint: "Anchor-3" 300 539 basechar 0
AnchorPoint: "Anchor-2" 302 10 basechar 0
AnchorPoint: "Anchor-1" 300 269 basechar 0
AnchorPoint: "Anchor-0" 300 0 basechar 0
LayerCount: 2
Fore
SplineSet
136 -34 m 1,0,-1
 74 8 l 1,1,-1
 116 67 l 1,2,3
 85 102 85 102 68 153 c 128,-1,4
 51 204 51 204 51 270 c 0,5,6
 51 361 51 361 82.5 423 c 128,-1,7
 114 485 114 485 170 517 c 128,-1,8
 226 549 226 549 299 549 c 0,9,10
 374 549 374 549 431 516 c 1,11,-1
 468 569 l 1,12,-1
 532 527 l 1,13,-1
 489 466 l 1,14,15
 518 432 518 432 533.5 382.5 c 128,-1,16
 549 333 549 333 549 269 c 0,17,18
 549 178 549 178 518 116 c 128,-1,19
 487 54 487 54 431 22 c 128,-1,20
 375 -10 375 -10 301 -10 c 0,21,22
 229 -10 229 -10 174 20 c 1,23,-1
 136 -34 l 1,0,-1
157 270 m 0,24,25
 157 202 157 202 178 156 c 1,26,-1
 378 441 l 1,27,28
 346 463 346 463 300 463 c 0,29,30
 228 463 228 463 192.5 411.5 c 128,-1,31
 157 360 157 360 157 270 c 0,24,25
301 76 m 0,32,33
 372 76 372 76 407 128 c 128,-1,34
 442 180 442 180 442 270 c 0,35,36
 442 332 442 332 425 376 c 1,37,-1
 227 96 l 1,38,39
 258 76 258 76 301 76 c 0,32,33
EndSplineSet
Substitution2: "'smcp' Lowercase to Small Capitals lookup 33 subtable" oslash.sc
Substitution2: "'aalt' Access All Alternates lookup 0 subtable" oslash.sc
EndChar

StartChar: thorn
Encoding: 254 254 192
Width: 600
GlyphClass: 2
Flags: W
AnchorPoint: "Anchor-3" 323 760 basechar 0
AnchorPoint: "Anchor-0" 323 -240 basechar 0
LayerCount: 2
Fore
SplineSet
73 -240 m 1,0,-1
 73 760 l 1,1,-1
 177 760 l 1,2,-1
 177 555 l 2,3,4
 177 533 177 533 176 511 c 128,-1,5
 175 489 175 489 173 467 c 1,6,-1
 177 467 l 1,7,8
 201 506 201 506 241 527.5 c 128,-1,9
 281 549 281 549 338 549 c 0,10,11
 438 549 438 549 493.5 475 c 128,-1,12
 549 401 549 401 549 270 c 0,13,14
 549 134 549 134 491.5 62 c 128,-1,15
 434 -10 434 -10 336 -10 c 0,16,17
 281 -10 281 -10 241.5 12 c 128,-1,18
 202 34 202 34 177 66 c 1,19,-1
 171 66 l 1,20,21
 175 43 175 43 176 22.5 c 128,-1,22
 177 2 177 2 177 -13 c 2,23,-1
 177 -240 l 1,24,-1
 73 -240 l 1,0,-1
309 77 m 0,25,26
 378 77 378 77 409 125 c 128,-1,27
 440 173 440 173 440 272 c 0,28,29
 440 368 440 368 409 415 c 128,-1,30
 378 462 378 462 308 462 c 0,31,32
 241 462 241 462 209 417.5 c 128,-1,33
 177 373 177 373 177 290 c 2,34,-1
 177 271 l 2,35,36
 177 179 177 179 207 128 c 128,-1,37
 237 77 237 77 309 77 c 0,25,26
EndSplineSet
Substitution2: "'smcp' Lowercase to Small Capitals lookup 33 subtable" thorn.sc
Substitution2: "'aalt' Access All Alternates lookup 0 subtable" thorn.sc
EndChar

StartChar: dcaron
Encoding: 271 271 209
Width: 600
GlyphClass: 2
Flags: W
AnchorPoint: "Anchor-4" 562 760 basechar 0
AnchorPoint: "Anchor-3" 313 760 basechar 0
AnchorPoint: "Anchor-1" 255 269 basechar 0
AnchorPoint: "Anchor-0" 282 0 basechar 0
LayerCount: 2
Fore
SplineSet
235 -10 m 0,0,1
 143 -10 143 -10 92 63 c 128,-1,2
 41 136 41 136 41 271 c 0,3,4
 41 402 41 402 91 475.5 c 128,-1,5
 141 549 141 549 241 549 c 0,6,7
 296 549 296 549 328 527.5 c 128,-1,8
 360 506 360 506 382 470 c 1,9,-1
 387 470 l 1,10,11
 384 492 384 492 382 515 c 128,-1,12
 380 538 380 538 380 564 c 2,13,-1
 380 760 l 1,14,-1
 484 760 l 1,15,-1
 484 0 l 1,16,-1
 400 0 l 1,17,-1
 384 72 l 1,18,-1
 379 72 l 1,19,20
 356 34 356 34 321 12 c 128,-1,21
 286 -10 286 -10 235 -10 c 0,0,1
521 600 m 1,22,-1
 521 612 l 1,23,24
 527 631 527 631 533.5 657.5 c 128,-1,25
 540 684 540 684 545 711 c 128,-1,26
 550 738 550 738 553 760 c 1,27,-1
 653 760 l 1,28,-1
 653 751 l 1,29,30
 644 722 644 722 623 678 c 128,-1,31
 602 634 602 634 579 600 c 1,32,-1
 521 600 l 1,22,-1
263 77 m 0,33,34
 323 77 323 77 353 122.5 c 128,-1,35
 383 168 383 168 383 249 c 2,36,-1
 383 268 l 2,37,38
 383 324 383 324 372 368 c 128,-1,39
 361 412 361 412 335.5 437 c 128,-1,40
 310 462 310 462 266 462 c 0,41,42
 206 462 206 462 177.5 412.5 c 128,-1,43
 149 363 149 363 149 267 c 0,44,45
 149 170 149 170 177 123.5 c 128,-1,46
 205 77 205 77 263 77 c 0,33,34
EndSplineSet
Substitution2: "'smcp' Lowercase to Small Capitals lookup 33 subtable" dcaron.sc
Substitution2: "'aalt' Access All Alternates lookup 0 subtable" dcaron.sc
EndChar

StartChar: dcroat
Encoding: 273 273 211
Width: 600
GlyphClass: 2
Flags: W
AnchorPoint: "Anchor-4" 580 760 basechar 0
AnchorPoint: "Anchor-3" 300 760 basechar 0
AnchorPoint: "Anchor-1" 300 269 basechar 0
AnchorPoint: "Anchor-0" 300 0 basechar 0
LayerCount: 2
Fore
SplineSet
265 -10 m 0,0,1
 164 -10 164 -10 107.5 62 c 128,-1,2
 51 134 51 134 51 269 c 0,3,4
 51 397 51 397 106 469.5 c 128,-1,5
 161 542 161 542 275 542 c 0,6,7
 330 542 330 542 366.5 520.5 c 128,-1,8
 403 499 403 499 425 464 c 1,9,-1
 430 464 l 1,10,11
 427 486 427 486 425 509 c 128,-1,12
 423 532 423 532 423 558 c 2,13,-1
 423 599 l 1,14,-1
 256 599 l 1,15,-1
 256 673 l 1,16,-1
 423 673 l 1,17,-1
 423 760 l 1,18,-1
 527 760 l 1,19,-1
 527 673 l 1,20,-1
 600 673 l 1,21,-1
 600 599 l 1,22,-1
 527 599 l 1,23,-1
 527 0 l 1,24,-1
 443 0 l 1,25,-1
 427 72 l 1,26,-1
 422 72 l 1,27,28
 399 34 399 34 360.5 12 c 128,-1,29
 322 -10 322 -10 265 -10 c 0,0,1
294 77 m 0,30,31
 361 77 361 77 393.5 121.5 c 128,-1,32
 426 166 426 166 426 246 c 2,33,-1
 426 265 l 2,34,35
 426 320 426 320 414 363 c 128,-1,36
 402 406 402 406 374 431 c 128,-1,37
 346 456 346 456 297 456 c 0,38,39
 159 456 159 456 159 261 c 0,40,41
 159 77 159 77 294 77 c 0,30,31
EndSplineSet
Substitution2: "'smcp' Lowercase to Small Capitals lookup 33 subtable" dcroat.sc
Substitution2: "'aalt' Access All Alternates lookup 0 subtable" dcroat.sc
EndChar

StartChar: eogonek
Encoding: 281 281 219
Width: 600
GlyphClass: 2
Flags: W
AnchorPoint: "Anchor-4" 580 539 basechar 0
AnchorPoint: "Anchor-3" 300 539 basechar 0
AnchorPoint: "Anchor-2" 307 10 basechar 0
AnchorPoint: "Anchor-0" 320 -225 basechar 0
LayerCount: 2
Fore
SplineSet
341 -10 m 0,0,1
 208 -10 208 -10 132.5 62 c 128,-1,2
 57 134 57 134 57 269 c 0,3,4
 57 356 57 356 88.5 418.5 c 128,-1,5
 120 481 120 481 177 515 c 128,-1,6
 234 549 234 549 312 549 c 0,7,8
 420 549 420 549 481.5 481.5 c 128,-1,9
 543 414 543 414 543 295 c 2,10,-1
 543 245 l 1,11,-1
 163 245 l 1,12,13
 166 154 166 154 217 115.5 c 128,-1,14
 268 77 268 77 348 77 c 0,15,16
 390 77 390 77 433 88.5 c 128,-1,17
 476 100 476 100 521 119 c 1,18,-1
 521 28 l 1,19,20
 478 -3 478 -3 449 -35.5 c 128,-1,21
 420 -68 420 -68 420 -108 c 0,22,23
 420 -157 420 -157 469 -157 c 0,24,25
 479 -157 479 -157 491 -155.5 c 128,-1,26
 503 -154 503 -154 511 -151 c 1,27,-1
 511 -215 l 1,28,29
 497 -220 497 -220 482 -222.5 c 128,-1,30
 467 -225 467 -225 449 -225 c 0,31,32
 393 -225 393 -225 366 -196.5 c 128,-1,33
 339 -168 339 -168 339 -125 c 0,34,35
 339 -87 339 -87 357 -58 c 128,-1,36
 375 -29 375 -29 401 -6 c 1,37,38
 371 -10 371 -10 341 -10 c 0,0,1
165 325 m 1,39,-1
 441 325 l 1,40,41
 439 390 439 390 405.5 427.5 c 128,-1,42
 372 465 372 465 313 465 c 0,43,44
 252 465 252 465 213 427.5 c 128,-1,45
 174 390 174 390 165 325 c 1,39,-1
EndSplineSet
Substitution2: "'smcp' Lowercase to Small Capitals lookup 33 subtable" eogonek.sc
Substitution2: "'locl' Localized Forms in Latin lookup 11 subtable" eogonek.loclNAV
Ligature2: "'ccmp' Glyph Composition/Decomposition lookup 6 subtable" e uni0328
AlternateSubs2: "'aalt' Access All Alternates lookup 1 subtable" eogonek.loclNAV eogonek.sc
EndChar

StartChar: Hbar
Encoding: 294 294 232
Width: 600
GlyphClass: 2
Flags: W
AnchorPoint: "Anchor-3" 300 714 basechar 0
AnchorPoint: "Anchor-1" 300 357 basechar 0
AnchorPoint: "Anchor-0" 300 0 basechar 0
LayerCount: 2
Fore
SplineSet
66 0 m 1,0,-1
 66 523 l 1,1,-1
 0 523 l 1,2,-1
 0 601 l 1,3,-1
 66 601 l 1,4,-1
 66 714 l 1,5,-1
 172 714 l 1,6,-1
 172 601 l 1,7,-1
 428 601 l 1,8,-1
 428 714 l 1,9,-1
 534 714 l 1,10,-1
 534 601 l 1,11,-1
 600 601 l 1,12,-1
 600 523 l 1,13,-1
 534 523 l 1,14,-1
 534 0 l 1,15,-1
 428 0 l 1,16,-1
 428 326 l 1,17,-1
 172 326 l 1,18,-1
 172 0 l 1,19,-1
 66 0 l 1,0,-1
172 419 m 1,20,-1
 428 419 l 1,21,-1
 428 523 l 1,22,-1
 172 523 l 1,23,-1
 172 419 l 1,20,-1
EndSplineSet
Substitution2: "'c2sc' Capitals to Small Capitals lookup 32 subtable" hbar.sc
Substitution2: "'aalt' Access All Alternates lookup 0 subtable" hbar.sc
EndChar

StartChar: hbar
Encoding: 295 295 233
Width: 600
GlyphClass: 2
Flags: W
AnchorPoint: "Anchor-3" 127 760 basechar 0
AnchorPoint: "Anchor-1" 300 269 basechar 0
AnchorPoint: "Anchor-0" 300 0 basechar 0
LayerCount: 2
Fore
SplineSet
73 0 m 1,0,-1
 73 599 l 1,1,-1
 0 599 l 1,2,-1
 0 673 l 1,3,-1
 73 673 l 1,4,-1
 73 760 l 1,5,-1
 179 760 l 1,6,-1
 179 673 l 1,7,-1
 347 673 l 1,8,-1
 347 599 l 1,9,-1
 179 599 l 1,10,-1
 179 559 l 2,11,12
 179 536 179 536 177.5 506.5 c 128,-1,13
 176 477 176 477 175 455 c 1,14,-1
 181 455 l 1,15,16
 206 502 206 502 248 524 c 128,-1,17
 290 546 290 546 345 546 c 0,18,19
 430 546 430 546 481 498 c 128,-1,20
 532 450 532 450 532 349 c 2,21,-1
 532 0 l 1,22,-1
 426 0 l 1,23,-1
 426 325 l 2,24,25
 426 396 426 396 397 427.5 c 128,-1,26
 368 459 368 459 315 459 c 0,27,28
 250 459 250 459 214.5 410.5 c 128,-1,29
 179 362 179 362 179 269 c 2,30,-1
 179 0 l 1,31,-1
 73 0 l 1,0,-1
EndSplineSet
Substitution2: "'smcp' Lowercase to Small Capitals lookup 33 subtable" hbar.sc
Substitution2: "'aalt' Access All Alternates lookup 0 subtable" hbar.sc
EndChar

StartChar: IJ
Encoding: 306 306 243
Width: 600
GlyphClass: 2
LigCaretCntFixed: 1
Flags: W
AnchorPoint: "Anchor-3" 300 714 basechar 0
AnchorPoint: "Anchor-0" 300 0 basechar 0
LayerCount: 2
Fore
SplineSet
265 -10 m 0,0,1
 222 -10 222 -10 174 -3 c 128,-1,2
 126 4 126 4 97 17 c 1,3,-1
 97 113 l 1,4,5
 127 103 127 103 171.5 94.5 c 128,-1,6
 216 86 216 86 257 86 c 0,7,8
 324 86 324 86 361.5 120 c 128,-1,9
 399 154 399 154 399 234 c 2,10,-1
 399 714 l 1,11,-1
 504 714 l 1,12,-1
 504 226 l 2,13,14
 504 112 504 112 444.5 51 c 128,-1,15
 385 -10 385 -10 265 -10 c 0,0,1
96 205 m 1,16,-1
 96 714 l 1,17,-1
 200 714 l 1,18,-1
 200 205 l 1,19,-1
 96 205 l 1,16,-1
EndSplineSet
Substitution2: "'c2sc' Capitals to Small Capitals lookup 32 subtable" ij.sc
Substitution2: "'aalt' Access All Alternates lookup 0 subtable" ij.sc
LCarets2: 1 0
EndChar

StartChar: ij
Encoding: 307 307 244
Width: 600
GlyphClass: 2
LigCaretCntFixed: 1
Flags: W
AnchorPoint: "Anchor-3" 300 765 basechar 0
AnchorPoint: "Anchor-0" 306 -245 basechar 0
LayerCount: 2
Fore
SplineSet
163 626 m 256,0,1
 132 626 132 626 112.5 643.5 c 128,-1,2
 93 661 93 661 93 696 c 0,3,4
 93 730 93 730 112 747.5 c 128,-1,5
 131 765 131 765 163 765 c 0,6,7
 194 765 194 765 214 747.5 c 128,-1,8
 234 730 234 730 234 696 c 0,9,10
 234 661 234 661 214 643.5 c 128,-1,11
 194 626 194 626 163 626 c 256,0,1
436 626 m 256,12,13
 405 626 405 626 386 643.5 c 128,-1,14
 367 661 367 661 367 696 c 0,15,16
 367 730 367 730 386 747.5 c 128,-1,17
 405 765 405 765 437 765 c 0,18,19
 468 765 468 765 487.5 747.5 c 128,-1,20
 507 730 507 730 507 696 c 0,21,22
 507 661 507 661 487 643.5 c 128,-1,23
 467 626 467 626 436 626 c 256,12,13
272 -245 m 0,24,25
 238 -245 238 -245 198 -240 c 128,-1,26
 158 -235 158 -235 127 -227 c 1,27,-1
 127 -135 l 1,28,29
 158 -144 158 -144 194 -149.5 c 128,-1,30
 230 -155 230 -155 260 -155 c 0,31,32
 328 -155 328 -155 357.5 -123.5 c 128,-1,33
 387 -92 387 -92 387 -23 c 2,34,-1
 387 539 l 1,35,-1
 493 539 l 1,36,-1
 493 -42 l 2,37,38
 493 -142 493 -142 436.5 -193.5 c 128,-1,39
 380 -245 380 -245 272 -245 c 0,24,25
109 0 m 1,40,-1
 109 539 l 1,41,-1
 215 539 l 1,42,-1
 215 0 l 1,43,-1
 109 0 l 1,40,-1
EndSplineSet
Substitution2: "'smcp' Lowercase to Small Capitals lookup 33 subtable" ij.sc
Substitution2: "'aalt' Access All Alternates lookup 0 subtable" ij.sc
LCarets2: 1 0
EndChar

StartChar: kgreenlandic
Encoding: 312 312 249
Width: 600
GlyphClass: 2
Flags: W
AnchorPoint: "Anchor-3" 300 539 basechar 0
AnchorPoint: "Anchor-0" 300 0 basechar 0
LayerCount: 2
Fore
SplineSet
92 0 m 1,0,-1
 92 539 l 1,1,-1
 198 539 l 1,2,-1
 198 398 l 2,3,4
 198 367 198 367 195.5 329.5 c 128,-1,5
 193 292 193 292 191 258 c 1,6,-1
 193 258 l 1,7,8
 210 282 210 282 227 303 c 128,-1,9
 244 324 244 324 264 346 c 2,10,-1
 435 539 l 1,11,-1
 561 539 l 1,12,-1
 352 309 l 1,13,-1
 574 0 l 1,14,-1
 455 0 l 1,15,-1
 283 245 l 1,16,-1
 198 167 l 1,17,-1
 198 0 l 1,18,-1
 92 0 l 1,0,-1
EndSplineSet
EndChar

StartChar: Lslash
Encoding: 321 321 258
Width: 600
GlyphClass: 2
Flags: W
AnchorPoint: "Anchor-4" 488 714 basechar 0
AnchorPoint: "Anchor-3" 203 714 basechar 0
AnchorPoint: "Anchor-1" 340 357 basechar 0
AnchorPoint: "Anchor-0" 364 0 basechar 0
LayerCount: 2
Fore
SplineSet
148 0 m 1,0,-1
 148 249 l 1,1,-1
 90 215 l 1,2,-1
 50 285 l 1,3,-1
 148 343 l 1,4,-1
 148 714 l 1,5,-1
 254 714 l 1,6,-1
 254 406 l 1,7,-1
 361 470 l 1,8,-1
 402 398 l 1,9,-1
 254 311 l 1,10,-1
 254 96 l 1,11,-1
 559 96 l 1,12,-1
 559 0 l 1,13,-1
 148 0 l 1,0,-1
EndSplineSet
Substitution2: "'c2sc' Capitals to Small Capitals lookup 32 subtable" lslash.sc
Substitution2: "'aalt' Access All Alternates lookup 0 subtable" lslash.sc
EndChar

StartChar: lslash
Encoding: 322 322 259
Width: 600
GlyphClass: 2
Flags: W
AnchorPoint: "Anchor-4" 494 760 basechar 0
AnchorPoint: "Anchor-3" 300 760 basechar 0
AnchorPoint: "Anchor-1" 320 384 basechar 0
AnchorPoint: "Anchor-0" 300 0 basechar 0
LayerCount: 2
Fore
SplineSet
74 0 m 1,0,-1
 74 69 l 1,1,-1
 265 88 l 1,2,-1
 265 283 l 1,3,-1
 177 229 l 1,4,-1
 136 297 l 1,5,-1
 265 377 l 1,6,-1
 265 672 l 1,7,-1
 89 690 l 1,8,-1
 89 760 l 1,9,-1
 372 760 l 1,10,-1
 372 443 l 1,11,-1
 451 492 l 1,12,-1
 493 424 l 1,13,-1
 372 349 l 1,14,-1
 372 88 l 1,15,-1
 543 69 l 1,16,-1
 543 0 l 1,17,-1
 74 0 l 1,0,-1
EndSplineSet
Substitution2: "'smcp' Lowercase to Small Capitals lookup 33 subtable" lslash.sc
Substitution2: "'aalt' Access All Alternates lookup 0 subtable" lslash.sc
EndChar

StartChar: napostrophe
Encoding: 329 329 266
Width: 600
GlyphClass: 2
Flags: W
AnchorPoint: "Anchor-3" 311 539 basechar 0
AnchorPoint: "Anchor-0" 311 0 basechar 0
LayerCount: 2
Fore
SplineSet
-69 469 m 1,0,1
 -54 532 -54 532 -41 597.5 c 128,-1,2
 -28 663 -28 663 -20 714 c 1,3,-1
 93 714 l 1,4,-1
 100 703 l 1,5,6
 87 651 87 651 63.5 589.5 c 128,-1,7
 40 528 40 528 14 469 c 1,8,-1
 -69 469 l 1,0,1
86 0 m 1,9,-1
 86 539 l 1,10,-1
 169 539 l 1,11,-1
 186 463 l 1,12,-1
 191 463 l 1,13,14
 215 506 215 506 257 527.5 c 128,-1,15
 299 549 299 549 355 549 c 0,16,17
 437 549 437 549 484.5 501.5 c 128,-1,18
 532 454 532 454 532 357 c 2,19,-1
 532 0 l 1,20,-1
 426 0 l 1,21,-1
 426 335 l 2,22,23
 426 400 426 400 399 431 c 128,-1,24
 372 462 372 462 322 462 c 0,25,26
 253 462 253 462 222.5 411.5 c 128,-1,27
 192 361 192 361 192 270 c 2,28,-1
 192 0 l 1,29,-1
 86 0 l 1,9,-1
EndSplineSet
EndChar

StartChar: Eng
Encoding: 330 330 267
Width: 600
GlyphClass: 2
Flags: W
AnchorPoint: "Anchor-4" 600 714 basechar 0
AnchorPoint: "Anchor-3" 305 714 basechar 0
AnchorPoint: "Anchor-0" 305 -195 basechar 0
LayerCount: 2
Fore
SplineSet
63 0 m 1,0,-1
 63 714 l 1,1,-1
 205 714 l 1,2,-1
 443 125 l 1,3,-1
 446 125 l 1,4,5
 442 186 442 186 440 238 c 128,-1,6
 438 290 438 290 438 342 c 2,7,-1
 438 714 l 1,8,-1
 537 714 l 1,9,-1
 537 0 l 1,10,-1
 537 0 l 1,11,12
 536 -100 536 -100 482 -147.5 c 128,-1,13
 428 -195 428 -195 338 -195 c 0,14,15
 312 -195 312 -195 292 -191.5 c 128,-1,16
 272 -188 272 -188 258 -183 c 1,17,-1
 258 -99 l 1,18,19
 274 -103 274 -103 293.5 -106 c 128,-1,20
 313 -109 313 -109 332 -109 c 0,21,22
 378 -109 378 -109 410.5 -85.5 c 128,-1,23
 443 -62 443 -62 443 0 c 1,24,-1
 402 0 l 1,25,-1
 154 610 l 1,26,-1
 150 610 l 1,27,28
 154 549 154 549 158 491.5 c 128,-1,29
 162 434 162 434 162 386 c 2,30,-1
 162 0 l 1,31,-1
 63 0 l 1,0,-1
EndSplineSet
Substitution2: "'c2sc' Capitals to Small Capitals lookup 32 subtable" eng.sc
AlternateSubs2: "'aalt' Access All Alternates lookup 1 subtable" Eng.alt1 Eng.alt2 Eng.alt3 eng.sc
EndChar

StartChar: eng
Encoding: 331 331 268
Width: 600
GlyphClass: 2
Flags: W
AnchorPoint: "Anchor-4" 580 539 basechar 0
AnchorPoint: "Anchor-3" 310 539 basechar 0
AnchorPoint: "Anchor-0" 310 -240 basechar 0
LayerCount: 2
Fore
SplineSet
73 0 m 1,0,-1
 73 539 l 1,1,-1
 156 539 l 1,2,-1
 172 463 l 1,3,-1
 178 463 l 1,4,5
 202 506 202 506 246.5 527.5 c 128,-1,6
 291 549 291 549 350 549 c 0,7,8
 434 549 434 549 483 501.5 c 128,-1,9
 532 454 532 454 532 357 c 2,10,-1
 532 -74 l 2,11,12
 532 -149 532 -149 495 -194.5 c 128,-1,13
 458 -240 458 -240 378 -240 c 0,14,15
 355 -240 355 -240 335.5 -236.5 c 128,-1,16
 316 -233 316 -233 302 -228 c 1,17,-1
 302 -145 l 1,18,19
 316 -150 316 -150 330 -152.5 c 128,-1,20
 344 -155 344 -155 360 -155 c 0,21,22
 388 -155 388 -155 407 -137.5 c 128,-1,23
 426 -120 426 -120 426 -71 c 2,24,-1
 426 335 l 2,25,26
 426 400 426 400 399.5 431 c 128,-1,27
 373 462 373 462 317 462 c 0,28,29
 242 462 242 462 210.5 411 c 128,-1,30
 179 360 179 360 179 270 c 2,31,-1
 179 0 l 1,32,-1
 73 0 l 1,0,-1
EndSplineSet
Substitution2: "'smcp' Lowercase to Small Capitals lookup 33 subtable" eng.sc
Substitution2: "'aalt' Access All Alternates lookup 0 subtable" eng.sc
EndChar

StartChar: OE
Encoding: 338 338 275
Width: 600
GlyphClass: 2
Flags: W
AnchorPoint: "Anchor-3" 300 714 basechar 0
AnchorPoint: "Anchor-0" 300 0 basechar 0
LayerCount: 2
Fore
SplineSet
244 -10 m 0,0,1
 170 -10 170 -10 124.5 36 c 128,-1,2
 79 82 79 82 58 165 c 128,-1,3
 37 248 37 248 37 359 c 256,4,5
 37 470 37 470 59 552 c 128,-1,6
 81 634 81 634 128.5 679 c 128,-1,7
 176 724 176 724 253 724 c 0,8,9
 271 724 271 724 289.5 722 c 128,-1,10
 308 720 308 720 328 714 c 1,11,-1
 573 714 l 1,12,-1
 573 621 l 1,13,-1
 411 621 l 1,14,-1
 411 419 l 1,15,-1
 554 419 l 1,16,-1
 554 327 l 1,17,-1
 411 327 l 1,18,-1
 411 93 l 1,19,-1
 573 93 l 1,20,-1
 573 0 l 1,21,-1
 316 0 l 1,22,23
 299 -4 299 -4 281 -7 c 128,-1,24
 263 -10 263 -10 244 -10 c 0,0,1
251 84 m 0,25,26
 284 84 284 84 309 98 c 1,27,-1
 309 617 l 1,28,29
 298 624 298 624 283.5 627.5 c 128,-1,30
 269 631 269 631 253 631 c 0,31,32
 195 631 195 631 169.5 559.5 c 128,-1,33
 144 488 144 488 144 358 c 256,34,35
 144 228 144 228 168 156 c 128,-1,36
 192 84 192 84 251 84 c 0,25,26
EndSplineSet
Substitution2: "'c2sc' Capitals to Small Capitals lookup 32 subtable" oe.sc
Substitution2: "'aalt' Access All Alternates lookup 0 subtable" oe.sc
EndChar

StartChar: oe
Encoding: 339 339 276
Width: 600
GlyphClass: 2
Flags: W
AnchorPoint: "Anchor-3" 300 539 basechar 0
AnchorPoint: "Anchor-0" 300 0 basechar 0
LayerCount: 2
Fore
SplineSet
190 -10 m 0,0,1
 108 -10 108 -10 64.5 65.5 c 128,-1,2
 21 141 21 141 21 274 c 0,3,4
 21 404 21 404 63.5 476.5 c 128,-1,5
 106 549 106 549 190 549 c 0,6,7
 236 549 236 549 266 526.5 c 128,-1,8
 296 504 296 504 317 459 c 1,9,10
 356 548 356 548 437 548 c 0,11,12
 488 548 488 548 520 517 c 128,-1,13
 552 486 552 486 567.5 432 c 128,-1,14
 583 378 583 378 583 309 c 2,15,-1
 583 249 l 1,16,-1
 361 249 l 1,17,18
 362 152 362 152 386.5 109.5 c 128,-1,19
 411 67 411 67 460 67 c 0,20,21
 506 67 506 67 565 104 c 1,22,-1
 565 25 l 1,23,24
 507 -10 507 -10 449 -10 c 0,25,26
 404 -10 404 -10 372 11.5 c 128,-1,27
 340 33 340 33 318 82 c 1,28,29
 277 -10 277 -10 190 -10 c 0,0,1
361 320 m 1,30,-1
 499 320 l 1,31,32
 499 385 499 385 484 429 c 128,-1,33
 469 473 469 473 434 473 c 0,34,35
 404 473 404 473 383.5 435.5 c 128,-1,36
 363 398 363 398 361 320 c 1,30,-1
193 70 m 0,37,38
 233 70 233 70 252 119 c 128,-1,39
 271 168 271 168 271 269 c 0,40,41
 271 368 271 368 252 418.5 c 128,-1,42
 233 469 233 469 192 469 c 0,43,44
 150 469 150 469 131 419 c 128,-1,45
 112 369 112 369 112 271 c 0,46,47
 112 168 112 168 132 119 c 128,-1,48
 152 70 152 70 193 70 c 0,37,38
EndSplineSet
Substitution2: "'smcp' Lowercase to Small Capitals lookup 33 subtable" oe.sc
Substitution2: "'aalt' Access All Alternates lookup 0 subtable" oe.sc
EndChar

StartChar: Tbar
Encoding: 358 358 295
Width: 600
GlyphClass: 2
Flags: W
AnchorPoint: "Anchor-4" 580 714 basechar 0
AnchorPoint: "Anchor-3" 300 714 basechar 0
AnchorPoint: "Anchor-1" 300 357 basechar 0
AnchorPoint: "Anchor-0" 300 0 basechar 0
LayerCount: 2
Fore
SplineSet
247 0 m 1,0,-1
 247 316 l 1,1,-1
 106 316 l 1,2,-1
 106 403 l 1,3,-1
 247 403 l 1,4,-1
 247 621 l 1,5,-1
 41 621 l 1,6,-1
 41 714 l 1,7,-1
 559 714 l 1,8,-1
 559 621 l 1,9,-1
 353 621 l 1,10,-1
 353 403 l 1,11,-1
 495 403 l 1,12,-1
 495 316 l 1,13,-1
 353 316 l 1,14,-1
 353 0 l 1,15,-1
 247 0 l 1,0,-1
EndSplineSet
Substitution2: "'c2sc' Capitals to Small Capitals lookup 32 subtable" tbar.sc
Substitution2: "'aalt' Access All Alternates lookup 0 subtable" tbar.sc
EndChar

StartChar: tbar
Encoding: 359 359 296
Width: 600
GlyphClass: 2
Flags: W
AnchorPoint: "Anchor-4" 580 680 basechar 0
AnchorPoint: "Anchor-3" 259 680 basechar 0
AnchorPoint: "Anchor-1" 255 269 basechar 0
AnchorPoint: "Anchor-0" 323 0 basechar 0
LayerCount: 2
Fore
SplineSet
55 270 m 1,0,-1
 55 345 l 1,1,-1
 195 345 l 1,2,-1
 195 451 l 1,3,-1
 55 451 l 1,4,-1
 55 521 l 1,5,-1
 198 541 l 1,6,-1
 218 680 l 1,7,-1
 301 680 l 1,8,-1
 301 539 l 1,9,-1
 509 539 l 1,10,-1
 509 451 l 1,11,-1
 301 451 l 1,12,-1
 301 345 l 1,13,-1
 521 345 l 1,14,-1
 521 270 l 1,15,-1
 301 270 l 1,16,-1
 301 187 l 2,17,18
 301 127 301 127 328.5 102 c 128,-1,19
 356 77 356 77 411 77 c 0,20,21
 436 77 436 77 465 81.5 c 128,-1,22
 494 86 494 86 521 92 c 1,23,-1
 521 8 l 1,24,25
 493 0 493 0 462 -5 c 128,-1,26
 431 -10 431 -10 399 -10 c 0,27,28
 338 -10 338 -10 292 6.5 c 128,-1,29
 246 23 246 23 220.5 62.5 c 128,-1,30
 195 102 195 102 195 170 c 2,31,-1
 195 270 l 1,32,-1
 55 270 l 1,0,-1
EndSplineSet
Substitution2: "'smcp' Lowercase to Small Capitals lookup 33 subtable" tbar.sc
Substitution2: "'aalt' Access All Alternates lookup 0 subtable" tbar.sc
EndChar

StartChar: Uogonek
Encoding: 370 370 307
Width: 600
GlyphClass: 2
Flags: W
AnchorPoint: "Anchor-4" 580 714 basechar 0
AnchorPoint: "Anchor-3" 300 714 basechar 0
AnchorPoint: "Anchor-2" 540 10 basechar 0
AnchorPoint: "Anchor-0" 330 -225 basechar 0
LayerCount: 2
Fore
SplineSet
336 -225 m 0,0,1
 280 -225 280 -225 253.5 -196.5 c 128,-1,2
 227 -168 227 -168 227 -124 c 0,3,4
 227 -90 227 -90 246 -61.5 c 128,-1,5
 265 -33 265 -33 295 -10 c 1,6,7
 173 -9 173 -9 118 61 c 128,-1,8
 63 131 63 131 63 251 c 2,9,-1
 63 714 l 1,10,-1
 169 714 l 1,11,-1
 169 262 l 2,12,13
 169 177 169 177 197.5 130 c 128,-1,14
 226 83 226 83 300 83 c 0,15,16
 352 83 352 83 380 105.5 c 128,-1,17
 408 128 408 128 419.5 168.5 c 128,-1,18
 431 209 431 209 431 263 c 2,19,-1
 431 714 l 1,20,-1
 537 714 l 1,21,-1
 537 250 l 2,22,23
 537 169 537 169 509.5 107 c 128,-1,24
 482 45 482 45 420 15 c 1,25,26
 366 -17 366 -17 337 -47.5 c 128,-1,27
 308 -78 308 -78 308 -112 c 0,28,29
 308 -157 308 -157 357 -157 c 0,30,31
 368 -157 368 -157 379.5 -155.5 c 128,-1,32
 391 -154 391 -154 399 -151 c 1,33,-1
 399 -215 l 1,34,35
 386 -220 386 -220 370.5 -222.5 c 128,-1,36
 355 -225 355 -225 336 -225 c 0,0,1
EndSplineSet
Substitution2: "'c2sc' Capitals to Small Capitals lookup 32 subtable" uogonek.sc
Substitution2: "'locl' Localized Forms in Latin lookup 11 subtable" Uogonek.loclNAV
Ligature2: "'ccmp' Glyph Composition/Decomposition lookup 6 subtable" U uni0328
AlternateSubs2: "'aalt' Access All Alternates lookup 1 subtable" Uogonek.loclNAV uogonek.sc
EndChar

StartChar: longs
Encoding: 383 383 320
Width: 600
GlyphClass: 2
Flags: W
AnchorPoint: "Anchor-3" 400 765 basechar 0
AnchorPoint: "Anchor-0" 300 0 basechar 0
LayerCount: 2
Fore
SplineSet
215 0 m 1,0,-1
 215 579 l 2,1,2
 215 648 215 648 239.5 689 c 128,-1,3
 264 730 264 730 309 747.5 c 128,-1,4
 354 765 354 765 415 765 c 0,5,6
 456 765 456 765 488 758.5 c 128,-1,7
 520 752 520 752 540 745 c 1,8,-1
 514 663 l 1,9,10
 498 668 498 668 472 673 c 128,-1,11
 446 678 446 678 420 678 c 0,12,13
 370 678 370 678 344.5 653 c 128,-1,14
 319 628 319 628 319 566 c 2,15,-1
 319 0 l 1,16,-1
 215 0 l 1,0,-1
EndSplineSet
EndChar

StartChar: florin
Encoding: 402 402 321
Width: 600
GlyphClass: 2
Flags: W
AnchorPoint: "Anchor-3" 378 724 basechar 0
AnchorPoint: "Anchor-0" 276 -241 basechar 0
LayerCount: 2
Fore
SplineSet
182 -241 m 0,0,1
 158 -241 158 -241 134.5 -238.5 c 128,-1,2
 111 -236 111 -236 97 -232 c 1,3,-1
 97 -147 l 1,4,5
 112 -151 112 -151 131 -153.5 c 128,-1,6
 150 -156 150 -156 167 -156 c 0,7,8
 200 -156 200 -156 216 -135.5 c 128,-1,9
 232 -115 232 -115 232 -60 c 2,10,-1
 232 401 l 1,11,-1
 118 401 l 1,12,-1
 118 453 l 1,13,-1
 232 484 l 1,14,-1
 232 540 l 2,15,16
 232 644 232 644 279 684 c 128,-1,17
 326 724 326 724 411 724 c 0,18,19
 451 724 451 724 481.5 717 c 128,-1,20
 512 710 512 710 533 702 c 1,21,-1
 508 624 l 1,22,23
 492 629 492 629 469.5 634 c 128,-1,24
 447 639 447 639 422 639 c 0,25,26
 377 639 377 639 356 617 c 128,-1,27
 335 595 335 595 335 541 c 2,28,-1
 335 481 l 1,29,-1
 472 481 l 1,30,-1
 472 401 l 1,31,-1
 336 401 l 1,32,-1
 336 -61 l 2,33,34
 336 -156 336 -156 297.5 -198.5 c 128,-1,35
 259 -241 259 -241 182 -241 c 0,0,1
EndSplineSet
EndChar

StartChar: circumflex
Encoding: 710 710 330
Width: 600
Flags: W
LayerCount: 2
Fore
SplineSet
128 606 m 1,0,-1
 128 618 l 1,1,2
 146 637 146 637 169 663.5 c 128,-1,3
 192 690 192 690 213 717 c 128,-1,4
 234 744 234 744 247 766 c 1,5,-1
 354 766 l 1,6,7
 366 744 366 744 387.5 717 c 128,-1,8
 409 690 409 690 432.5 664 c 128,-1,9
 456 638 456 638 474 618 c 1,10,-1
 474 606 l 1,11,-1
 404 606 l 1,12,13
 379 622 379 622 352 647 c 128,-1,14
 325 672 325 672 299 699 c 1,15,16
 274 672 274 672 247.5 647 c 128,-1,17
 221 622 221 622 196 606 c 1,18,-1
 128 606 l 1,0,-1
EndSplineSet
EndChar

StartChar: caron
Encoding: 711 711 331
Width: 600
GlyphClass: 2
Flags: W
AnchorPoint: "Anchor-13" 299 763 basemark 0
AnchorPoint: "Anchor-13" 299 528 mark 0
AnchorPoint: "Anchor-8" 299 528 mark 0
AnchorPoint: "Anchor-3" 299 528 mark 0
LayerCount: 2
Fore
SplineSet
246 606 m 1,0,1
 234 628 234 628 212.5 655 c 128,-1,2
 191 682 191 682 167.5 708 c 128,-1,3
 144 734 144 734 127 753 c 1,4,-1
 127 766 l 1,5,-1
 195 766 l 1,6,7
 220 750 220 750 247 726.5 c 128,-1,8
 274 703 274 703 298 677 c 1,9,10
 324 704 324 704 351 726.5 c 128,-1,11
 378 749 378 749 403 766 c 1,12,-1
 473 766 l 1,13,-1
 473 753 l 1,14,15
 455 734 455 734 431.5 708 c 128,-1,16
 408 682 408 682 386.5 655 c 128,-1,17
 365 628 365 628 353 606 c 1,18,-1
 246 606 l 1,0,1
EndSplineSet
EndChar

StartChar: breve
Encoding: 728 728 333
Width: 600
GlyphClass: 2
Flags: W
AnchorPoint: "Anchor-13" 300 765 basemark 0
AnchorPoint: "Anchor-13" 300 539 mark 0
AnchorPoint: "Anchor-8" 300 539 mark 0
AnchorPoint: "Anchor-3" 300 539 mark 0
LayerCount: 2
Fore
SplineSet
298 606 m 0,0,1
 227 606 227 606 185.5 645 c 128,-1,2
 144 684 144 684 142 749 c 1,3,-1
 207 749 l 1,4,5
 215 706 215 706 243 692 c 128,-1,6
 271 678 271 678 301 678 c 0,7,8
 332 678 332 678 359 692 c 128,-1,9
 386 706 386 706 394 749 c 1,10,-1
 460 749 l 1,11,12
 458 686 458 686 415.5 646 c 128,-1,13
 373 606 373 606 298 606 c 0,0,1
EndSplineSet
EndChar

StartChar: dotaccent
Encoding: 729 729 334
Width: 600
Flags: W
LayerCount: 2
Fore
SplineSet
299 626 m 256,0,1
 268 626 268 626 248.5 643 c 128,-1,2
 229 660 229 660 229 695 c 256,3,4
 229 730 229 730 248.5 747.5 c 128,-1,5
 268 765 268 765 300 765 c 0,6,7
 331 765 331 765 350.5 747.5 c 128,-1,8
 370 730 370 730 370 695 c 256,9,10
 370 660 370 660 350 643 c 128,-1,11
 330 626 330 626 299 626 c 256,0,1
EndSplineSet
EndChar

StartChar: ring
Encoding: 730 730 335
Width: 600
Flags: W
LayerCount: 2
Fore
SplineSet
299 606 m 0,0,1
 249 606 249 606 218 635 c 128,-1,2
 187 664 187 664 187 715 c 0,3,4
 187 765 187 765 218 794 c 128,-1,5
 249 823 249 823 299 823 c 0,6,7
 347 823 347 823 380 794.5 c 128,-1,8
 413 766 413 766 413 716 c 0,9,10
 413 664 413 664 380.5 635 c 128,-1,11
 348 606 348 606 299 606 c 0,0,1
299 663 m 256,12,13
 322 663 322 663 336.5 676.5 c 128,-1,14
 351 690 351 690 351 715 c 0,15,16
 351 739 351 739 336.5 752.5 c 128,-1,17
 322 766 322 766 299 766 c 0,18,19
 277 766 277 766 262.5 752.5 c 128,-1,20
 248 739 248 739 248 715 c 0,21,22
 248 690 248 690 262 676.5 c 128,-1,23
 276 663 276 663 299 663 c 256,12,13
EndSplineSet
EndChar

StartChar: ogonek
Encoding: 731 731 336
Width: 600
Flags: W
LayerCount: 2
Fore
SplineSet
326 -225 m 0,0,1
 271 -225 271 -225 244.5 -199 c 128,-1,2
 218 -173 218 -173 218 -130 c 0,3,4
 218 -84 218 -84 248 -46.5 c 128,-1,5
 278 -9 278 -9 312 15 c 1,6,-1
 366 0 l 1,7,8
 333 -32 333 -32 316 -58 c 128,-1,9
 299 -84 299 -84 299 -113 c 0,10,11
 299 -157 299 -157 347 -157 c 0,12,13
 358 -157 358 -157 370 -155.5 c 128,-1,14
 382 -154 382 -154 390 -151 c 1,15,-1
 390 -215 l 1,16,17
 376 -220 376 -220 361 -222.5 c 128,-1,18
 346 -225 346 -225 326 -225 c 0,0,1
EndSplineSet
EndChar

StartChar: tilde
Encoding: 732 732 337
Width: 600
Flags: W
LayerCount: 2
Fore
SplineSet
117 606 m 1,0,1
 122 666 122 666 150 703 c 128,-1,2
 178 740 178 740 227 740 c 0,3,4
 256 740 256 740 281.5 726 c 128,-1,5
 307 712 307 712 330.5 698.5 c 128,-1,6
 354 685 354 685 376 685 c 256,7,8
 398 685 398 685 408.5 699 c 128,-1,9
 419 713 419 713 426 741 c 1,10,-1
 483 741 l 1,11,12
 478 678 478 678 449 642.5 c 128,-1,13
 420 607 420 607 374 607 c 0,14,15
 346 607 346 607 320.5 620.5 c 128,-1,16
 295 634 295 634 271.5 648 c 128,-1,17
 248 662 248 662 225 662 c 256,18,19
 202 662 202 662 191 648 c 128,-1,20
 180 634 180 634 174 606 c 1,21,-1
 117 606 l 1,0,1
EndSplineSet
EndChar

StartChar: hungarumlaut
Encoding: 733 733 338
Width: 600
Flags: W
LayerCount: 2
Fore
SplineSet
320 606 m 1,0,-1
 320 618 l 1,1,2
 342 650 342 650 367 692 c 128,-1,3
 392 734 392 734 406 766 c 1,4,-1
 514 766 l 1,5,-1
 514 756 l 1,6,7
 504 738 504 738 479.5 709.5 c 128,-1,8
 455 681 455 681 427.5 652.5 c 128,-1,9
 400 624 400 624 377 606 c 1,10,-1
 320 606 l 1,0,-1
143 606 m 1,11,-1
 143 618 l 1,12,13
 165 650 165 650 189.5 692 c 128,-1,14
 214 734 214 734 230 766 c 1,15,-1
 337 766 l 1,16,-1
 337 756 l 1,17,18
 326 738 326 738 302.5 709.5 c 128,-1,19
 279 681 279 681 250.5 652.5 c 128,-1,20
 222 624 222 624 199 606 c 1,21,-1
 143 606 l 1,11,-1
EndSplineSet
EndChar

StartChar: tonos
Encoding: 900 900 339
Width: 600
GlyphClass: 2
Flags: W
AnchorPoint: "Anchor-13" 306 760 basemark 0
AnchorPoint: "Anchor-13" 300 539 mark 0
AnchorPoint: "Anchor-8" 300 539 mark 0
AnchorPoint: "Anchor-3" 300 539 mark 0
LayerCount: 2
Fore
SplineSet
267 606 m 1,0,-1
 267 620 l 1,1,2
 274 644 274 644 280.5 677 c 128,-1,3
 287 710 287 710 292.5 743 c 128,-1,4
 298 776 298 776 301 803 c 1,5,-1
 406 803 l 1,6,-1
 406 791 l 1,7,8
 400 768 400 768 388 736 c 128,-1,9
 376 704 376 704 360.5 669.5 c 128,-1,10
 345 635 345 635 329 606 c 1,11,-1
 267 606 l 1,0,-1
EndSplineSet
EndChar

StartChar: dieresistonos
Encoding: 901 901 340
Width: 600
GlyphClass: 2
Flags: W
AnchorPoint: "Anchor-13" 301 838 basemark 0
AnchorPoint: "Anchor-13" 300 539 mark 0
AnchorPoint: "Anchor-8" 300 539 mark 0
AnchorPoint: "Anchor-3" 300 539 mark 0
LayerCount: 2
Fore
SplineSet
262 678 m 1,0,-1
 262 690 l 1,1,2
 272 720 272 720 284 762 c 128,-1,3
 296 804 296 804 303 838 c 1,4,-1
 407 838 l 1,5,-1
 407 828 l 1,6,7
 392 796 392 796 365 755 c 128,-1,8
 338 714 338 714 310 678 c 1,9,-1
 262 678 l 1,0,-1
183 628 m 0,10,11
 161 628 161 628 147 641.5 c 128,-1,12
 133 655 133 655 133 682 c 0,13,14
 133 710 133 710 147 723 c 128,-1,15
 161 736 161 736 183 736 c 0,16,17
 204 736 204 736 219 723 c 128,-1,18
 234 710 234 710 234 682 c 0,19,20
 234 655 234 655 219 641.5 c 128,-1,21
 204 628 204 628 183 628 c 0,10,11
415 628 m 0,22,23
 392 628 392 628 378 641.5 c 128,-1,24
 364 655 364 655 364 682 c 0,25,26
 364 710 364 710 378 723 c 128,-1,27
 392 736 392 736 415 736 c 0,28,29
 436 736 436 736 451 723 c 128,-1,30
 466 710 466 710 466 682 c 0,31,32
 466 655 466 655 451 641.5 c 128,-1,33
 436 628 436 628 415 628 c 0,22,23
EndSplineSet
EndChar

StartChar: Epsilontonos
Encoding: 904 904 343
Width: 600
GlyphClass: 2
Flags: W
AnchorPoint: "Anchor-3" 332 714 basechar 0
AnchorPoint: "Anchor-0" 341 0 basechar 0
LayerCount: 2
Fore
SplineSet
-45 606 m 1,0,-1
 -45 620 l 1,1,2
 -38 644 -38 644 -31.5 677 c 128,-1,3
 -25 710 -25 710 -19.5 743 c 128,-1,4
 -14 776 -14 776 -11 803 c 1,5,-1
 94 803 l 1,6,-1
 94 791 l 1,7,8
 88 768 88 768 76 736 c 128,-1,9
 64 704 64 704 48.5 669.5 c 128,-1,10
 33 635 33 635 17 606 c 1,11,-1
 -45 606 l 1,0,-1
127 0 m 1,12,-1
 127 714 l 1,13,-1
 519 714 l 1,14,-1
 519 621 l 1,15,-1
 231 621 l 1,16,-1
 231 419 l 1,17,-1
 502 419 l 1,18,-1
 502 326 l 1,19,-1
 231 326 l 1,20,-1
 231 93 l 1,21,-1
 519 93 l 1,22,-1
 519 0 l 1,23,-1
 127 0 l 1,12,-1
EndSplineSet
EndChar

StartChar: Etatonos
Encoding: 905 905 344
Width: 600
GlyphClass: 2
Flags: W
AnchorPoint: "Anchor-3" 325 714 basechar 0
AnchorPoint: "Anchor-1" 325 377 basechar 0
AnchorPoint: "Anchor-0" 325 0 basechar 0
LayerCount: 2
Fore
SplineSet
-40 606 m 1,0,-1
 -40 620 l 1,1,2
 -34 644 -34 644 -27 677 c 128,-1,3
 -20 710 -20 710 -14.5 743 c 128,-1,4
 -9 776 -9 776 -6 803 c 1,5,-1
 99 803 l 1,6,-1
 99 791 l 1,7,8
 93 768 93 768 81 736 c 128,-1,9
 69 704 69 704 53.5 669.5 c 128,-1,10
 38 635 38 635 22 606 c 1,11,-1
 -40 606 l 1,0,-1
106 0 m 1,12,-1
 106 714 l 1,13,-1
 213 714 l 1,14,-1
 213 419 l 1,15,-1
 431 419 l 1,16,-1
 431 714 l 1,17,-1
 537 714 l 1,18,-1
 537 0 l 1,19,-1
 431 0 l 1,20,-1
 431 326 l 1,21,-1
 213 326 l 1,22,-1
 213 0 l 1,23,-1
 106 0 l 1,12,-1
EndSplineSet
EndChar

StartChar: Upsilontonos
Encoding: 910 910 347
Width: 600
GlyphClass: 2
Flags: W
AnchorPoint: "Anchor-3" 357 714 basechar 0
AnchorPoint: "Anchor-0" 357 0 basechar 0
LayerCount: 2
Fore
SplineSet
-20 606 m 1,0,-1
 -20 620 l 1,1,2
 -14 644 -14 644 -7 677 c 128,-1,3
 0 710 0 710 5.5 743 c 128,-1,4
 11 776 11 776 14 803 c 1,5,-1
 119 803 l 1,6,-1
 119 791 l 1,7,8
 113 768 113 768 101 736 c 128,-1,9
 89 704 89 704 73.5 669.5 c 128,-1,10
 58 635 58 635 42 606 c 1,11,-1
 -20 606 l 1,0,-1
305 0 m 1,12,-1
 305 278 l 1,13,-1
 128 714 l 1,14,-1
 243 714 l 1,15,-1
 358 377 l 1,16,-1
 474 714 l 1,17,-1
 586 714 l 1,18,-1
 409 278 l 1,19,-1
 409 0 l 1,20,-1
 305 0 l 1,12,-1
EndSplineSet
EndChar

StartChar: Gamma
Encoding: 915 915 352
Width: 600
GlyphClass: 2
Flags: W
AnchorPoint: "Anchor-3" 337 714 basechar 0
AnchorPoint: "Anchor-0" 337 0 basechar 0
LayerCount: 2
Fore
SplineSet
108 0 m 1,0,-1
 108 714 l 1,1,-1
 519 714 l 1,2,-1
 519 622 l 1,3,-1
 214 622 l 1,4,-1
 214 0 l 1,5,-1
 108 0 l 1,0,-1
EndSplineSet
EndChar

StartChar: uni0394
Encoding: 916 916 353
Width: 600
GlyphClass: 2
Flags: W
AnchorPoint: "Anchor-3" 300 714 basechar 0
AnchorPoint: "Anchor-0" 300 0 basechar 0
LayerCount: 2
Fore
SplineSet
17 0 m 1,0,-1
 17 64 l 1,1,-1
 244 715 l 1,2,-1
 355 715 l 1,3,-1
 583 63 l 1,4,-1
 583 0 l 1,5,-1
 17 0 l 1,0,-1
129 91 m 1,6,-1
 469 91 l 1,7,-1
 345 464 l 2,8,9
 332 500 332 500 319 541 c 128,-1,10
 306 582 306 582 299 610 c 1,11,12
 292 582 292 582 280 541.5 c 128,-1,13
 268 501 268 501 256 467 c 2,14,-1
 129 91 l 1,6,-1
EndSplineSet
EndChar

StartChar: Theta
Encoding: 920 920 357
Width: 600
GlyphClass: 2
Flags: W
AnchorPoint: "Anchor-4" 600 714 basechar 0
AnchorPoint: "Anchor-3" 300 714 basechar 0
AnchorPoint: "Anchor-2" 298 10 basechar 0
AnchorPoint: "Anchor-1" 300 357 basechar 0
AnchorPoint: "Anchor-0" 300 0 basechar 0
LayerCount: 2
Fore
SplineSet
299 -10 m 0,0,1
 209 -10 209 -10 152 35.5 c 128,-1,2
 95 81 95 81 68 163.5 c 128,-1,3
 41 246 41 246 41 357 c 256,4,5
 41 468 41 468 68.5 551 c 128,-1,6
 96 634 96 634 153 680 c 128,-1,7
 210 726 210 726 300 726 c 256,8,9
 390 726 390 726 447.5 680.5 c 128,-1,10
 505 635 505 635 532 552.5 c 128,-1,11
 559 470 559 470 559 359 c 0,12,13
 559 246 559 246 531.5 163.5 c 128,-1,14
 504 81 504 81 447 35.5 c 128,-1,15
 390 -10 390 -10 299 -10 c 0,0,1
301 83 m 256,16,17
 384 83 384 83 417.5 155.5 c 128,-1,18
 451 228 451 228 451 358 c 0,19,20
 451 489 451 489 417.5 561 c 128,-1,21
 384 633 384 633 301 633 c 256,22,23
 218 633 218 633 183.5 560.5 c 128,-1,24
 149 488 149 488 149 358 c 256,25,26
 149 228 149 228 183.5 155.5 c 128,-1,27
 218 83 218 83 301 83 c 256,16,17
205 318 m 1,28,-1
 205 408 l 1,29,-1
 395 408 l 1,30,-1
 395 318 l 1,31,-1
 205 318 l 1,28,-1
EndSplineSet
EndChar

StartChar: Lambda
Encoding: 923 923 360
Width: 600
GlyphClass: 2
Flags: W
AnchorPoint: "Anchor-3" 300 714 basechar 0
AnchorPoint: "Anchor-0" 300 0 basechar 0
LayerCount: 2
Fore
SplineSet
17 0 m 1,0,-1
 243 714 l 1,1,-1
 355 714 l 1,2,-1
 583 0 l 1,3,-1
 472 0 l 1,4,-1
 343 444 l 2,5,6
 331 484 331 484 318.5 529 c 128,-1,7
 306 574 306 574 299 608 c 1,8,9
 292 574 292 574 280.5 529.5 c 128,-1,10
 269 485 269 485 257 445 c 2,11,-1
 127 0 l 1,12,-1
 17 0 l 1,0,-1
EndSplineSet
EndChar

StartChar: Xi
Encoding: 926 926 363
Width: 600
GlyphClass: 2
Flags: W
AnchorPoint: "Anchor-3" 300 714 basechar 0
AnchorPoint: "Anchor-0" 300 0 basechar 0
LayerCount: 2
Fore
SplineSet
83 623 m 1,0,-1
 83 714 l 1,1,-1
 517 714 l 1,2,-1
 517 623 l 1,3,-1
 83 623 l 1,0,-1
116 327 m 1,4,-1
 116 418 l 1,5,-1
 484 418 l 1,6,-1
 484 327 l 1,7,-1
 116 327 l 1,4,-1
63 0 m 1,8,-1
 63 91 l 1,9,-1
 537 91 l 1,10,-1
 537 0 l 1,11,-1
 63 0 l 1,8,-1
EndSplineSet
EndChar

StartChar: Pi
Encoding: 928 928 365
Width: 600
GlyphClass: 2
Flags: W
AnchorPoint: "Anchor-3" 300 714 basechar 0
AnchorPoint: "Anchor-0" 300 0 basechar 0
LayerCount: 2
Fore
SplineSet
63 0 m 1,0,-1
 63 714 l 1,1,-1
 537 714 l 1,2,-1
 537 0 l 1,3,-1
 432 0 l 1,4,-1
 432 623 l 1,5,-1
 169 623 l 1,6,-1
 169 0 l 1,7,-1
 63 0 l 1,0,-1
EndSplineSet
EndChar

StartChar: Sigma
Encoding: 931 931 367
Width: 600
GlyphClass: 2
Flags: W
AnchorPoint: "Anchor-3" 300 714 basechar 0
AnchorPoint: "Anchor-0" 300 0 basechar 0
LayerCount: 2
Fore
SplineSet
91 0 m 1,0,-1
 91 86 l 1,1,-1
 296 373 l 1,2,-1
 97 628 l 1,3,-1
 97 714 l 1,4,-1
 483 714 l 1,5,-1
 483 622 l 1,6,-1
 295 622 l 2,7,8
 278 622 278 622 254 622 c 128,-1,9
 230 622 230 622 216 624 c 1,10,-1
 415 374 l 1,11,-1
 206 89 l 1,12,13
 234 90 234 90 261.5 90.5 c 128,-1,14
 289 91 289 91 319 91 c 2,15,-1
 512 91 l 1,16,-1
 512 0 l 1,17,-1
 91 0 l 1,0,-1
EndSplineSet
EndChar

StartChar: Phi
Encoding: 934 934 370
Width: 600
GlyphClass: 2
Flags: W
AnchorPoint: "Anchor-3" 300 714 basechar 0
AnchorPoint: "Anchor-0" 300 0 basechar 0
LayerCount: 2
Fore
SplineSet
254 -10 m 1,0,-1
 254 100 l 1,1,2
 181 100 181 100 133 136.5 c 128,-1,3
 85 173 85 173 61 234.5 c 128,-1,4
 37 296 37 296 37 370 c 0,5,6
 37 443 37 443 60 503 c 128,-1,7
 83 563 83 563 130.5 599 c 128,-1,8
 178 635 178 635 254 636 c 1,9,-1
 254 724 l 1,10,-1
 347 724 l 1,11,-1
 347 636 l 1,12,13
 422 635 422 635 470 599.5 c 128,-1,14
 518 564 518 564 540.5 504.5 c 128,-1,15
 563 445 563 445 563 371 c 0,16,17
 563 296 563 296 540 234.5 c 128,-1,18
 517 173 517 173 469 136.5 c 128,-1,19
 421 100 421 100 347 100 c 1,20,-1
 347 -10 l 1,21,-1
 254 -10 l 1,0,-1
254 185 m 1,22,-1
 254 551 l 1,23,24
 190 550 190 550 162 502 c 128,-1,25
 134 454 134 454 134 371 c 0,26,27
 134 284 134 284 163 235 c 128,-1,28
 192 186 192 186 254 185 c 1,22,-1
347 185 m 1,29,30
 407 186 407 186 437 236 c 128,-1,31
 467 286 467 286 467 373 c 0,32,33
 467 456 467 456 438 503 c 128,-1,34
 409 550 409 550 347 551 c 1,35,-1
 347 185 l 1,29,30
EndSplineSet
EndChar

StartChar: Psi
Encoding: 936 936 372
Width: 600
GlyphClass: 2
Flags: W
AnchorPoint: "Anchor-3" 300 714 basechar 0
AnchorPoint: "Anchor-0" 300 0 basechar 0
LayerCount: 2
Fore
SplineSet
253 0 m 1,0,-1
 253 213 l 1,1,2
 171 213 171 213 124 244 c 128,-1,3
 77 275 77 275 57 333.5 c 128,-1,4
 37 392 37 392 37 474 c 2,5,-1
 37 714 l 1,6,-1
 135 714 l 1,7,-1
 135 479 l 2,8,9
 135 421 135 421 144 381.5 c 128,-1,10
 153 342 153 342 178.5 321.5 c 128,-1,11
 204 301 204 301 253 301 c 1,12,-1
 253 714 l 1,13,-1
 347 714 l 1,14,-1
 347 301 l 1,15,16
 408 301 408 301 437 339 c 128,-1,17
 466 377 466 377 466 479 c 2,18,-1
 466 714 l 1,19,-1
 563 714 l 1,20,-1
 563 467 l 2,21,22
 563 388 563 388 542.5 331 c 128,-1,23
 522 274 522 274 474.5 243.5 c 128,-1,24
 427 213 427 213 347 213 c 1,25,-1
 347 0 l 1,26,-1
 253 0 l 1,0,-1
EndSplineSet
EndChar

StartChar: uni03A9
Encoding: 937 937 373
Width: 600
GlyphClass: 2
Flags: W
AnchorPoint: "Anchor-3" 299 714 basechar 0
AnchorPoint: "Anchor-0" 300 0 basechar 0
LayerCount: 2
Fore
SplineSet
19 0 m 1,0,-1
 19 87 l 1,1,-1
 153 87 l 1,2,3
 107 130 107 130 76.5 213.5 c 128,-1,4
 46 297 46 297 46 406 c 0,5,6
 46 560 46 560 112.5 642 c 128,-1,7
 179 724 179 724 300 724 c 0,8,9
 422 724 422 724 487 642 c 128,-1,10
 552 560 552 560 552 405 c 0,11,12
 552 296 552 296 522 213 c 128,-1,13
 492 130 492 130 445 87 c 1,14,-1
 581 87 l 1,15,-1
 581 0 l 1,16,-1
 347 0 l 1,17,-1
 347 82 l 1,18,19
 402 134 402 134 425.5 210 c 128,-1,20
 449 286 449 286 449 382 c 0,21,22
 449 506 449 506 414 570.5 c 128,-1,23
 379 635 379 635 301 635 c 0,24,25
 226 635 226 635 188.5 573.5 c 128,-1,26
 151 512 151 512 151 383 c 0,27,28
 151 285 151 285 175.5 208.5 c 128,-1,29
 200 132 200 132 253 82 c 1,30,-1
 253 0 l 1,31,-1
 19 0 l 1,0,-1
EndSplineSet
EndChar

StartChar: alpha
Encoding: 945 945 381
Width: 600
GlyphClass: 2
Flags: W
AnchorPoint: "Anchor-3" 300 539 basechar 0
AnchorPoint: "Anchor-0" 291 0 basechar 0
LayerCount: 2
Fore
SplineSet
251 -10 m 0,0,1
 160 -10 160 -10 105.5 60 c 128,-1,2
 51 130 51 130 51 268 c 0,3,4
 51 404 51 404 105.5 476 c 128,-1,5
 160 548 160 548 259 548 c 0,6,7
 312 548 312 548 347 527.5 c 128,-1,8
 382 507 382 507 407 466 c 1,9,-1
 413 466 l 1,10,11
 418 483 418 483 426 503.5 c 128,-1,12
 434 524 434 524 446 539 c 1,13,-1
 529 539 l 1,14,15
 522 516 522 516 515.5 480.5 c 128,-1,16
 509 445 509 445 505 404.5 c 128,-1,17
 501 364 501 364 501 326 c 2,18,-1
 501 133 l 2,19,20
 501 102 501 102 513 89 c 128,-1,21
 525 76 525 76 542 76 c 0,22,23
 550 76 550 76 559 78 c 128,-1,24
 568 80 568 80 572 81 c 1,25,-1
 572 3 l 1,26,27
 564 -2 564 -2 547 -6 c 128,-1,28
 530 -10 530 -10 511 -10 c 0,29,30
 474 -10 474 -10 447.5 7.5 c 128,-1,31
 421 25 421 25 409 72 c 1,32,-1
 401 72 l 1,33,34
 380 41 380 41 346 15.5 c 128,-1,35
 312 -10 312 -10 251 -10 c 0,0,1
278 75 m 0,36,37
 342 75 342 75 371 121.5 c 128,-1,38
 400 168 400 168 400 262 c 2,39,-1
 400 268 l 2,40,41
 400 360 400 360 372.5 411.5 c 128,-1,42
 345 463 345 463 276 463 c 0,43,44
 214 463 214 463 186 414 c 128,-1,45
 158 365 158 365 158 269 c 0,46,47
 158 167 158 167 188.5 121 c 128,-1,48
 219 75 219 75 278 75 c 0,36,37
EndSplineSet
EndChar

StartChar: beta
Encoding: 946 946 382
Width: 600
GlyphClass: 2
Flags: W
AnchorPoint: "Anchor-4" 580 765 basechar 0
AnchorPoint: "Anchor-3" 298 765 basechar 0
AnchorPoint: "Anchor-0" 345 0 basechar 0
LayerCount: 2
Fore
SplineSet
73 -240 m 1,0,-1
 73 535 l 2,1,2
 73 616 73 616 102.5 666.5 c 128,-1,3
 132 717 132 717 183.5 741 c 128,-1,4
 235 765 235 765 300 765 c 0,5,6
 366 765 366 765 418 743.5 c 128,-1,7
 470 722 470 722 499.5 680 c 128,-1,8
 529 638 529 638 529 574 c 0,9,10
 529 502 529 502 490.5 459.5 c 128,-1,11
 452 417 452 417 379 406 c 1,12,-1
 379 402 l 1,13,14
 468 392 468 392 515.5 344 c 128,-1,15
 563 296 563 296 563 205 c 0,16,17
 563 102 563 102 499.5 46 c 128,-1,18
 436 -10 436 -10 328 -10 c 0,19,20
 275 -10 275 -10 238.5 1 c 128,-1,21
 202 12 202 12 177 26 c 1,22,-1
 177 -240 l 1,23,-1
 73 -240 l 1,0,-1
311 74 m 0,24,25
 389 74 389 74 423 110.5 c 128,-1,26
 457 147 457 147 457 213 c 0,27,28
 457 287 457 287 412 320.5 c 128,-1,29
 367 354 367 354 296 354 c 2,30,-1
 247 354 l 1,31,-1
 247 439 l 1,32,-1
 286 439 l 2,33,34
 357 439 357 439 390 474 c 128,-1,35
 423 509 423 509 423 566 c 0,36,37
 423 624 423 624 389 652 c 128,-1,38
 355 680 355 680 298 680 c 0,39,40
 266 680 266 680 238 667 c 128,-1,41
 210 654 210 654 193.5 621 c 128,-1,42
 177 588 177 588 177 528 c 2,43,-1
 177 115 l 1,44,45
 200 98 200 98 233.5 86 c 128,-1,46
 267 74 267 74 311 74 c 0,24,25
EndSplineSet
EndChar

StartChar: gamma
Encoding: 947 947 383
Width: 600
GlyphClass: 2
Flags: W
AnchorPoint: "Anchor-4" 580 539 basechar 0
AnchorPoint: "Anchor-3" 309 539 basechar 0
AnchorPoint: "Anchor-0" 307 -240 basechar 0
LayerCount: 2
Fore
SplineSet
202 -240 m 1,0,1
 202 -212 202 -212 208.5 -170 c 128,-1,2
 215 -128 215 -128 226.5 -81.5 c 128,-1,3
 238 -35 238 -35 252 6 c 1,4,-1
 38 539 l 1,5,-1
 146 539 l 1,6,-1
 250 268 l 2,7,8
 260 242 260 242 271 209 c 128,-1,9
 282 176 282 176 291 146 c 128,-1,10
 300 116 300 116 303 98 c 1,11,-1
 306 98 l 1,12,13
 309 114 309 114 317 143.5 c 128,-1,14
 325 173 325 173 335 205.5 c 128,-1,15
 345 238 345 238 354 263 c 2,16,-1
 454 539 l 1,17,-1
 562 539 l 1,18,-1
 362 12 l 2,19,20
 347 -28 347 -28 336.5 -74 c 128,-1,21
 326 -120 326 -120 320 -163 c 128,-1,22
 314 -206 314 -206 314 -240 c 1,23,-1
 202 -240 l 1,0,1
EndSplineSet
EndChar

StartChar: delta
Encoding: 948 948 384
Width: 600
GlyphClass: 2
Flags: W
AnchorPoint: "Anchor-3" 337 761 basechar 0
AnchorPoint: "Anchor-0" 306 0 basechar 0
LayerCount: 2
Fore
SplineSet
298 -10 m 0,0,1
 226 -10 226 -10 170 16.5 c 128,-1,2
 114 43 114 43 82.5 92.5 c 128,-1,3
 51 142 51 142 51 213 c 0,4,5
 51 279 51 279 77 326.5 c 128,-1,6
 103 374 103 374 148.5 405 c 128,-1,7
 194 436 194 436 252 454 c 1,8,9
 199 486 199 486 164.5 525 c 128,-1,10
 130 564 130 564 130 619 c 0,11,12
 130 689 130 689 184 725 c 128,-1,13
 238 761 238 761 324 761 c 0,14,15
 388 761 388 761 438.5 744.5 c 128,-1,16
 489 728 489 728 532 707 c 1,17,-1
 488 629 l 1,18,19
 452 648 452 648 409 663.5 c 128,-1,20
 366 679 366 679 321 679 c 0,21,22
 272 679 272 679 253 660 c 128,-1,23
 234 641 234 641 234 615 c 0,24,25
 234 576 234 576 270.5 550 c 128,-1,26
 307 524 307 524 367 490 c 0,27,28
 425 458 425 458 465.5 423 c 128,-1,29
 506 388 506 388 527.5 343 c 128,-1,30
 549 298 549 298 549 237 c 0,31,32
 549 116 549 116 480 53 c 128,-1,33
 411 -10 411 -10 298 -10 c 0,0,1
299 75 m 0,34,35
 367 75 367 75 404.5 117 c 128,-1,36
 442 159 442 159 442 234 c 0,37,38
 442 301 442 301 411 341 c 128,-1,39
 380 381 380 381 327 410 c 1,40,41
 289 400 289 400 250 378 c 128,-1,42
 211 356 211 356 185 317 c 128,-1,43
 159 278 159 278 159 218 c 0,44,45
 159 153 159 153 195.5 114 c 128,-1,46
 232 75 232 75 299 75 c 0,34,35
EndSplineSet
EndChar

StartChar: epsilon
Encoding: 949 949 385
Width: 600
GlyphClass: 2
Flags: W
AnchorPoint: "Anchor-3" 300 539 basechar 0
AnchorPoint: "Anchor-0" 326 0 basechar 0
LayerCount: 2
Fore
SplineSet
331 -10 m 0,0,1
 210 -10 210 -10 152.5 34.5 c 128,-1,2
 95 79 95 79 95 147 c 0,3,4
 95 207 95 207 131 236 c 128,-1,5
 167 265 167 265 218 278 c 1,6,-1
 218 283 l 1,7,8
 171 296 171 296 144 326.5 c 128,-1,9
 117 357 117 357 117 406 c 0,10,11
 117 453 117 453 144.5 485 c 128,-1,12
 172 517 172 517 220.5 533 c 128,-1,13
 269 549 269 549 331 549 c 0,14,15
 389 549 389 549 434.5 538.5 c 128,-1,16
 480 528 480 528 521 510 c 1,17,-1
 484 430 l 1,18,19
 450 445 450 445 414.5 455.5 c 128,-1,20
 379 466 379 466 332 466 c 0,21,22
 214 466 214 466 214 396 c 0,23,24
 214 356 214 356 253 338.5 c 128,-1,25
 292 321 292 321 362 321 c 2,26,-1
 423 321 l 1,27,-1
 423 240 l 1,28,-1
 347 240 l 2,29,30
 270 240 270 240 234.5 218.5 c 128,-1,31
 199 197 199 197 199 155 c 0,32,33
 199 112 199 112 237 93 c 128,-1,34
 275 74 275 74 338 74 c 0,35,36
 395 74 395 74 440 87 c 128,-1,37
 485 100 485 100 519 116 c 1,38,-1
 519 27 l 1,39,40
 487 10 487 10 440.5 0 c 128,-1,41
 394 -10 394 -10 331 -10 c 0,0,1
EndSplineSet
EndChar

StartChar: zeta
Encoding: 950 950 386
Width: 600
GlyphClass: 2
Flags: W
AnchorPoint: "Anchor-3" 339 760 basechar 0
AnchorPoint: "Anchor-0" 337 -192 basechar 0
LayerCount: 2
Fore
SplineSet
359 -192 m 1,0,1
 384 -158 384 -158 403.5 -123.5 c 128,-1,2
 423 -89 423 -89 423 -60 c 0,3,4
 423 -44 423 -44 415 -33 c 128,-1,5
 407 -22 407 -22 382.5 -13 c 128,-1,6
 358 -4 358 -4 311 5 c 0,7,8
 251 16 251 16 206.5 41 c 128,-1,9
 162 66 162 66 137 111 c 128,-1,10
 112 156 112 156 112 225 c 0,11,12
 112 297 112 297 135.5 358 c 128,-1,13
 159 419 159 419 200 474 c 128,-1,14
 241 529 241 529 293.5 580 c 128,-1,15
 346 631 346 631 405 682 c 1,16,17
 388 680 388 680 349 679 c 128,-1,18
 310 678 310 678 268 678 c 2,19,-1
 142 678 l 1,20,-1
 142 760 l 1,21,-1
 526 760 l 1,22,-1
 526 688 l 1,23,24
 424 602 424 602 362.5 534 c 128,-1,25
 301 466 301 466 270.5 411.5 c 128,-1,26
 240 357 240 357 230 313.5 c 128,-1,27
 220 270 220 270 220 233 c 0,28,29
 220 178 220 178 238.5 149.5 c 128,-1,30
 257 121 257 121 293 107.5 c 128,-1,31
 329 94 329 94 381 83 c 0,32,33
 460 67 460 67 493 38.5 c 128,-1,34
 526 10 526 10 526 -34 c 256,35,36
 526 -78 526 -78 506.5 -119 c 128,-1,37
 487 -160 487 -160 462 -192 c 1,38,-1
 359 -192 l 1,0,1
EndSplineSet
EndChar

StartChar: eta
Encoding: 951 951 387
Width: 600
GlyphClass: 2
Flags: W
AnchorPoint: "Anchor-4" 580 539 basechar 0
AnchorPoint: "Anchor-3" 300 539 basechar 0
AnchorPoint: "Anchor-0" 299 -243 basechar 0
LayerCount: 2
Fore
SplineSet
73 0 m 1,0,-1
 73 539 l 1,1,-1
 156 539 l 1,2,-1
 172 463 l 1,3,-1
 178 463 l 1,4,5
 202 506 202 506 246.5 527.5 c 128,-1,6
 291 549 291 549 350 549 c 0,7,8
 434 549 434 549 483 501.5 c 128,-1,9
 532 454 532 454 532 357 c 2,10,-1
 532 -243 l 1,11,-1
 426 -243 l 1,12,-1
 426 335 l 2,13,14
 426 400 426 400 399.5 431 c 128,-1,15
 373 462 373 462 317 462 c 0,16,17
 242 462 242 462 210.5 411 c 128,-1,18
 179 360 179 360 179 270 c 2,19,-1
 179 0 l 1,20,-1
 73 0 l 1,0,-1
EndSplineSet
EndChar

StartChar: theta
Encoding: 952 952 388
Width: 600
GlyphClass: 2
Flags: W
AnchorPoint: "Anchor-4" 580 765 basechar 0
AnchorPoint: "Anchor-3" 301 765 basechar 0
AnchorPoint: "Anchor-0" 299 0 basechar 0
LayerCount: 2
Fore
SplineSet
298 -10 m 0,0,1
 174 -10 174 -10 114 93 c 128,-1,2
 54 196 54 196 54 377 c 0,3,4
 54 499 54 499 78.5 586 c 128,-1,5
 103 673 103 673 156.5 719 c 128,-1,6
 210 765 210 765 298 765 c 0,7,8
 423 765 423 765 484 663.5 c 128,-1,9
 545 562 545 562 545 377 c 0,10,11
 545 256 545 256 520.5 169.5 c 128,-1,12
 496 83 496 83 441.5 36.5 c 128,-1,13
 387 -10 387 -10 298 -10 c 0,0,1
160 427 m 1,14,-1
 438 427 l 1,15,16
 434 554 434 554 401 619 c 128,-1,17
 368 684 368 684 299 684 c 0,18,19
 229 684 229 684 197 619 c 128,-1,20
 165 554 165 554 160 427 c 1,14,-1
298 71 m 0,21,22
 369 71 369 71 402.5 139.5 c 128,-1,23
 436 208 436 208 439 344 c 1,24,-1
 160 344 l 1,25,26
 162 209 162 209 194 140 c 128,-1,27
 226 71 226 71 298 71 c 0,21,22
EndSplineSet
EndChar

StartChar: iota
Encoding: 953 953 389
Width: 600
GlyphClass: 2
Flags: W
AnchorPoint: "Anchor-3" 296 539 basechar 0
AnchorPoint: "Anchor-0" 393 0 basechar 0
LayerCount: 2
Fore
SplineSet
404 -10 m 0,0,1
 358 -10 358 -10 322 5 c 128,-1,2
 286 20 286 20 265 57 c 128,-1,3
 244 94 244 94 244 161 c 2,4,-1
 244 539 l 1,5,-1
 348 539 l 1,6,-1
 348 162 l 2,7,8
 348 74 348 74 421 74 c 0,9,10
 444 74 444 74 467.5 78 c 128,-1,11
 491 82 491 82 507 87 c 1,12,-1
 507 8 l 1,13,14
 490 0 490 0 461.5 -5 c 128,-1,15
 433 -10 433 -10 404 -10 c 0,0,1
EndSplineSet
EndChar

StartChar: lambda
Encoding: 955 955 391
Width: 600
GlyphClass: 2
Flags: W
AnchorPoint: "Anchor-3" 301 766 basechar 0
AnchorPoint: "Anchor-0" 299 0 basechar 0
LayerCount: 2
Fore
SplineSet
516 -10 m 0,0,1
 473 -10 473 -10 449.5 12.5 c 128,-1,2
 426 35 426 35 411 79 c 2,3,-1
 347 265 l 2,4,5
 335 299 335 299 321.5 341.5 c 128,-1,6
 308 384 308 384 303 412 c 1,7,-1
 299 412 l 1,8,9
 291 378 291 378 277.5 340.5 c 128,-1,10
 264 303 264 303 250 269 c 2,11,-1
 139 0 l 1,12,-1
 31 0 l 1,13,-1
 256 523 l 1,14,-1
 232 590 l 2,15,16
 215 636 215 636 194.5 657.5 c 128,-1,17
 174 679 174 679 133 679 c 0,18,19
 114 679 114 679 101 677 c 128,-1,20
 88 675 88 675 77 673 c 1,21,-1
 77 758 l 1,22,23
 90 761 90 761 109 763.5 c 128,-1,24
 128 766 128 766 148 766 c 0,25,26
 202 766 202 766 236 747.5 c 128,-1,27
 270 729 270 729 293 691.5 c 128,-1,28
 316 654 316 654 335 596 c 2,29,-1
 493 139 l 2,30,31
 505 102 505 102 519 87.5 c 128,-1,32
 533 73 533 73 551 73 c 0,33,34
 558 73 558 73 567 74.5 c 128,-1,35
 576 76 576 76 582 78 c 1,36,-1
 582 3 l 1,37,38
 571 -2 571 -2 553.5 -6 c 128,-1,39
 536 -10 536 -10 516 -10 c 0,0,1
EndSplineSet
EndChar

StartChar: uni03BC
Encoding: 956 956 392
Width: 600
GlyphClass: 2
Flags: W
AnchorPoint: "Anchor-4" 580 539 basechar 0
AnchorPoint: "Anchor-3" 300 539 basechar 0
AnchorPoint: "Anchor-2" 540 10 basechar 0
AnchorPoint: "Anchor-0" 300 -240 basechar 0
LayerCount: 2
Fore
SplineSet
68 -240 m 1,0,-1
 68 539 l 1,1,-1
 174 539 l 1,2,-1
 174 203 l 2,3,4
 174 142 174 142 198 109.5 c 128,-1,5
 222 77 222 77 283 77 c 0,6,7
 362 77 362 77 391.5 128 c 128,-1,8
 421 179 421 179 421 269 c 2,9,-1
 421 539 l 1,10,-1
 527 539 l 1,11,-1
 527 0 l 1,12,-1
 444 0 l 1,13,-1
 428 71 l 1,14,-1
 422 71 l 1,15,16
 395 28 395 28 352 9 c 128,-1,17
 309 -10 309 -10 253 -10 c 0,18,19
 208 -10 208 -10 174 1 c 1,20,-1
 174 -240 l 1,21,-1
 68 -240 l 1,0,-1
EndSplineSet
EndChar

StartChar: nu
Encoding: 957 957 393
Width: 600
GlyphClass: 2
Flags: W
AnchorPoint: "Anchor-3" 307 539 basechar 0
AnchorPoint: "Anchor-0" 311 0 basechar 0
LayerCount: 2
Fore
SplineSet
236 0 m 1,0,-1
 57 539 l 1,1,-1
 164 539 l 1,2,-1
 253 247 l 2,3,4
 260 225 260 225 269.5 195 c 128,-1,5
 279 165 279 165 287.5 136.5 c 128,-1,6
 296 108 296 108 300 89 c 1,7,-1
 304 89 l 1,8,9
 378 178 378 178 405.5 286 c 128,-1,10
 433 394 433 394 433 539 c 1,11,-1
 537 539 l 1,12,13
 537 433 537 433 520 342 c 128,-1,14
 503 251 503 251 460.5 167.5 c 128,-1,15
 418 84 418 84 341 0 c 1,16,-1
 236 0 l 1,0,-1
EndSplineSet
EndChar

StartChar: xi
Encoding: 958 958 394
Width: 600
GlyphClass: 2
Flags: W
AnchorPoint: "Anchor-3" 339 760 basechar 0
AnchorPoint: "Anchor-0" 337 -192 basechar 0
LayerCount: 2
Fore
SplineSet
362 -192 m 1,0,1
 386 -159 386 -159 405 -123 c 128,-1,2
 424 -87 424 -87 424 -60 c 0,3,4
 424 -29 424 -29 395.5 -18 c 128,-1,5
 367 -7 367 -7 311 5 c 0,6,7
 287 10 287 10 252.5 20 c 128,-1,8
 218 30 218 30 185.5 51.5 c 128,-1,9
 153 73 153 73 131 109.5 c 128,-1,10
 109 146 109 146 109 203 c 0,11,12
 109 281 109 281 149.5 328 c 128,-1,13
 190 375 190 375 249 395 c 1,14,-1
 249 401 l 1,15,16
 199 414 199 414 170.5 446 c 128,-1,17
 142 478 142 478 142 533 c 0,18,19
 142 600 142 600 182 633.5 c 128,-1,20
 222 667 222 667 283 684 c 1,21,22
 266 682 266 682 234.5 680 c 128,-1,23
 203 678 203 678 170 678 c 2,24,-1
 139 678 l 1,25,-1
 139 760 l 1,26,-1
 498 760 l 1,27,-1
 498 683 l 1,28,-1
 469 683 l 2,29,30
 412 683 412 683 360.5 667 c 128,-1,31
 309 651 309 651 276.5 618.5 c 128,-1,32
 244 586 244 586 244 535 c 0,33,34
 244 488 244 488 279.5 462.5 c 128,-1,35
 315 437 315 437 400 437 c 2,36,-1
 482 437 l 1,37,-1
 482 360 l 1,38,-1
 397 360 l 2,39,40
 308 360 308 360 263 320 c 128,-1,41
 218 280 218 280 218 212 c 0,42,43
 218 166 218 166 238 142.5 c 128,-1,44
 258 119 258 119 294.5 106.5 c 128,-1,45
 331 94 331 94 382 82 c 0,46,47
 458 65 458 65 491 38.5 c 128,-1,48
 524 12 524 12 524 -36 c 0,49,50
 524 -78 524 -78 504 -119 c 128,-1,51
 484 -160 484 -160 462 -192 c 1,52,-1
 362 -192 l 1,0,1
EndSplineSet
EndChar

StartChar: pi
Encoding: 960 960 396
Width: 600
GlyphClass: 2
Flags: W
AnchorPoint: "Anchor-3" 300 539 basechar 0
AnchorPoint: "Anchor-0" 300 0 basechar 0
LayerCount: 2
Fore
SplineSet
482 -10 m 0,0,1
 425 -10 425 -10 394 23.5 c 128,-1,2
 363 57 363 57 363 127 c 2,3,-1
 363 455 l 1,4,-1
 236 455 l 1,5,-1
 236 0 l 1,6,-1
 134 0 l 1,7,-1
 134 455 l 1,8,-1
 28 455 l 1,9,-1
 28 500 l 1,10,-1
 105 539 l 1,11,-1
 571 539 l 1,12,-1
 571 455 l 1,13,-1
 465 455 l 1,14,-1
 465 133 l 2,15,16
 465 100 465 100 478 87 c 128,-1,17
 491 74 491 74 512 74 c 0,18,19
 526 74 526 74 538 77.5 c 128,-1,20
 550 81 550 81 560 86 c 1,21,-1
 560 7 l 1,22,23
 550 0 550 0 529 -5 c 128,-1,24
 508 -10 508 -10 482 -10 c 0,0,1
EndSplineSet
EndChar

StartChar: rho
Encoding: 961 961 397
Width: 600
GlyphClass: 2
Flags: W
AnchorPoint: "Anchor-3" 314 539 basechar 0
AnchorPoint: "Anchor-0" 300 -240 basechar 0
LayerCount: 2
Fore
SplineSet
73 -240 m 1,0,-1
 73 275 l 2,1,2
 73 411 73 411 138 480 c 128,-1,3
 203 549 203 549 315 549 c 0,4,5
 384 549 384 549 436.5 516.5 c 128,-1,6
 489 484 489 484 519 421.5 c 128,-1,7
 549 359 549 359 549 269 c 0,8,9
 549 133 549 133 487.5 61.5 c 128,-1,10
 426 -10 426 -10 319 -10 c 0,11,12
 279 -10 279 -10 242.5 1.5 c 128,-1,13
 206 13 206 13 178 33 c 1,14,-1
 172 33 l 1,15,16
 175 15 175 15 176.5 -20 c 128,-1,17
 178 -55 178 -55 178 -99 c 2,18,-1
 178 -240 l 1,19,-1
 73 -240 l 1,0,-1
310 75 m 0,20,21
 380 75 380 75 411.5 123.5 c 128,-1,22
 443 172 443 172 443 269 c 0,23,24
 443 368 443 368 412 415.5 c 128,-1,25
 381 463 381 463 311 463 c 0,26,27
 178 463 178 463 178 276 c 2,28,-1
 178 123 l 1,29,30
 204 99 204 99 238.5 87 c 128,-1,31
 273 75 273 75 310 75 c 0,20,21
EndSplineSet
EndChar

StartChar: sigma1
Encoding: 962 962 398
Width: 600
GlyphClass: 2
Flags: W
AnchorPoint: "Anchor-3" 356 539 basechar 0
AnchorPoint: "Anchor-0" 344 -196 basechar 0
LayerCount: 2
Fore
SplineSet
349 -192 m 1,0,1
 374 -158 374 -158 393 -119.5 c 128,-1,2
 412 -81 412 -81 412 -53 c 0,3,4
 412 -27 412 -27 387.5 -16.5 c 128,-1,5
 363 -6 363 -6 299 8 c 0,6,7
 235 23 235 23 186 49 c 128,-1,8
 137 75 137 75 109 124.5 c 128,-1,9
 81 174 81 174 81 262 c 0,10,11
 81 360 81 360 116 423.5 c 128,-1,12
 151 487 151 487 213 518 c 128,-1,13
 275 549 275 549 356 549 c 0,14,15
 401 549 401 549 441 540 c 128,-1,16
 481 531 481 531 512 517 c 1,17,-1
 480 433 l 1,18,19
 452 446 452 446 420.5 453 c 128,-1,20
 389 460 389 460 356 460 c 0,21,22
 267 460 267 460 227.5 407 c 128,-1,23
 188 354 188 354 188 257 c 0,24,25
 188 197 188 197 205.5 166 c 128,-1,26
 223 135 223 135 262.5 118.5 c 128,-1,27
 302 102 302 102 368 86 c 0,28,29
 433 71 433 71 472.5 46.5 c 128,-1,30
 512 22 512 22 512 -35 c 0,31,32
 512 -77 512 -77 492 -118.5 c 128,-1,33
 472 -160 472 -160 450 -192 c 1,34,-1
 349 -192 l 1,0,1
EndSplineSet
EndChar

StartChar: sigma
Encoding: 963 963 399
Width: 600
GlyphClass: 2
Flags: W
AnchorPoint: "Anchor-3" 297 539 basechar 0
AnchorPoint: "Anchor-0" 297 0 basechar 0
LayerCount: 2
Fore
SplineSet
297 -10 m 0,0,1
 185 -10 185 -10 118 59 c 128,-1,2
 51 128 51 128 51 260 c 0,3,4
 51 360 51 360 86 421 c 128,-1,5
 121 482 121 482 185.5 510.5 c 128,-1,6
 250 539 250 539 338 539 c 2,7,-1
 588 539 l 1,8,-1
 588 456 l 1,9,-1
 461 456 l 1,10,11
 499 421 499 421 521 369 c 128,-1,12
 543 317 543 317 543 250 c 0,13,14
 543 174 543 174 515 115.5 c 128,-1,15
 487 57 487 57 432.5 23.5 c 128,-1,16
 378 -10 378 -10 297 -10 c 0,0,1
298 75 m 0,17,18
 371 75 371 75 403.5 123.5 c 128,-1,19
 436 172 436 172 436 248 c 0,20,21
 436 310 436 310 417.5 362.5 c 128,-1,22
 399 415 399 415 365 456 c 1,23,-1
 335 456 l 2,24,25
 246 456 246 456 202 412 c 128,-1,26
 158 368 158 368 158 260 c 0,27,28
 158 178 158 178 190.5 126.5 c 128,-1,29
 223 75 223 75 298 75 c 0,17,18
EndSplineSet
EndChar

StartChar: tau
Encoding: 964 964 400
Width: 600
GlyphClass: 2
Flags: W
AnchorPoint: "Anchor-3" 306 539 basechar 0
AnchorPoint: "Anchor-0" 348 0 basechar 0
LayerCount: 2
Fore
SplineSet
390 -11 m 0,0,1
 343 -11 343 -11 303.5 3 c 128,-1,2
 264 17 264 17 240 54 c 128,-1,3
 216 91 216 91 216 159 c 2,4,-1
 216 455 l 1,5,-1
 71 455 l 1,6,-1
 71 500 l 1,7,-1
 148 539 l 1,8,-1
 526 539 l 1,9,-1
 526 455 l 1,10,-1
 321 455 l 1,11,-1
 321 166 l 2,12,13
 321 115 321 115 345.5 94 c 128,-1,14
 370 73 370 73 409 73 c 0,15,16
 432 73 432 73 455.5 77 c 128,-1,17
 479 81 479 81 496 86 c 1,18,-1
 496 8 l 1,19,20
 480 0 480 0 451 -5.5 c 128,-1,21
 422 -11 422 -11 390 -11 c 0,0,1
EndSplineSet
EndChar

StartChar: upsilon
Encoding: 965 965 401
Width: 600
GlyphClass: 2
Flags: W
AnchorPoint: "Anchor-3" 300 539 basechar 0
AnchorPoint: "Anchor-0" 308 0 basechar 0
LayerCount: 2
Fore
SplineSet
304 -10 m 0,0,1
 214 -10 214 -10 163.5 23.5 c 128,-1,2
 113 57 113 57 93 114.5 c 128,-1,3
 73 172 73 172 73 244 c 2,4,-1
 73 539 l 1,5,-1
 177 539 l 1,6,-1
 177 245 l 2,7,8
 177 163 177 163 208.5 119 c 128,-1,9
 240 75 240 75 310 75 c 256,10,11
 380 75 380 75 414.5 128.5 c 128,-1,12
 449 182 449 182 449 297 c 0,13,14
 449 365 449 365 440.5 421.5 c 128,-1,15
 432 478 432 478 417 539 c 1,16,-1
 521 539 l 1,17,18
 538 478 538 478 546 422 c 128,-1,19
 554 366 554 366 554 293 c 0,20,21
 554 137 554 137 490.5 63.5 c 128,-1,22
 427 -10 427 -10 304 -10 c 0,0,1
EndSplineSet
EndChar

StartChar: phi
Encoding: 966 966 402
Width: 600
GlyphClass: 2
Flags: W
AnchorPoint: "Anchor-3" 296 539 basechar 0
AnchorPoint: "Anchor-0" 296 -240 basechar 0
LayerCount: 2
Fore
SplineSet
249 -240 m 1,0,-1
 249 -7 l 1,1,2
 154 0 154 0 102.5 70.5 c 128,-1,3
 51 141 51 141 51 267 c 0,4,5
 51 427 51 427 145 546 c 1,6,-1
 217 500 l 1,7,8
 179 448 179 448 164 392 c 128,-1,9
 149 336 149 336 148 275 c 0,10,11
 148 182 148 182 172 134 c 128,-1,12
 196 86 196 86 249 75 c 1,13,-1
 249 363 l 2,14,15
 249 549 249 549 381 549 c 0,16,17
 441 549 441 549 478 514 c 128,-1,18
 515 479 515 479 532 420 c 128,-1,19
 549 361 549 361 549 290 c 0,20,21
 549 164 549 164 497.5 84 c 128,-1,22
 446 4 446 4 345 -7 c 1,23,-1
 345 -240 l 1,24,-1
 249 -240 l 1,0,-1
345 75 m 1,25,26
 393 82 393 82 422 136 c 128,-1,27
 451 190 451 190 451 295 c 0,28,29
 451 371 451 371 434.5 418.5 c 128,-1,30
 418 466 418 466 387 466 c 0,31,32
 362 466 362 466 353.5 438.5 c 128,-1,33
 345 411 345 411 345 361 c 2,34,-1
 345 75 l 1,25,26
EndSplineSet
EndChar

StartChar: chi
Encoding: 967 967 403
Width: 600
GlyphClass: 2
Flags: W
AnchorPoint: "Anchor-4" 580 539 basechar 0
AnchorPoint: "Anchor-3" 300 539 basechar 0
AnchorPoint: "Anchor-0" 300 -244 basechar 0
LayerCount: 2
Fore
SplineSet
493 -244 m 0,0,1
 440 -244 440 -244 410 -224 c 128,-1,2
 380 -204 380 -204 364.5 -173 c 128,-1,3
 349 -142 349 -142 340 -108 c 2,4,-1
 292 73 l 1,5,-1
 147 -240 l 1,6,-1
 38 -240 l 1,7,-1
 247 177 l 1,8,-1
 192 378 l 2,9,10
 170 457 170 457 116 457 c 0,11,12
 108 457 108 457 98 455.5 c 128,-1,13
 88 454 88 454 79 450 c 1,14,-1
 79 533 l 1,15,16
 93 537 93 537 110 540 c 128,-1,17
 127 543 127 543 148 543 c 0,18,19
 204 543 204 543 232 512.5 c 128,-1,20
 260 482 260 482 278 415 c 2,21,-1
 316 266 l 1,22,-1
 438 539 l 1,23,-1
 547 539 l 1,24,-1
 358 164 l 1,25,-1
 427 -75 l 2,26,27
 440 -118 440 -118 460.5 -138 c 128,-1,28
 481 -158 481 -158 517 -158 c 0,29,30
 537 -158 537 -158 562 -153 c 1,31,-1
 562 -234 l 1,32,33
 548 -238 548 -238 531 -241 c 128,-1,34
 514 -244 514 -244 493 -244 c 0,0,1
EndSplineSet
EndChar

StartChar: psi
Encoding: 968 968 404
Width: 600
GlyphClass: 2
Flags: W
AnchorPoint: "Anchor-3" 308 760 basechar 0
AnchorPoint: "Anchor-0" 308 -240 basechar 0
LayerCount: 2
Fore
SplineSet
262 -240 m 1,0,-1
 262 -9 l 1,1,2
 172 -6 172 -6 122.5 57.5 c 128,-1,3
 73 121 73 121 73 251 c 2,4,-1
 73 539 l 1,5,-1
 167 539 l 1,6,-1
 167 256 l 2,7,8
 167 168 167 168 189.5 124 c 128,-1,9
 212 80 212 80 262 75 c 1,10,-1
 262 760 l 1,11,-1
 352 760 l 1,12,-1
 352 75 l 1,13,14
 407 81 407 81 430.5 131.5 c 128,-1,15
 454 182 454 182 454 287 c 0,16,17
 454 411 454 411 423 539 c 1,18,-1
 516 539 l 1,19,20
 533 467 533 467 541 406 c 128,-1,21
 549 345 549 345 549 288 c 0,22,23
 549 142 549 142 498 69.5 c 128,-1,24
 447 -3 447 -3 352 -9 c 1,25,-1
 352 -240 l 1,26,-1
 262 -240 l 1,0,-1
EndSplineSet
EndChar

StartChar: omega
Encoding: 969 969 405
Width: 600
GlyphClass: 2
Flags: W
AnchorPoint: "Anchor-3" 300 539 basechar 0
AnchorPoint: "Anchor-0" 300 0 basechar 0
LayerCount: 2
Fore
SplineSet
195 -10 m 0,0,1
 126 -10 126 -10 88.5 60.5 c 128,-1,2
 51 131 51 131 51 265 c 0,3,4
 51 336 51 336 62 402 c 128,-1,5
 73 468 73 468 97 539 c 1,6,-1
 192 539 l 1,7,8
 166 468 166 468 156 402.5 c 128,-1,9
 146 337 146 337 146 264 c 0,10,11
 146 167 146 167 161 122.5 c 128,-1,12
 176 78 176 78 205 78 c 0,13,14
 232 78 232 78 243.5 113 c 128,-1,15
 255 148 255 148 255 221 c 2,16,-1
 255 354 l 1,17,-1
 345 354 l 1,18,-1
 345 221 l 2,19,20
 345 148 345 148 356.5 113 c 128,-1,21
 368 78 368 78 394 78 c 0,22,23
 454 78 454 78 454 261 c 0,24,25
 454 332 454 332 444 402.5 c 128,-1,26
 434 473 434 473 408 539 c 1,27,-1
 504 539 l 1,28,29
 527 471 527 471 538 403.5 c 128,-1,30
 549 336 549 336 549 266 c 0,31,32
 549 131 549 131 509.5 60.5 c 128,-1,33
 470 -10 470 -10 403 -10 c 0,34,35
 363 -10 363 -10 337.5 14.5 c 128,-1,36
 312 39 312 39 301 83 c 1,37,-1
 299 83 l 1,38,39
 276 -10 276 -10 195 -10 c 0,0,1
EndSplineSet
EndChar

StartChar: afii10051
Encoding: 1026 1026 412
Width: 600
GlyphClass: 2
Flags: W
AnchorPoint: "Anchor-3" 195 714 basechar 0
AnchorPoint: "Anchor-0" 300 0 basechar 0
LayerCount: 2
Fore
SplineSet
364 -10 m 0,0,1
 344 -10 344 -10 327 -6.5 c 128,-1,2
 310 -3 310 -3 297 3 c 1,3,-1
 297 93 l 1,4,5
 310 87 310 87 323.5 83.5 c 128,-1,6
 337 80 337 80 353 80 c 0,7,8
 384 80 384 80 407.5 98.5 c 128,-1,9
 431 117 431 117 431 175 c 2,10,-1
 431 254 l 2,11,12
 431 306 431 306 404.5 329.5 c 128,-1,13
 378 353 378 353 316 353 c 2,14,-1
 219 353 l 1,15,-1
 219 0 l 1,16,-1
 115 0 l 1,17,-1
 115 624 l 1,18,-1
 0 624 l 1,19,-1
 0 714 l 1,20,-1
 405 714 l 1,21,-1
 405 624 l 1,22,-1
 219 624 l 1,23,-1
 219 443 l 1,24,-1
 322 443 l 2,25,26
 424 443 424 443 478 396.5 c 128,-1,27
 532 350 532 350 532 263 c 2,28,-1
 532 169 l 2,29,30
 532 84 532 84 486 37 c 128,-1,31
 440 -10 440 -10 364 -10 c 0,0,1
EndSplineSet
EndChar

StartChar: afii10053
Encoding: 1028 1028 414
Width: 600
GlyphClass: 2
Flags: W
AnchorPoint: "Anchor-3" 385 714 basechar 0
AnchorPoint: "Anchor-0" 379 0 basechar 0
LayerCount: 2
Fore
SplineSet
375 -10 m 0,0,1
 265 -10 265 -10 190.5 35 c 128,-1,2
 116 80 116 80 78.5 161 c 128,-1,3
 41 242 41 242 41 351 c 0,4,5
 41 461 41 461 79.5 545.5 c 128,-1,6
 118 630 118 630 193.5 677.5 c 128,-1,7
 269 725 269 725 380 725 c 0,8,9
 432 725 432 725 477 714 c 128,-1,10
 522 703 522 703 561 682 c 1,11,-1
 527 597 l 1,12,13
 494 615 494 615 458.5 625 c 128,-1,14
 423 635 423 635 380 635 c 0,15,16
 308 635 308 635 259.5 606 c 128,-1,17
 211 577 211 577 183.5 527.5 c 128,-1,18
 156 478 156 478 149 414 c 1,19,-1
 468 414 l 1,20,-1
 468 327 l 1,21,-1
 148 327 l 1,22,23
 150 255 150 255 176.5 199.5 c 128,-1,24
 203 144 203 144 254.5 112 c 128,-1,25
 306 80 306 80 386 80 c 0,26,27
 429 80 429 80 466.5 89 c 128,-1,28
 504 98 504 98 538 112 c 1,29,-1
 538 22 l 1,30,31
 466 -10 466 -10 375 -10 c 0,0,1
EndSplineSet
EndChar

StartChar: afii10058
Encoding: 1033 1033 419
Width: 600
GlyphClass: 2
Flags: W
AnchorPoint: "Anchor-3" 257 714 basechar 0
AnchorPoint: "Anchor-0" 300 0 basechar 0
LayerCount: 2
Fore
SplineSet
61 -10 m 0,0,1
 44 -10 44 -10 32 -7 c 128,-1,2
 20 -4 20 -4 10 0 c 1,3,-1
 10 81 l 1,4,5
 17 77 17 77 23.5 75 c 128,-1,6
 30 73 30 73 41 73 c 0,7,8
 64 73 64 73 78 99.5 c 128,-1,9
 92 126 92 126 99 187 c 0,10,11
 107 252 107 252 115.5 387.5 c 128,-1,12
 124 523 124 523 132 714 c 1,13,-1
 382 714 l 1,14,-1
 382 420 l 1,15,-1
 405 420 l 2,16,17
 507 420 507 420 550 366 c 128,-1,18
 593 312 593 312 593 214 c 0,19,20
 593 113 593 113 547.5 56.5 c 128,-1,21
 502 0 502 0 408 0 c 2,22,-1
 291 0 l 1,23,-1
 291 623 l 1,24,-1
 214 623 l 1,25,26
 208 474 208 474 200 350 c 128,-1,27
 192 226 192 226 182 150 c 0,28,29
 171 74 171 74 143 32 c 128,-1,30
 115 -10 115 -10 61 -10 c 0,0,1
382 85 m 1,31,-1
 412 85 l 2,32,33
 459 85 459 85 480 117 c 128,-1,34
 501 149 501 149 501 212 c 0,35,36
 501 276 501 276 479.5 305 c 128,-1,37
 458 334 458 334 407 334 c 2,38,-1
 382 334 l 1,39,-1
 382 85 l 1,31,-1
EndSplineSet
EndChar

StartChar: afii10059
Encoding: 1034 1034 420
Width: 600
GlyphClass: 2
Flags: W
AnchorPoint: "Anchor-3" 209 714 basechar 0
AnchorPoint: "Anchor-0" 300 0 basechar 0
LayerCount: 2
Fore
SplineSet
47 0 m 1,0,-1
 47 714 l 1,1,-1
 146 714 l 1,2,-1
 146 422 l 1,3,-1
 270 422 l 1,4,-1
 270 714 l 1,5,-1
 369 714 l 1,6,-1
 369 421 l 1,7,-1
 396 421 l 2,8,9
 499 421 499 421 546 366.5 c 128,-1,10
 593 312 593 312 593 214 c 0,11,12
 593 114 593 114 545 57 c 128,-1,13
 497 0 497 0 403 0 c 2,14,-1
 270 0 l 1,15,-1
 270 335 l 1,16,-1
 146 335 l 1,17,-1
 146 0 l 1,18,-1
 47 0 l 1,0,-1
369 85 m 1,19,-1
 398 85 l 2,20,21
 492 85 492 85 492 213 c 0,22,23
 492 278 492 278 468 306.5 c 128,-1,24
 444 335 444 335 393 335 c 2,25,-1
 369 335 l 1,26,-1
 369 85 l 1,19,-1
EndSplineSet
EndChar

StartChar: afii10060
Encoding: 1035 1035 421
Width: 600
GlyphClass: 2
Flags: W
AnchorPoint: "Anchor-3" 213 714 basechar 0
AnchorPoint: "Anchor-0" 327 0 basechar 0
LayerCount: 2
Fore
SplineSet
115 0 m 1,0,-1
 115 623 l 1,1,-1
 0 623 l 1,2,-1
 0 714 l 1,3,-1
 413 714 l 1,4,-1
 413 623 l 1,5,-1
 220 623 l 1,6,-1
 220 443 l 1,7,-1
 327 443 l 2,8,9
 439 443 439 443 485.5 395.5 c 128,-1,10
 532 348 532 348 532 261 c 2,11,-1
 532 0 l 1,12,-1
 428 0 l 1,13,-1
 428 250 l 2,14,15
 428 299 428 299 406 325.5 c 128,-1,16
 384 352 384 352 319 352 c 2,17,-1
 220 352 l 1,18,-1
 220 0 l 1,19,-1
 115 0 l 1,0,-1
EndSplineSet
EndChar

StartChar: afii10145
Encoding: 1039 1039 424
Width: 600
GlyphClass: 2
Flags: W
AnchorPoint: "Anchor-3" 300 714 basechar 0
AnchorPoint: "Anchor-0" 300 -196 basechar 0
LayerCount: 2
Fore
SplineSet
251 -196 m 1,0,-1
 251 0 l 1,1,-1
 63 0 l 1,2,-1
 63 714 l 1,3,-1
 167 714 l 1,4,-1
 167 90 l 1,5,-1
 434 90 l 1,6,-1
 434 714 l 1,7,-1
 537 714 l 1,8,-1
 537 0 l 1,9,-1
 349 0 l 1,10,-1
 349 -196 l 1,11,-1
 251 -196 l 1,0,-1
EndSplineSet
EndChar

StartChar: afii10018
Encoding: 1041 1041 426
Width: 600
GlyphClass: 2
Flags: W
AnchorPoint: "Anchor-3" 300 714 basechar 0
AnchorPoint: "Anchor-0" 300 0 basechar 0
LayerCount: 2
Fore
SplineSet
91 0 m 1,0,-1
 91 714 l 1,1,-1
 506 714 l 1,2,-1
 506 624 l 1,3,-1
 195 624 l 1,4,-1
 195 421 l 1,5,-1
 301 421 l 2,6,7
 391 421 391 421 445.5 395.5 c 128,-1,8
 500 370 500 370 524.5 324 c 128,-1,9
 549 278 549 278 549 214 c 0,10,11
 549 113 549 113 490.5 56.5 c 128,-1,12
 432 0 432 0 307 0 c 2,13,-1
 91 0 l 1,0,-1
195 89 m 1,14,-1
 301 89 l 2,15,16
 374 89 374 89 408.5 119.5 c 128,-1,17
 443 150 443 150 443 214 c 256,18,19
 443 278 443 278 406.5 305 c 128,-1,20
 370 332 370 332 292 332 c 2,21,-1
 195 332 l 1,22,-1
 195 89 l 1,14,-1
EndSplineSet
EndChar

StartChar: afii10021
Encoding: 1044 1044 429
Width: 600
GlyphClass: 2
Flags: W
AnchorPoint: "Anchor-3" 357 714 basechar 0
AnchorPoint: "Anchor-0" 300 -195 basechar 0
LayerCount: 2
Fore
SplineSet
17 -195 m 1,0,-1
 17 91 l 1,1,-1
 68 91 l 1,2,3
 125 224 125 224 163 381.5 c 128,-1,4
 201 539 201 539 209 714 c 1,5,-1
 499 714 l 1,6,-1
 499 91 l 1,7,-1
 573 91 l 1,8,-1
 573 -195 l 1,9,-1
 476 -195 l 1,10,-1
 476 0 l 1,11,-1
 114 0 l 1,12,-1
 114 -195 l 1,13,-1
 17 -195 l 1,0,-1
178 91 m 1,14,-1
 398 91 l 1,15,-1
 398 623 l 1,16,-1
 299 623 l 1,17,18
 294 539 294 539 277 445 c 128,-1,19
 260 351 260 351 234.5 259.5 c 128,-1,20
 209 168 209 168 178 91 c 1,14,-1
EndSplineSet
EndChar

StartChar: afii10024
Encoding: 1046 1046 431
Width: 600
GlyphClass: 2
Flags: W
AnchorPoint: "Anchor-3" 300 714 basechar 0
AnchorPoint: "Anchor-0" 300 0 basechar 0
LayerCount: 2
Fore
SplineSet
9 0 m 1,0,-1
 160 368 l 1,1,-1
 15 714 l 1,2,-1
 117 714 l 1,3,-1
 254 368 l 1,4,-1
 254 714 l 1,5,-1
 348 714 l 1,6,-1
 348 368 l 1,7,-1
 483 714 l 1,8,-1
 584 714 l 1,9,-1
 442 368 l 1,10,-1
 591 0 l 1,11,-1
 487 0 l 1,12,-1
 348 362 l 1,13,-1
 348 0 l 1,14,-1
 254 0 l 1,15,-1
 254 362 l 1,16,-1
 113 0 l 1,17,-1
 9 0 l 1,0,-1
EndSplineSet
EndChar

StartChar: afii10025
Encoding: 1047 1047 432
Width: 600
GlyphClass: 2
Flags: W
AnchorPoint: "Anchor-3" 297 714 basechar 0
AnchorPoint: "Anchor-0" 300 0 basechar 0
LayerCount: 2
Fore
SplineSet
266 -10 m 0,0,1
 202 -10 202 -10 150.5 0.5 c 128,-1,2
 99 11 99 11 60 28 c 1,3,-1
 60 125 l 1,4,5
 99 106 99 106 151 92.5 c 128,-1,6
 203 79 203 79 260 79 c 0,7,8
 352 79 352 79 393.5 110.5 c 128,-1,9
 435 142 435 142 435 203 c 0,10,11
 435 268 435 268 387 297.5 c 128,-1,12
 339 327 339 327 239 327 c 2,13,-1
 143 327 l 1,14,-1
 143 414 l 1,15,-1
 236 414 l 2,16,17
 334 414 334 414 376 444.5 c 128,-1,18
 418 475 418 475 418 533 c 0,19,20
 418 583 418 583 386 610 c 128,-1,21
 354 637 354 637 287 637 c 0,22,23
 225 637 225 637 184.5 618.5 c 128,-1,24
 144 600 144 600 112 579 c 1,25,-1
 64 652 l 1,26,27
 106 680 106 680 160 702 c 128,-1,28
 214 724 214 724 294 724 c 0,29,30
 411 724 411 724 467 674 c 128,-1,31
 523 624 523 624 523 545 c 0,32,33
 523 402 523 402 367 376 c 1,34,-1
 367 372 l 1,35,36
 457 362 457 362 499 317.5 c 128,-1,37
 541 273 541 273 541 199 c 0,38,39
 541 105 541 105 474.5 47.5 c 128,-1,40
 408 -10 408 -10 266 -10 c 0,0,1
EndSplineSet
EndChar

StartChar: afii10026
Encoding: 1048 1048 433
Width: 600
GlyphClass: 2
Flags: W
AnchorPoint: "Anchor-3" 300 714 basechar 0
AnchorPoint: "Anchor-0" 280 0 basechar 0
LayerCount: 2
Fore
SplineSet
63 0 m 1,0,-1
 63 714 l 1,1,-1
 160 714 l 1,2,-1
 160 322 l 2,3,4
 160 294 160 294 159 260 c 128,-1,5
 158 226 158 226 156 194.5 c 128,-1,6
 154 163 154 163 153 142 c 1,7,-1
 157 142 l 1,8,-1
 411 714 l 1,9,-1
 537 714 l 1,10,-1
 537 0 l 1,11,-1
 441 0 l 1,12,-1
 441 394 l 2,13,14
 441 424 441 424 442 460 c 128,-1,15
 443 496 443 496 444.5 527.5 c 128,-1,16
 446 559 446 559 448 577 c 1,17,-1
 444 577 l 1,18,-1
 188 0 l 1,19,-1
 63 0 l 1,0,-1
EndSplineSet
EndChar

StartChar: afii10028
Encoding: 1050 1050 435
Width: 600
GlyphClass: 2
Flags: W
AnchorPoint: "Anchor-3" 300 714 basechar 0
AnchorPoint: "Anchor-0" 301 0 basechar 0
LayerCount: 2
Fore
SplineSet
63 0 m 1,0,-1
 63 714 l 1,1,-1
 167 714 l 1,2,-1
 167 369 l 1,3,-1
 426 714 l 1,4,-1
 542 714 l 1,5,-1
 279 370 l 1,6,-1
 555 0 l 1,7,-1
 432 0 l 1,8,-1
 167 364 l 1,9,-1
 167 0 l 1,10,-1
 63 0 l 1,0,-1
EndSplineSet
EndChar

StartChar: afii10029
Encoding: 1051 1051 436
Width: 600
GlyphClass: 2
Flags: W
AnchorPoint: "Anchor-3" 380 714 basechar 0
AnchorPoint: "Anchor-0" 300 0 basechar 0
LayerCount: 2
Fore
SplineSet
73 -10 m 0,0,1
 36 -10 36 -10 11 2 c 1,2,-1
 11 89 l 1,3,4
 22 84 22 84 33.5 81.5 c 128,-1,5
 45 79 45 79 58 79 c 0,6,7
 93 79 93 79 110.5 118 c 128,-1,8
 128 157 128 157 138 231 c 0,9,10
 148 295 148 295 161 419.5 c 128,-1,11
 174 544 174 544 190 714 c 1,12,-1
 537 714 l 1,13,-1
 537 0 l 1,14,-1
 433 0 l 1,15,-1
 433 623 l 1,16,-1
 279 623 l 1,17,18
 272 542 272 542 264.5 460.5 c 128,-1,19
 257 379 257 379 248.5 308.5 c 128,-1,20
 240 238 240 238 232 190 c 0,21,22
 216 91 216 91 181.5 40.5 c 128,-1,23
 147 -10 147 -10 73 -10 c 0,0,1
EndSplineSet
EndChar

StartChar: afii10033
Encoding: 1055 1055 440
Width: 600
GlyphClass: 2
Flags: W
AnchorPoint: "Anchor-3" 300 714 basechar 0
AnchorPoint: "Anchor-0" 300 0 basechar 0
LayerCount: 2
Fore
SplineSet
63 0 m 1,0,-1
 63 714 l 1,1,-1
 537 714 l 1,2,-1
 537 0 l 1,3,-1
 434 0 l 1,4,-1
 434 624 l 1,5,-1
 167 624 l 1,6,-1
 167 0 l 1,7,-1
 63 0 l 1,0,-1
EndSplineSet
EndChar

StartChar: afii10037
Encoding: 1059 1059 444
Width: 600
GlyphClass: 2
Flags: W
AnchorPoint: "Anchor-3" 300 714 basechar 0
AnchorPoint: "Anchor-0" 200 0 basechar 0
LayerCount: 2
Fore
SplineSet
149 -10 m 0,0,1
 100 -10 100 -10 60 4 c 1,2,-1
 60 99 l 1,3,4
 96 83 96 83 142 83 c 0,5,6
 187 83 187 83 211.5 108.5 c 128,-1,7
 236 134 236 134 258 196 c 1,8,-1
 31 714 l 1,9,-1
 142 714 l 1,10,-1
 286 368 l 2,11,12
 293 352 293 352 299.5 332 c 128,-1,13
 306 312 306 312 312 289 c 1,14,-1
 316 289 l 1,15,16
 320 309 320 309 326 329 c 128,-1,17
 332 349 332 349 338 366 c 2,18,-1
 460 714 l 1,19,-1
 569 714 l 1,20,-1
 377 204 l 2,21,22
 350 132 350 132 320 84.5 c 128,-1,23
 290 37 290 37 250 13.5 c 128,-1,24
 210 -10 210 -10 149 -10 c 0,0,1
EndSplineSet
EndChar

StartChar: afii10038
Encoding: 1060 1060 445
Width: 600
GlyphClass: 2
Flags: W
AnchorPoint: "Anchor-3" 300 714 basechar 0
AnchorPoint: "Anchor-0" 300 0 basechar 0
LayerCount: 2
Fore
SplineSet
251 -10 m 1,0,-1
 251 100 l 1,1,2
 170 102 170 102 121.5 140.5 c 128,-1,3
 73 179 73 179 52 240.5 c 128,-1,4
 31 302 31 302 31 372 c 256,5,6
 31 442 31 442 53 501.5 c 128,-1,7
 75 561 75 561 123.5 598 c 128,-1,8
 172 635 172 635 251 636 c 1,9,-1
 251 724 l 1,10,-1
 350 724 l 1,11,-1
 350 636 l 1,12,13
 430 634 430 634 478.5 598 c 128,-1,14
 527 562 527 562 548 503 c 128,-1,15
 569 444 569 444 569 373 c 0,16,17
 569 321 569 321 557.5 273 c 128,-1,18
 546 225 546 225 520.5 186.5 c 128,-1,19
 495 148 495 148 453 125 c 128,-1,20
 411 102 411 102 350 100 c 1,21,-1
 350 -10 l 1,22,-1
 251 -10 l 1,0,-1
251 186 m 1,23,-1
 251 550 l 1,24,25
 186 548 186 548 159.5 500 c 128,-1,26
 133 452 133 452 133 372 c 0,27,28
 133 285 133 285 161.5 236.5 c 128,-1,29
 190 188 190 188 251 186 c 1,23,-1
350 186 m 1,30,31
 411 188 411 188 439 237.5 c 128,-1,32
 467 287 467 287 467 372 c 0,33,34
 467 454 467 454 440.5 501 c 128,-1,35
 414 548 414 548 350 550 c 1,36,-1
 350 186 l 1,30,31
EndSplineSet
EndChar

StartChar: afii10040
Encoding: 1062 1062 447
Width: 600
GlyphClass: 2
Flags: W
AnchorPoint: "Anchor-3" 300 714 basechar 0
AnchorPoint: "Anchor-0" 300 -199 basechar 0
LayerCount: 2
Fore
SplineSet
63 0 m 1,0,-1
 63 714 l 1,1,-1
 167 714 l 1,2,-1
 167 90 l 1,3,-1
 434 90 l 1,4,-1
 434 714 l 1,5,-1
 537 714 l 1,6,-1
 537 89 l 1,7,-1
 600 89 l 1,8,-1
 600 -195 l 1,9,-1
 499 -195 l 1,10,-1
 499 0 l 1,11,-1
 63 0 l 1,0,-1
EndSplineSet
EndChar

StartChar: afii10041
Encoding: 1063 1063 448
Width: 600
GlyphClass: 2
Flags: W
AnchorPoint: "Anchor-3" 300 714 basechar 0
AnchorPoint: "Anchor-0" 300 0 basechar 0
LayerCount: 2
Fore
SplineSet
433 0 m 1,0,-1
 433 287 l 1,1,2
 388 267 388 267 344 255.5 c 128,-1,3
 300 244 300 244 250 244 c 0,4,5
 159 244 159 244 111 291 c 128,-1,6
 63 338 63 338 63 427 c 2,7,-1
 63 714 l 1,8,-1
 167 714 l 1,9,-1
 167 449 l 2,10,11
 167 390 167 390 193.5 362.5 c 128,-1,12
 220 335 220 335 278 335 c 0,13,14
 316 335 316 335 354.5 344.5 c 128,-1,15
 393 354 393 354 433 371 c 1,16,-1
 433 714 l 1,17,-1
 537 714 l 1,18,-1
 537 0 l 1,19,-1
 433 0 l 1,0,-1
EndSplineSet
EndChar

StartChar: afii10042
Encoding: 1064 1064 449
Width: 600
GlyphClass: 2
Flags: W
AnchorPoint: "Anchor-3" 300 714 basechar 0
AnchorPoint: "Anchor-0" 300 0 basechar 0
LayerCount: 2
Fore
SplineSet
47 0 m 1,0,-1
 47 714 l 1,1,-1
 143 714 l 1,2,-1
 143 88 l 1,3,-1
 252 88 l 1,4,-1
 252 714 l 1,5,-1
 347 714 l 1,6,-1
 347 88 l 1,7,-1
 457 88 l 1,8,-1
 457 714 l 1,9,-1
 553 714 l 1,10,-1
 553 0 l 1,11,-1
 47 0 l 1,0,-1
EndSplineSet
EndChar

StartChar: afii10043
Encoding: 1065 1065 450
Width: 600
GlyphClass: 2
Flags: W
AnchorPoint: "Anchor-3" 300 714 basechar 0
AnchorPoint: "Anchor-0" 300 -196 basechar 0
LayerCount: 2
Fore
SplineSet
47 0 m 1,0,-1
 47 714 l 1,1,-1
 143 714 l 1,2,-1
 143 88 l 1,3,-1
 252 88 l 1,4,-1
 252 714 l 1,5,-1
 347 714 l 1,6,-1
 347 88 l 1,7,-1
 457 88 l 1,8,-1
 457 714 l 1,9,-1
 553 714 l 1,10,-1
 553 88 l 1,11,-1
 600 88 l 1,12,-1
 600 -196 l 1,13,-1
 504 -196 l 1,14,-1
 504 0 l 1,15,-1
 47 0 l 1,0,-1
EndSplineSet
EndChar

StartChar: afii10044
Encoding: 1066 1066 451
Width: 600
GlyphClass: 2
Flags: W
AnchorPoint: "Anchor-3" 300 714 basechar 0
AnchorPoint: "Anchor-0" 300 0 basechar 0
LayerCount: 2
Fore
SplineSet
111 0 m 1,0,-1
 111 623 l 1,1,-1
 0 623 l 1,2,-1
 0 714 l 1,3,-1
 215 714 l 1,4,-1
 215 421 l 1,5,-1
 323 421 l 2,6,7
 453 421 453 421 511 364.5 c 128,-1,8
 569 308 569 308 569 214 c 0,9,10
 569 114 569 114 508.5 57 c 128,-1,11
 448 0 448 0 327 0 c 2,12,-1
 111 0 l 1,0,-1
215 89 m 1,13,-1
 322 89 l 2,14,15
 463 89 463 89 463 214 c 0,16,17
 463 278 463 278 424.5 305 c 128,-1,18
 386 332 386 332 313 332 c 2,19,-1
 215 332 l 1,20,-1
 215 89 l 1,13,-1
EndSplineSet
EndChar

StartChar: afii10045
Encoding: 1067 1067 452
Width: 600
GlyphClass: 2
Flags: W
AnchorPoint: "Anchor-3" 300 714 basechar 0
AnchorPoint: "Anchor-0" 300 0 basechar 0
LayerCount: 2
Fore
SplineSet
47 0 m 1,0,-1
 47 714 l 1,1,-1
 146 714 l 1,2,-1
 146 421 l 1,3,-1
 197 421 l 2,4,5
 301 421 301 421 349 366.5 c 128,-1,6
 397 312 397 312 397 214 c 0,7,8
 397 114 397 114 348 57 c 128,-1,9
 299 0 299 0 204 0 c 2,10,-1
 47 0 l 1,0,-1
453 0 m 1,11,-1
 453 714 l 1,12,-1
 553 714 l 1,13,-1
 553 0 l 1,14,-1
 453 0 l 1,11,-1
146 85 m 1,15,-1
 199 85 l 2,16,17
 297 85 297 85 297 213 c 0,18,19
 297 278 297 278 271.5 306.5 c 128,-1,20
 246 335 246 335 194 335 c 2,21,-1
 146 335 l 1,22,-1
 146 85 l 1,15,-1
EndSplineSet
EndChar

StartChar: afii10046
Encoding: 1068 1068 453
Width: 600
GlyphClass: 2
Flags: W
AnchorPoint: "Anchor-3" 300 714 basechar 0
AnchorPoint: "Anchor-0" 300 0 basechar 0
LayerCount: 2
Fore
SplineSet
91 0 m 1,0,-1
 91 714 l 1,1,-1
 195 714 l 1,2,-1
 195 421 l 1,3,-1
 303 421 l 2,4,5
 433 421 433 421 491 364.5 c 128,-1,6
 549 308 549 308 549 214 c 0,7,8
 549 114 549 114 488.5 57 c 128,-1,9
 428 0 428 0 307 0 c 2,10,-1
 91 0 l 1,0,-1
195 89 m 1,11,-1
 302 89 l 2,12,13
 443 89 443 89 443 214 c 0,14,15
 443 278 443 278 404.5 305 c 128,-1,16
 366 332 366 332 293 332 c 2,17,-1
 195 332 l 1,18,-1
 195 89 l 1,11,-1
EndSplineSet
EndChar

StartChar: afii10048
Encoding: 1070 1070 455
Width: 600
GlyphClass: 2
Flags: W
AnchorPoint: "Anchor-3" 300 714 basechar 0
AnchorPoint: "Anchor-0" 300 0 basechar 0
LayerCount: 2
Fore
SplineSet
56 0 m 1,0,-1
 56 714 l 1,1,-1
 151 714 l 1,2,-1
 151 416 l 1,3,-1
 230 416 l 1,4,5
 234 565 234 565 270.5 645 c 128,-1,6
 307 725 307 725 395 725 c 0,7,8
 487 725 487 725 523 633.5 c 128,-1,9
 559 542 559 542 559 363 c 0,10,11
 559 246 559 246 545 162.5 c 128,-1,12
 531 79 531 79 495.5 34.5 c 128,-1,13
 460 -10 460 -10 394 -10 c 0,14,15
 333 -10 333 -10 297.5 30.5 c 128,-1,16
 262 71 262 71 246.5 147 c 128,-1,17
 231 223 231 223 229 329 c 1,18,-1
 151 329 l 1,19,-1
 151 0 l 1,20,-1
 56 0 l 1,0,-1
394 79 m 0,21,22
 434 79 434 79 448 150.5 c 128,-1,23
 462 222 462 222 462 360 c 0,24,25
 462 496 462 496 448 566 c 128,-1,26
 434 636 434 636 395 636 c 0,27,28
 354 636 354 636 339.5 565 c 128,-1,29
 325 494 325 494 325 359 c 0,30,31
 325 220 325 220 340 149.5 c 128,-1,32
 355 79 355 79 394 79 c 0,21,22
EndSplineSet
EndChar

StartChar: afii10066
Encoding: 1073 1073 458
Width: 600
GlyphClass: 2
Flags: W
AnchorPoint: "Anchor-3" 300 765 basechar 0
AnchorPoint: "Anchor-0" 300 0 basechar 0
LayerCount: 2
Fore
SplineSet
303 -10 m 0,0,1
 184 -10 184 -10 117.5 75 c 128,-1,2
 51 160 51 160 51 338 c 0,3,4
 51 498 51 498 106.5 592.5 c 128,-1,5
 162 687 162 687 294 723 c 0,6,7
 334 733 334 733 395 745.5 c 128,-1,8
 456 758 456 758 514 765 c 1,9,-1
 528 675 l 1,10,11
 494 671 494 671 454.5 665 c 128,-1,12
 415 659 415 659 377.5 652 c 128,-1,13
 340 645 340 645 314 638 c 0,14,15
 235 618 235 618 198.5 568 c 128,-1,16
 162 518 162 518 156 418 c 1,17,-1
 162 418 l 1,18,19
 184 450 184 450 230 476 c 128,-1,20
 276 502 276 502 340 502 c 0,21,22
 440 502 440 502 494.5 438 c 128,-1,23
 549 374 549 374 549 258 c 0,24,25
 549 128 549 128 482 59 c 128,-1,26
 415 -10 415 -10 303 -10 c 0,0,1
309 75 m 0,27,28
 371 75 371 75 407 116 c 128,-1,29
 443 157 443 157 443 250 c 0,30,31
 443 331 443 331 413.5 375.5 c 128,-1,32
 384 420 384 420 319 420 c 0,33,34
 278 420 278 420 243.5 403.5 c 128,-1,35
 209 387 209 387 185.5 364.5 c 128,-1,36
 162 342 162 342 154 323 c 1,37,38
 154 251 154 251 168.5 195 c 128,-1,39
 183 139 183 139 216.5 107 c 128,-1,40
 250 75 250 75 309 75 c 0,27,28
EndSplineSet
Substitution2: "'locl' Localized Forms in Cyrillic lookup 19 subtable" afii10066.loclSRB
Substitution2: "'aalt' Access All Alternates lookup 0 subtable" afii10066.loclSRB
EndChar

StartChar: afii10067
Encoding: 1074 1074 459
Width: 600
GlyphClass: 2
Flags: W
AnchorPoint: "Anchor-3" 300 539 basechar 0
AnchorPoint: "Anchor-0" 300 0 basechar 0
LayerCount: 2
Fore
SplineSet
121 0 m 1,0,-1
 121 540 l 1,1,-1
 330 540 l 2,2,3
 414 540 414 540 466 508 c 128,-1,4
 518 476 518 476 518 403 c 0,5,6
 518 355 518 355 493.5 325.5 c 128,-1,7
 469 296 469 296 424 287 c 1,8,-1
 424 283 l 1,9,10
 472 276 472 276 503 244.5 c 128,-1,11
 534 213 534 213 534 159 c 0,12,13
 534 88 534 88 486 44 c 128,-1,14
 438 0 438 0 333 0 c 2,15,-1
 121 0 l 1,0,-1
220 320 m 1,16,-1
 317 320 l 2,17,18
 418 320 418 320 418 393 c 0,19,20
 418 461 418 461 325 461 c 2,21,-1
 220 461 l 1,22,-1
 220 320 l 1,16,-1
220 77 m 1,23,-1
 325 77 l 2,24,25
 377 77 377 77 405 97.5 c 128,-1,26
 433 118 433 118 433 164 c 0,27,28
 433 206 433 206 405 224.5 c 128,-1,29
 377 243 377 243 324 243 c 2,30,-1
 220 243 l 1,31,-1
 220 77 l 1,23,-1
EndSplineSet
EndChar

StartChar: afii10068
Encoding: 1075 1075 460
Width: 600
GlyphClass: 2
Flags: W
AnchorPoint: "Anchor-3" 331 539 basechar 0
AnchorPoint: "Anchor-0" 300 0 basechar 0
LayerCount: 2
Fore
SplineSet
173 0 m 1,0,-1
 173 540 l 1,1,-1
 505 540 l 1,2,-1
 505 456 l 1,3,-1
 275 456 l 1,4,-1
 275 0 l 1,5,-1
 173 0 l 1,0,-1
EndSplineSet
EndChar

StartChar: afii10069
Encoding: 1076 1076 461
Width: 600
GlyphClass: 2
Flags: W
AnchorPoint: "Anchor-3" 340 539 basechar 0
AnchorPoint: "Anchor-0" 300 -189 basechar 0
LayerCount: 2
Fore
SplineSet
50 -189 m 1,0,-1
 50 83 l 1,1,-1
 93 83 l 1,2,3
 146 175 146 175 172.5 296 c 128,-1,4
 199 417 199 417 203 540 c 1,5,-1
 478 540 l 1,6,-1
 478 83 l 1,7,-1
 550 83 l 1,8,-1
 550 -189 l 1,9,-1
 455 -189 l 1,10,-1
 455 0 l 1,11,-1
 145 0 l 1,12,-1
 145 -189 l 1,13,-1
 50 -189 l 1,0,-1
198 83 m 1,14,-1
 380 83 l 1,15,-1
 380 458 l 1,16,-1
 290 458 l 1,17,18
 286 394 286 394 274.5 327.5 c 128,-1,19
 263 261 263 261 244 198.5 c 128,-1,20
 225 136 225 136 198 83 c 1,14,-1
EndSplineSet
EndChar

StartChar: afii10072
Encoding: 1078 1078 463
Width: 600
GlyphClass: 2
Flags: W
AnchorPoint: "Anchor-3" 300 539 basechar 0
AnchorPoint: "Anchor-0" 300 0 basechar 0
LayerCount: 2
Fore
SplineSet
9 0 m 1,0,-1
 161 284 l 1,1,-1
 22 540 l 1,2,-1
 125 540 l 1,3,-1
 253 283 l 1,4,-1
 253 540 l 1,5,-1
 345 540 l 1,6,-1
 345 283 l 1,7,-1
 475 540 l 1,8,-1
 578 540 l 1,9,-1
 439 284 l 1,10,-1
 591 0 l 1,11,-1
 484 0 l 1,12,-1
 345 279 l 1,13,-1
 345 0 l 1,14,-1
 253 0 l 1,15,-1
 253 279 l 1,16,-1
 115 0 l 1,17,-1
 9 0 l 1,0,-1
EndSplineSet
EndChar

StartChar: afii10073
Encoding: 1079 1079 464
Width: 600
GlyphClass: 2
Flags: W
AnchorPoint: "Anchor-3" 300 539 basechar 0
AnchorPoint: "Anchor-0" 300 0 basechar 0
LayerCount: 2
Fore
SplineSet
264 -10 m 0,0,1
 208 -10 208 -10 157.5 1 c 128,-1,2
 107 12 107 12 74 28 c 1,3,-1
 74 117 l 1,4,5
 107 101 107 101 156 87 c 128,-1,6
 205 73 205 73 264 73 c 0,7,8
 330 73 330 73 369.5 93 c 128,-1,9
 409 113 409 113 409 159 c 0,10,11
 409 200 409 200 370.5 221 c 128,-1,12
 332 242 332 242 247 242 c 2,13,-1
 185 242 l 1,14,-1
 185 321 l 1,15,-1
 241 321 l 2,16,17
 314 321 314 321 353.5 339 c 128,-1,18
 393 357 393 357 393 397 c 0,19,20
 393 468 393 468 279 468 c 0,21,22
 232 468 232 468 194 459 c 128,-1,23
 156 450 156 450 122 434 c 1,24,-1
 88 509 l 1,25,26
 173 549 173 549 282 549 c 0,27,28
 378 549 378 549 433.5 512.5 c 128,-1,29
 489 476 489 476 489 409 c 0,30,31
 489 316 489 316 377 288 c 1,32,-1
 377 284 l 1,33,34
 432 272 432 272 471 242 c 128,-1,35
 510 212 510 212 510 152 c 0,36,37
 510 106 510 106 484.5 69.5 c 128,-1,38
 459 33 459 33 404.5 11.5 c 128,-1,39
 350 -10 350 -10 264 -10 c 0,0,1
EndSplineSet
EndChar

StartChar: afii10074
Encoding: 1080 1080 465
Width: 600
GlyphClass: 2
Flags: W
AnchorPoint: "Anchor-3" 301 539 basechar 0
AnchorPoint: "Anchor-0" 310 0 basechar 0
LayerCount: 2
Fore
SplineSet
73 0 m 1,0,-1
 73 540 l 1,1,-1
 170 540 l 1,2,-1
 170 251 l 2,3,4
 170 234 170 234 169 208.5 c 128,-1,5
 168 183 168 183 166.5 158.5 c 128,-1,6
 165 134 165 134 164 118 c 1,7,-1
 406 540 l 1,8,-1
 527 540 l 1,9,-1
 527 0 l 1,10,-1
 430 0 l 1,11,-1
 430 282 l 2,12,13
 430 302 430 302 431 328 c 128,-1,14
 432 354 432 354 433.5 379 c 128,-1,15
 435 404 435 404 436 421 c 1,16,-1
 194 0 l 1,17,-1
 73 0 l 1,0,-1
EndSplineSet
EndChar

StartChar: afii10076
Encoding: 1082 1082 467
Width: 600
GlyphClass: 2
Flags: W
AnchorPoint: "Anchor-3" 320 539 basechar 0
AnchorPoint: "Anchor-0" 324 0 basechar 0
LayerCount: 2
Fore
SplineSet
92 0 m 1,0,-1
 92 540 l 1,1,-1
 194 540 l 1,2,-1
 194 280 l 1,3,-1
 434 540 l 1,4,-1
 558 540 l 1,5,-1
 310 282 l 1,6,-1
 574 0 l 1,7,-1
 450 0 l 1,8,-1
 194 276 l 1,9,-1
 194 0 l 1,10,-1
 92 0 l 1,0,-1
EndSplineSet
EndChar

